<svg id="Layer_1" data-name="Layer 1" xmlns="http://www.w3.org/2000/svg" xmlns:xlink="http://www.w3.org/1999/xlink" viewBox="0 0 827.58 828.06"><defs><style>.cls-1{fill:url(#linear-gradient);}.cls-2{opacity:0.3;}.cls-3{fill:#91b3fa;}.cls-4{fill:#bdd0fb;}.cls-5{fill:url(#linear-gradient-2);}.cls-35,.cls-6,.cls-8{fill:#fff;}.cls-6{opacity:0.14;}.cls-7{fill:#7d97f4;}.cls-8{opacity:0.65;}.cls-9{fill:url(#linear-gradient-3);}.cls-10{opacity:0.19;fill:url(#linear-gradient-4);}.cls-11{fill:url(#linear-gradient-5);}.cls-12{fill:url(#linear-gradient-6);}.cls-13{fill:url(#linear-gradient-7);}.cls-14{fill:url(#linear-gradient-8);}.cls-15{fill:url(#linear-gradient-9);}.cls-16{fill:url(#linear-gradient-10);}.cls-17{fill:url(#linear-gradient-11);}.cls-18{fill:url(#linear-gradient-12);}.cls-19{fill:url(#linear-gradient-13);}.cls-20{fill:url(#linear-gradient-14);}.cls-21{fill:url(#linear-gradient-15);}.cls-22{fill:url(#linear-gradient-16);}.cls-23{fill:url(#linear-gradient-17);}.cls-24{fill:url(#linear-gradient-18);}.cls-25{fill:url(#linear-gradient-19);}.cls-26{fill:url(#linear-gradient-20);}.cls-27{fill:url(#linear-gradient-21);}.cls-28{fill:url(#linear-gradient-22);}.cls-29{fill:url(#linear-gradient-23);}.cls-30{fill:url(#linear-gradient-24);}.cls-31{fill:url(#linear-gradient-25);}.cls-32{fill:url(#linear-gradient-26);}.cls-33{fill:url(#linear-gradient-27);}.cls-34{opacity:0.6;}.cls-36{fill:url(#linear-gradient-28);}.cls-37{fill:url(#linear-gradient-29);}.cls-38,.cls-39{opacity:0.46;}.cls-38{fill:url(#linear-gradient-30);}.cls-39{fill:url(#linear-gradient-31);}.cls-40{fill:url(#linear-gradient-32);}.cls-41{opacity:0.45;}.cls-42{fill:url(#linear-gradient-33);}.cls-43{fill:url(#linear-gradient-34);}.cls-44{fill:url(#linear-gradient-35);}.cls-45{fill:url(#linear-gradient-36);}.cls-46{fill:url(#linear-gradient-37);}.cls-47{fill:url(#linear-gradient-38);}.cls-48{fill:url(#linear-gradient-39);}.cls-49{fill:url(#linear-gradient-40);}.cls-50{fill:url(#linear-gradient-41);}.cls-51{fill:url(#linear-gradient-42);}.cls-52{fill:url(#linear-gradient-43);}.cls-53{fill:url(#linear-gradient-44);}.cls-54{fill:url(#linear-gradient-45);}.cls-55{fill:url(#linear-gradient-46);}.cls-56{fill:url(#linear-gradient-47);}.cls-57{fill:url(#linear-gradient-48);}.cls-58{fill:url(#linear-gradient-49);}.cls-59{fill:url(#linear-gradient-50);}.cls-60{fill:url(#linear-gradient-51);}.cls-61{fill:url(#linear-gradient-52);}.cls-62{fill:url(#linear-gradient-53);}.cls-63{fill:url(#linear-gradient-54);}.cls-64{fill:url(#linear-gradient-55);}.cls-65{fill:url(#linear-gradient-56);}.cls-66{fill:url(#linear-gradient-57);}.cls-67{fill:url(#linear-gradient-58);}.cls-68{fill:url(#linear-gradient-59);}.cls-69{fill:url(#linear-gradient-60);}.cls-70{fill:url(#linear-gradient-61);}.cls-71{fill:url(#linear-gradient-62);}.cls-72{fill:url(#linear-gradient-63);}.cls-73{fill:url(#linear-gradient-64);}.cls-74{fill:url(#linear-gradient-65);}.cls-75{fill:url(#linear-gradient-66);}.cls-76{fill:url(#linear-gradient-67);}.cls-77{fill:url(#linear-gradient-68);}.cls-78{fill:url(#linear-gradient-69);}</style><linearGradient id="linear-gradient" x1="898.72" y1="957.83" x2="322.72" y2="344.67" gradientUnits="userSpaceOnUse"><stop offset="0" stop-color="#dae3fe"/><stop offset="1" stop-color="#e9effd"/></linearGradient><linearGradient id="linear-gradient-2" y1="379.59" x2="796.5" y2="379.59" gradientUnits="userSpaceOnUse"><stop offset="0" stop-color="#09005d"/><stop offset="1" stop-color="#1a0f91"/></linearGradient><linearGradient id="linear-gradient-3" x1="474.4" y1="278.82" x2="457.9" y2="499.31" gradientUnits="userSpaceOnUse"><stop offset="0" stop-color="#ff928e"/><stop offset="1" stop-color="#fe7062"/></linearGradient><linearGradient id="linear-gradient-4" x1="76.52" y1="363.54" x2="175.88" y2="363.54" xlink:href="#linear-gradient-2"/><linearGradient id="linear-gradient-5" x1="44.88" y1="277.84" x2="59.01" y2="277.84" xlink:href="#linear-gradient"/><linearGradient id="linear-gradient-6" x1="125.81" y1="324.96" x2="146.31" y2="222.21" xlink:href="#linear-gradient-2"/><linearGradient id="linear-gradient-7" x1="89.32" y1="249.6" x2="94.83" y2="332.4" gradientUnits="userSpaceOnUse"><stop offset="0" stop-color="#4f52ff"/><stop offset="1" stop-color="#4042e2"/></linearGradient><linearGradient id="linear-gradient-8" x1="76.83" y1="204.21" x2="74.83" y2="229.71" xlink:href="#linear-gradient-2"/><linearGradient id="linear-gradient-9" x1="163.55" y1="254.22" x2="169.2" y2="338.97" xlink:href="#linear-gradient-7"/><linearGradient id="linear-gradient-10" x1="122.4" y1="226.6" x2="137.9" y2="226.6" gradientUnits="userSpaceOnUse"><stop offset="0" stop-color="#febbba"/><stop offset="1" stop-color="#ff928e"/></linearGradient><linearGradient id="linear-gradient-11" x1="116.43" y1="197.36" x2="119.06" y2="236.75" xlink:href="#linear-gradient-2"/><linearGradient id="linear-gradient-12" x1="867.56" y1="197.36" x2="870.18" y2="236.75" gradientTransform="matrix(-1, 0, 0, 1, 1010.99, 0)" xlink:href="#linear-gradient-2"/><linearGradient id="linear-gradient-13" x1="122.65" y1="217.39" x2="137.83" y2="217.39" xlink:href="#linear-gradient-2"/><linearGradient id="linear-gradient-14" x1="130.01" y1="219.81" x2="130.36" y2="224.97" xlink:href="#linear-gradient-7"/><linearGradient id="linear-gradient-15" x1="128.88" y1="214.19" x2="129.88" y2="214.19" xlink:href="#linear-gradient-3"/><linearGradient id="linear-gradient-16" x1="99" y1="275.68" x2="159.19" y2="275.68" xlink:href="#linear-gradient-7"/><linearGradient id="linear-gradient-17" x1="91.88" y1="351.07" x2="118.74" y2="351.07" xlink:href="#linear-gradient-2"/><linearGradient id="linear-gradient-18" x1="143.66" y1="351.26" x2="170.52" y2="351.26" xlink:href="#linear-gradient-2"/><linearGradient id="linear-gradient-19" x1="97.96" y1="317.89" x2="165.03" y2="317.89" xlink:href="#linear-gradient-7"/><linearGradient id="linear-gradient-20" x1="77.91" y1="250.63" x2="122.4" y2="250.63" xlink:href="#linear-gradient-2"/><linearGradient id="linear-gradient-21" x1="800.92" y1="251.55" x2="843.28" y2="251.55" gradientTransform="matrix(-1, 0, 0, 1, 982.12, 0)" xlink:href="#linear-gradient-2"/><linearGradient id="linear-gradient-22" x1="166.64" y1="111.36" x2="146.64" y2="188.36" xlink:href="#linear-gradient-3"/><linearGradient id="linear-gradient-23" x1="178.64" y1="114.48" x2="158.64" y2="191.48" xlink:href="#linear-gradient-3"/><linearGradient id="linear-gradient-24" x1="130.37" y1="297.17" x2="131.67" y2="316.71" xlink:href="#linear-gradient-2"/><linearGradient id="linear-gradient-25" x1="126.33" y1="302.4" x2="126.5" y2="305.03" xlink:href="#linear-gradient-2"/><linearGradient id="linear-gradient-26" x1="256.01" y1="329.1" x2="205.51" y2="314.85" xlink:href="#linear-gradient-2"/><linearGradient id="linear-gradient-27" x1="61.58" y1="230.93" x2="116.9" y2="230.93" xlink:href="#linear-gradient-3"/><linearGradient id="linear-gradient-28" x1="51.23" y1="261.39" x2="78.6" y2="261.39" xlink:href="#linear-gradient"/><linearGradient id="linear-gradient-29" x1="589.69" y1="909.54" x2="567.69" y2="659.54" xlink:href="#linear-gradient-2"/><linearGradient id="linear-gradient-30" x1="380.36" y1="607.89" x2="516.28" y2="607.89" gradientTransform="translate(561.15 -138.97) rotate(45)" xlink:href="#linear-gradient-7"/><linearGradient id="linear-gradient-31" x1="642.11" y1="607.89" x2="778.02" y2="607.89" gradientTransform="translate(286.68 -225.46) rotate(22.5)" xlink:href="#linear-gradient-7"/><linearGradient id="linear-gradient-32" x1="473.3" y1="556.27" x2="385.18" y2="709.02" xlink:href="#linear-gradient-2"/><linearGradient id="linear-gradient-33" x1="557.51" y1="574.9" x2="539.04" y2="606.91" gradientUnits="userSpaceOnUse"><stop offset="0" stop-color="#5ab6ff"/><stop offset="1" stop-color="#2f68e3"/></linearGradient><linearGradient id="linear-gradient-34" x1="603.57" y1="574.9" x2="585.11" y2="606.91" xlink:href="#linear-gradient-33"/><linearGradient id="linear-gradient-35" x1="6906.95" y1="732.68" x2="6893.41" y2="759.32" gradientTransform="translate(-6719.48)" xlink:href="#linear-gradient-2"/><linearGradient id="linear-gradient-36" x1="6881.2" y1="743.28" x2="6894.69" y2="743.28" gradientTransform="translate(-6719.48)" xlink:href="#linear-gradient-10"/><linearGradient id="linear-gradient-37" x1="6862.53" y1="707.58" x2="6919.86" y2="627.23" gradientTransform="translate(-6719.48)" gradientUnits="userSpaceOnUse"><stop offset="0" stop-color="#2b3582"/><stop offset="0.23" stop-color="#252a70"/><stop offset="0.73" stop-color="#19164f"/><stop offset="1" stop-color="#150e42"/></linearGradient><linearGradient id="linear-gradient-38" x1="6899.09" y1="759.61" x2="6852.14" y2="821.01" gradientTransform="translate(-6719.48)" xlink:href="#linear-gradient-2"/><linearGradient id="linear-gradient-39" x1="156.12" y1="772.91" x2="192.4" y2="772.91" xlink:href="#linear-gradient-7"/><linearGradient id="linear-gradient-40" x1="6871.44" y1="755.73" x2="6884.11" y2="755.73" gradientTransform="translate(-6719.48)" xlink:href="#linear-gradient-10"/><linearGradient id="linear-gradient-41" x1="6841.87" y1="747.62" x2="6845.03" y2="640.18" gradientTransform="translate(-6719.48)" xlink:href="#linear-gradient-2"/><linearGradient id="linear-gradient-42" x1="187.6" y1="488.33" x2="177.6" y2="574.33" xlink:href="#linear-gradient-3"/><linearGradient id="linear-gradient-43" x1="6910.13" y1="609.72" x2="6954.3" y2="609.72" gradientTransform="translate(-6719.48)" xlink:href="#linear-gradient-10"/><linearGradient id="linear-gradient-44" x1="149.22" y1="483.87" x2="139.22" y2="569.87" xlink:href="#linear-gradient-3"/><linearGradient id="linear-gradient-45" x1="130.67" y1="568.91" x2="193.33" y2="522.24" xlink:href="#linear-gradient-10"/><linearGradient id="linear-gradient-46" x1="104.65" y1="478.69" x2="94.65" y2="564.69" xlink:href="#linear-gradient-3"/><linearGradient id="linear-gradient-47" x1="139.13" y1="353.36" x2="91.13" y2="695.34" gradientUnits="userSpaceOnUse"><stop offset="0" stop-color="#e1473d"/><stop offset="1" stop-color="#e9605a"/></linearGradient><linearGradient id="linear-gradient-48" x1="165.99" y1="516.79" x2="92.49" y2="692.28" xlink:href="#linear-gradient-10"/><linearGradient id="linear-gradient-49" x1="6409.56" y1="46.85" x2="6406.89" y2="103.51" gradientTransform="matrix(0.92, 0.39, -0.39, 0.92, -7253.95, 1233.35)" xlink:href="#linear-gradient-10"/><linearGradient id="linear-gradient-50" x1="6562.71" y1="-3554.61" x2="6595.45" y2="-3512.46" gradientTransform="matrix(0.92, 0.39, -0.39, 0.92, -7253.95, 1233.35)" xlink:href="#linear-gradient-2"/><linearGradient id="linear-gradient-51" x1="6397.73" y1="46.28" x2="6395.06" y2="102.95" gradientTransform="matrix(0.92, 0.39, -0.39, 0.92, -7253.95, 1233.35)" xlink:href="#linear-gradient-10"/><linearGradient id="linear-gradient-52" x1="3861.08" y1="927.74" x2="3803.63" y2="943.48" gradientTransform="matrix(-1, -0.05, -0.05, 1, 4045.56, -127.96)" xlink:href="#linear-gradient-7"/><linearGradient id="linear-gradient-53" x1="3851.93" y1="570.81" x2="3811.16" y2="613.89" gradientTransform="matrix(-1, 0, 0, 1, 4072.97, 0)" xlink:href="#linear-gradient-2"/><linearGradient id="linear-gradient-54" x1="391.04" y1="317.18" x2="659.04" y2="-4.82" xlink:href="#linear-gradient-7"/><linearGradient id="linear-gradient-55" x1="628.42" y1="635.73" x2="629.8" y2="611.43" xlink:href="#linear-gradient-47"/><linearGradient id="linear-gradient-56" x1="669.7" y1="638.09" x2="625.7" y2="732.76" xlink:href="#linear-gradient-3"/><linearGradient id="linear-gradient-57" x1="558.35" y1="693.01" x2="637.32" y2="883.76" xlink:href="#linear-gradient-10"/><linearGradient id="linear-gradient-58" x1="-7748.6" y1="692.6" x2="-7669.63" y2="883.35" gradientTransform="matrix(-1, 0, 0, 1, -7050.26, 0)" xlink:href="#linear-gradient-10"/><linearGradient id="linear-gradient-59" x1="628.49" y1="717.71" x2="624.39" y2="883.78" xlink:href="#linear-gradient-2"/><linearGradient id="linear-gradient-60" x1="683.41" y1="784.52" x2="726.56" y2="784.52" gradientTransform="translate(-1.48 27.91) rotate(0.44)" xlink:href="#linear-gradient-2"/><linearGradient id="linear-gradient-61" x1="704.37" y1="739.89" x2="658.82" y2="863.27" xlink:href="#linear-gradient-10"/><linearGradient id="linear-gradient-62" x1="-8312.92" y1="731.33" x2="-8269.75" y2="731.33" gradientTransform="matrix(-1, -0.02, -0.02, 1, -7725.48, -79.96)" xlink:href="#linear-gradient-2"/><linearGradient id="linear-gradient-63" x1="613.11" y1="702.71" x2="567.53" y2="826.15" xlink:href="#linear-gradient-10"/><linearGradient id="linear-gradient-64" x1="644.15" y1="694.69" x2="644.81" y2="774.69" xlink:href="#linear-gradient-7"/><linearGradient id="linear-gradient-65" x1="616.59" y1="817.29" x2="585.56" y2="738.15" xlink:href="#linear-gradient-7"/><linearGradient id="linear-gradient-66" x1="627.67" y1="708.76" x2="626.62" y2="617.34" xlink:href="#linear-gradient-10"/><linearGradient id="linear-gradient-67" x1="750.57" y1="-33.59" x2="753.84" y2="-113.14" gradientTransform="translate(-121.59 570.47) rotate(9.25)" xlink:href="#linear-gradient-10"/><linearGradient id="linear-gradient-68" x1="642.01" y1="560.39" x2="632.73" y2="597.18" xlink:href="#linear-gradient-47"/><linearGradient id="linear-gradient-69" x1="314.08" y1="1140.84" x2="319.21" y2="1016.17" gradientTransform="translate(151.1 -420.57) rotate(-7.64)" xlink:href="#linear-gradient-10"/></defs><title>game-development</title><path class="cls-1" d="M725.78,711.84c-21.26,21.91-40.29,34.8-54.86,44.52-142.07,94.86-304.47,67.52-354.68,58.18-81-15.08-149.39-25.72-208.14-78.8-133.5-120.61-127-372.22-25-528.08,12.09-18.48,114-169.47,276.7-190.74,4-.52,6.95-.82,9.55-1.09,25.18-2.67,181.2-16.74,308.42,89.84a379.77,379.77,0,0,1,74.69,84.75C851.84,343.89,852.15,581.58,725.78,711.84Z"/><g class="cls-2"><path class="cls-3" d="M262.62,79a2.47,2.47,0,0,1-3-1.83c-.63-2.59-1.38-5.19-2.24-7.73a2.48,2.48,0,0,1,1.52-3.13l.05,0a2.5,2.5,0,0,1,3.15,1.57c.89,2.67,1.68,5.41,2.35,8.14a2.5,2.5,0,0,1-1.58,2.93ZM252.39,57.31c-1.19-2.4-2.5-4.78-3.88-7.06a2.48,2.48,0,1,1,4.25-2.57c1.45,2.39,2.83,4.89,4.08,7.42a2.48,2.48,0,0,1-1.12,3.33l-.28.11A2.47,2.47,0,0,1,252.39,57.31ZM241,39.58c-1.69-2.07-3.49-4.09-5.35-6a2.48,2.48,0,1,1,3.56-3.46c2,2,3.86,4.15,5.64,6.32a2.48,2.48,0,0,1-.36,3.5,2.43,2.43,0,0,1-.73.42A2.5,2.5,0,0,1,241,39.58Zm-15.1-14.73c-2.11-1.64-4.32-3.21-6.56-4.66A2.48,2.48,0,1,1,222,16c2.36,1.53,4.69,3.18,6.91,4.9a2.5,2.5,0,0,1,.44,3.49,2.48,2.48,0,0,1-3.49.44Zm-18-11c-2.42-1.13-4.92-2.17-7.43-3.09a2.49,2.49,0,1,1,1.71-4.67c2.65,1,5.28,2.07,7.82,3.26a2.48,2.48,0,0,1,1.2,3.3,2.44,2.44,0,0,1-1.41,1.29A2.49,2.49,0,0,1,207.87,13.85Zm-20-6.74c-2.62-.57-5.28-1-7.94-1.37a2.49,2.49,0,0,1,.64-4.93c2.79.36,5.6.85,8.35,1.44a2.48,2.48,0,0,1,.3,4.77A2.46,2.46,0,0,1,187.89,7.11Zm-89,24.32a2.48,2.48,0,0,1,.06-3.51c2-2,4.15-3.85,6.34-5.63a2.49,2.49,0,1,1,3.14,3.86c-2.08,1.68-4.11,3.48-6,5.34a2.51,2.51,0,0,1-3.52-.06ZM166.91,5c-2.67,0-5.37.17-8,.43A2.49,2.49,0,0,1,158.4.45c2.8-.27,5.65-.42,8.46-.45a2.49,2.49,0,0,1,.86,4.83A2.38,2.38,0,0,1,166.91,5ZM115.69,17.78a2.48,2.48,0,0,1,.84-3.41c2.41-1.45,4.91-2.82,7.43-4.07a2.49,2.49,0,1,1,2.2,4.46c-2.4,1.18-4.78,2.48-7.06,3.86a3.11,3.11,0,0,1-.45.22A2.48,2.48,0,0,1,115.69,17.78ZM146,7.57c-2.6.62-5.2,1.37-7.74,2.21a2.48,2.48,0,0,1-1.62-4.69l.05,0c2.67-.89,5.41-1.68,8.14-2.33a2.48,2.48,0,0,1,1.42,4.75Z"/><path class="cls-3" d="M90.11,45.27a2.47,2.47,0,0,0,1.18-.9c.75-1,1.53-2.09,2.32-3.1a2.49,2.49,0,0,0-3.93-3.05c-.83,1.07-1.65,2.16-2.43,3.26a2.49,2.49,0,0,0,2.86,3.79Z"/></g><g class="cls-2"><path class="cls-3" d="M73.63,119.21a2.49,2.49,0,0,0,1.6-2.79c-.23-1.26-.45-2.55-.63-3.82a2.48,2.48,0,1,0-4.92.7c.2,1.34.42,2.7.66,4a2.49,2.49,0,0,0,2.9,2A2.79,2.79,0,0,0,73.63,119.21Z"/><path class="cls-3" d="M196.57,194.31a2.48,2.48,0,1,1-1.44-4.75c2.5-.76,5-1.64,7.48-2.61a2.48,2.48,0,0,1,1.83,4.62c-1.08.42-2.15.83-3.23,1.21C199.68,193.33,198.11,193.85,196.57,194.31Zm16.71-9.51a2.48,2.48,0,0,1,.95-3.38c2.3-1.29,4.56-2.69,6.74-4.17a2.48,2.48,0,1,1,2.79,4.11c-2.29,1.56-4.68,3-7.1,4.39a2.64,2.64,0,0,1-.38.18A2.49,2.49,0,0,1,213.28,184.8Zm-29.91,12.54c-2.73.43-5.52.75-8.29.95a2.49,2.49,0,0,1-.35-5c2.62-.19,5.27-.49,7.86-.9a2.48,2.48,0,0,1,1.23,4.79A3.74,3.74,0,0,1,183.37,197.34Zm47.54-24.51a2.48,2.48,0,0,1,.18-3.51c2-1.76,3.86-3.63,5.66-5.55a2.48,2.48,0,1,1,3.62,3.4c-1.89,2-3.89,4-6,5.84a2.63,2.63,0,0,1-.83.5A2.5,2.5,0,0,1,230.91,172.83Zm-69.36,25.5c-2.75-.18-5.54-.48-8.28-.9a2.48,2.48,0,1,1,.74-4.91c2.6.39,5.25.68,7.87.85a2.49,2.49,0,0,1,.67,4.82A2.56,2.56,0,0,1,161.55,198.33Zm-21.5-3.82c-2.66-.78-5.31-1.68-7.89-2.68A2.48,2.48,0,1,1,134,187.2c2.45,1,5,1.8,7.5,2.55a2.48,2.48,0,0,1,.13,4.72A2.42,2.42,0,0,1,140.05,194.51Zm-20.16-8.41c-2.43-1.34-4.82-2.8-7.12-4.33a2.49,2.49,0,0,1,2.76-4.14c2.18,1.46,4.46,2.85,6.76,4.12a2.5,2.5,0,0,1,1,3.38,2.52,2.52,0,0,1-1.34,1.14A2.49,2.49,0,0,1,119.89,186.1ZM102,173.49c-2.07-1.83-4.09-3.78-6-5.79a2.48,2.48,0,1,1,3.6-3.42c1.81,1.9,3.73,3.75,5.7,5.5a2.48,2.48,0,1,1-3.3,3.71ZM87.39,157.26c-1.61-2.24-3.15-4.58-4.57-7a2.49,2.49,0,1,1,4.27-2.55c1.35,2.26,2.81,4.48,4.34,6.62a2.47,2.47,0,0,1-.57,3.46,2.59,2.59,0,0,1-.61.33A2.51,2.51,0,0,1,87.39,157.26Zm-10.71-19c-.8-1.87-1.55-3.79-2.24-5.71-.24-.69-.48-1.38-.71-2.08a2.45,2.45,0,0,1,1.57-3.14,2.48,2.48,0,0,1,3.14,1.57c.22.66.45,1.32.68,2,.65,1.83,1.37,3.65,2.13,5.43a2.49,2.49,0,0,1-1.31,3.26l-.14.06A2.48,2.48,0,0,1,76.68,138.23Z"/><path class="cls-3" d="M247.78,157.53a2.5,2.5,0,0,0,1.19-.91c.78-1.09,1.55-2.23,2.28-3.37a2.48,2.48,0,1,0-4.17-2.7c-.7,1.08-1.43,2.16-2.17,3.2a2.49,2.49,0,0,0,2.87,3.78Z"/></g><path class="cls-3" d="M240.62,115.53a1.14,1.14,0,0,0-.37-1.29l-11-8.82a61.77,61.77,0,0,0-1-19.93l10.08-9.89a1.15,1.15,0,0,0,.24-1.32L231.24,59a1.14,1.14,0,0,0-1.18-.65l-14,1.57a61.41,61.41,0,0,0-14.81-13.37l.14-14.13a1.15,1.15,0,0,0-.77-1.11l-16-5.68a1.15,1.15,0,0,0-1.3.37l-8.82,11a61.48,61.48,0,0,0-19.93,1l-9.89-10.08a1.15,1.15,0,0,0-1.32-.24L128,35a1.15,1.15,0,0,0-.65,1.18l1.57,14A61.59,61.59,0,0,0,115.58,65l-14.13-.14a1.15,1.15,0,0,0-1.11.77l-5.68,16A1.17,1.17,0,0,0,95,82.9l11,8.82a61.76,61.76,0,0,0,1,19.93L97,121.54a1.16,1.16,0,0,0-.24,1.32L104,138.18a1.15,1.15,0,0,0,1.18.65l14-1.57a61.78,61.78,0,0,0,14.81,13.37l-.14,14.13a1.15,1.15,0,0,0,.77,1.11l16,5.68a1.14,1.14,0,0,0,1.29-.37l8.82-11.05a61.48,61.48,0,0,0,19.93-1l9.89,10.08a1.17,1.17,0,0,0,1.33.24l15.31-7.28a1.15,1.15,0,0,0,.65-1.18l-1.57-14a61.59,61.59,0,0,0,13.37-14.81l14.13.14a1.15,1.15,0,0,0,1.11-.77Z"/><path class="cls-4" d="M171,115.29a17.07,17.07,0,1,1,2.41-.67A17.49,17.49,0,0,1,171,115.29Zm-14.19-24a13.06,13.06,0,1,0,8.31-5.56,13.27,13.27,0,0,0-1.87.52A13,13,0,0,0,156.78,91.31Z"/><path class="cls-4" d="M181.32,137.92c1.34-.48,2.67-1,4-1.65h0c.41-.19.82-.4,1.22-.6a42.83,42.83,0,0,0,5.71-3.54l.07-.06.21-.15.4-.31a1,1,0,0,0,.33-1.12,1.43,1.43,0,0,0-.15-.27,1,1,0,0,0-1.4-.18,39.94,39.94,0,0,1-45.62,2.17,39.64,39.64,0,0,1-14.81-16.66c-.59-1.24-1.12-2.51-1.58-3.79a39.92,39.92,0,1,1,77.37-9.53,1,1,0,0,0,.06.43,1,1,0,0,0,.84.65,1,1,0,0,0,1.08-.89,41.79,41.79,0,0,0-2.24-18,39.65,39.65,0,0,0-1.63-3.93,41.91,41.91,0,0,0-77.35,32,43,43,0,0,0,1.65,4,41.93,41.93,0,0,0,51.86,21.51Z"/><g class="cls-2"><path class="cls-3" d="M364.74,112.06a1.53,1.53,0,0,0,1-1.53c-.07-1.3-.19-2.62-.34-3.91a1.54,1.54,0,1,0-3.05.36c.15,1.23.26,2.49.33,3.73a1.53,1.53,0,0,0,1.62,1.44A1.57,1.57,0,0,0,364.74,112.06Z"/><path class="cls-3" d="M362.83,100.43A1.52,1.52,0,0,1,361,99.31a63.43,63.43,0,0,0-1.86-6.17c-.15-.42-.3-.85-.47-1.27a1.54,1.54,0,0,1,.89-2,1.59,1.59,0,0,1,2,.89c.17.44.34.89.5,1.33.75,2.11,1.4,4.29,1.94,6.47a1.53,1.53,0,0,1-1,1.81Zm-7.39-15.66a62.53,62.53,0,0,0-4.05-6.66,1.53,1.53,0,1,1,2.52-1.75,66.82,66.82,0,0,1,4.25,7,1.55,1.55,0,0,1-.64,2.08l-.21.09A1.54,1.54,0,0,1,355.44,84.77ZM346.54,72A62.29,62.29,0,0,0,341,66.55a1.53,1.53,0,1,1,2-2.32A67.07,67.07,0,0,1,348.83,70a1.54,1.54,0,0,1-.12,2.17,1.32,1.32,0,0,1-.51.3A1.53,1.53,0,0,1,346.54,72ZM334.78,61.82a64.57,64.57,0,0,0-6.73-3.93,1.53,1.53,0,0,1,1.38-2.74,66.32,66.32,0,0,1,7.06,4.12,1.54,1.54,0,0,1,.42,2.13,1.57,1.57,0,0,1-.76.59A1.53,1.53,0,0,1,334.78,61.82Zm-13.89-7a63.29,63.29,0,0,0-7.48-2.18,1.53,1.53,0,0,1,.67-3,65.19,65.19,0,0,1,7.85,2.28,1.54,1.54,0,0,1,0,2.89A1.58,1.58,0,0,1,320.89,54.82ZM305.72,51.4a63.24,63.24,0,0,0-7.78-.29,1.54,1.54,0,0,1-.08-3.07,65.41,65.41,0,0,1,8.16.3,1.54,1.54,0,0,1,.37,3A1.67,1.67,0,0,1,305.72,51.4Zm-15.54.39a64.64,64.64,0,0,0-7.62,1.64,1.54,1.54,0,0,1-.83-3,66.86,66.86,0,0,1,8-1.71,1.53,1.53,0,0,1,.75,3A1.37,1.37,0,0,1,290.18,51.79Zm-24.07,7.07a1.55,1.55,0,0,1,.57-2.1A68.39,68.39,0,0,1,273,53.58l1-.42a1.51,1.51,0,0,1,2,.82,1.53,1.53,0,0,1-.82,2l-.94.4a65.92,65.92,0,0,0-6.06,3l-.24.11A1.54,1.54,0,0,1,266.11,58.86Z"/></g><g class="cls-2"><path class="cls-3" d="M321,177.06a65.78,65.78,0,0,1-7.74,2.14,1.53,1.53,0,0,1-.64-3,65.76,65.76,0,0,0,7.39-2,1.54,1.54,0,0,1,1,2.9Zm5.39-3.77a1.54,1.54,0,0,1,.71-2,63.6,63.6,0,0,0,6.7-3.74,1.54,1.54,0,0,1,1.65,2.59,67.76,67.76,0,0,1-7,3.92l-.16.06A1.52,1.52,0,0,1,326.35,173.29Zm-21.09,7.09a65.25,65.25,0,0,1-8,.2,1.54,1.54,0,0,1,.11-3.07,61.24,61.24,0,0,0,7.66-.19,1.54,1.54,0,0,1,.65,3A1.59,1.59,0,0,1,305.26,180.38Zm34.48-15.24a1.54,1.54,0,0,1,.2-2.16,61.77,61.77,0,0,0,5.6-5.25,1.54,1.54,0,0,1,2.23,2.11,66.41,66.41,0,0,1-5.87,5.5,1.51,1.51,0,0,1-2.16-.2Zm-50.51,14.67a68.17,68.17,0,0,1-7.84-1.74,1.53,1.53,0,1,1,.84-2.95,61.76,61.76,0,0,0,7.49,1.65,1.54,1.54,0,0,1,.27,3A1.6,1.6,0,0,1,289.23,179.81Zm-15.42-4.41a68,68,0,0,1-7.21-3.56,1.53,1.53,0,1,1,1.53-2.66,64.39,64.39,0,0,0,6.87,3.39,1.54,1.54,0,0,1,.82,2,1.52,1.52,0,0,1-.9.84A1.47,1.47,0,0,1,273.81,175.4Zm-13.93-8a64.77,64.77,0,0,1-6.14-5.19,1.53,1.53,0,1,1,2.12-2.22,61.57,61.57,0,0,0,5.86,4.95,1.53,1.53,0,0,1,.31,2.15,1.59,1.59,0,0,1-.71.53A1.56,1.56,0,0,1,259.88,167.43Z"/><path class="cls-3" d="M352.24,154.14a1.56,1.56,0,0,0,.72-.53c.78-1.06,1.53-2.15,2.23-3.23a1.54,1.54,0,1,0-2.58-1.67c-.66,1-1.38,2.07-2.12,3.08a1.54,1.54,0,0,0,.33,2.15A1.52,1.52,0,0,0,352.24,154.14Z"/></g><path class="cls-3" d="M348.18,125.21a.8.8,0,0,0-.24-.87l-7.4-5.9a41.06,41.06,0,0,0-.67-13.33l6.75-6.62a.79.79,0,0,0,.16-.89l-4.87-10.25a.8.8,0,0,0-.79-.44L331.72,88a40.85,40.85,0,0,0-9.91-9l.1-9.45a.78.78,0,0,0-.52-.74L310.7,65a.78.78,0,0,0-.87.25l-5.9,7.39a41.07,41.07,0,0,0-13.33.68L284,66.59a.78.78,0,0,0-.89-.16L272.84,71.3a.77.77,0,0,0-.43.79l1,9.39a41.22,41.22,0,0,0-8.95,9.91l-9.45-.09a.77.77,0,0,0-.74.52l-3.81,10.69a.77.77,0,0,0,.25.86l7.39,5.91a41.1,41.1,0,0,0,.68,13.33l-6.75,6.62a.76.76,0,0,0-.16.88l4.87,10.25a.77.77,0,0,0,.79.44l9.39-1.05a41.39,41.39,0,0,0,9.91,8.94l-.09,9.46a.77.77,0,0,0,.52.74l10.69,3.8a.77.77,0,0,0,.86-.25l5.91-7.39a41.06,41.06,0,0,0,13.33-.67l6.62,6.75a.78.78,0,0,0,.88.16l10.25-4.87a.78.78,0,0,0,.44-.79l-1.05-9.4a41,41,0,0,0,8.94-9.91l9.46.1a.79.79,0,0,0,.74-.52Z"/><path class="cls-4" d="M301.61,125.24a11.62,11.62,0,1,1,1.66-.46A10.17,10.17,0,0,1,301.61,125.24ZM291,115.52a8.53,8.53,0,0,0,10,6.71h0a8.54,8.54,0,1,0-3.33-16.75,9.81,9.81,0,0,0-1.21.33A8.56,8.56,0,0,0,291,115.52Z"/><path class="cls-4" d="M308.82,141c.92-.33,1.82-.71,2.72-1.13a28.94,28.94,0,0,0,5-3.05l.21-.16a1.54,1.54,0,0,0,.52-1.73,1.67,1.67,0,0,0-.24-.43,1.54,1.54,0,0,0-2.15-.28,25.89,25.89,0,0,1-4.69,2.88h0l-.27.13a25.63,25.63,0,0,1-12.44,2.33,26.08,26.08,0,0,1-6.82-1.38l-.06,0-.16-.06a25.64,25.64,0,0,1-14.68-13.25,23.65,23.65,0,0,1-1-2.46,25.84,25.84,0,0,1,47.7-19.72,24.17,24.17,0,0,1,1,2.42,25.83,25.83,0,0,1,1.39,11.13,1.38,1.38,0,0,0,.08.67,1.53,1.53,0,0,0,3-.37,28.83,28.83,0,0,0-1.54-12.46c-.33-.92-.71-1.82-1.13-2.71a28.91,28.91,0,0,0-53.36,22.07c.33.93.71,1.84,1.13,2.75A29,29,0,0,0,308.82,141Z"/><path class="cls-5" d="M0,157.82V573.11a63,63,0,0,0,61.38,63c151.68,3.91,542.36,13.39,686.75,11.26a46.34,46.34,0,0,0,45.64-45c2.79-96.48,7.31-328.48-9.43-436.18a47.7,47.7,0,0,0-45.61-40.38c-127.09-4.06-549.64-17-694-13.73A45.8,45.8,0,0,0,0,157.82Z"/><path class="cls-3" d="M26.06,155.79V550.35a36.51,36.51,0,0,0,36,36.5l665.35,9.94a35.53,35.53,0,0,0,36.06-35.38l1.34-391a26,26,0,0,0-25.35-26.07L54.89,127.65A28.15,28.15,0,0,0,26.06,155.79Z"/><path class="cls-6" d="M38.71,189.05V520c0,16.73,15.26,30.37,34.26,30.62L707,559c18.85.25,34.29-13.09,34.36-29.68l1.28-328c0-11.86-10.68-21.58-24.15-21.87l-652.29-14C51.12,165.12,38.71,175.78,38.71,189.05Z"/><path class="cls-7" d="M769.48,612.88h0L26,597.83a1,1,0,0,1,0-2.06L769.5,610.82a1,1,0,0,1,0,2.06Z"/><path class="cls-8" d="M346.69,245.62c-3.22-15.25-11.21-10-24.6-14.71s-9.47-21.42-17.78-26.59c-11.08-6.88-21.25-.49-28.14,8.54-11.45,15-19.28,2.81-33,8.89-7.84,3.49-4.49,8.37-15.1,10.34-7.41,1.37-15.43-1.86-22.74.11-5.41,1.47-9.33,4-10.53,9.28q2.29,1.07,4.74,2c20.45,7.37,48.35,4.91,69,6C275.63,249.8,349,256.43,346.69,245.62Z"/><path class="cls-8" d="M484.89,208.1a12.89,12.89,0,0,0-13.27-4.56c-5.35,1.34-8.37,6.45-13.35,8.5-8.68,3.56-20.69-3.48-27.29,5.71-8.07,11.24-14.3,2.81-14.3,10.44s55.74,2,83.24,2.41c4,.06,21.22-.23,13.79-8.48-2.3-2.56-5.59-3-8.66-3.59-4-.78-13.51-1.21-16.4-4.32-1.56-1.67-2.16-4.08-3.57-5.87Z"/><rect class="cls-7" x="74.31" y="358.45" width="107.83" height="193.45" rx="12" ry="12"/><rect class="cls-7" x="216.87" y="391.09" width="53.92" height="161.99" rx="12" ry="12"/><path class="cls-9" d="M356.48,470.77c9.4-7.21,25.61-11.61,26.46-21.62-.62,9.41-.93,19.61,6.45,27.27,2.51,2.61,5.78,4.76,8.68,7.14,9.82,8.07,15.11,18.64,18.22,29.26-1.69-5.77-.35-11,1-16.68,1.19-4.91,7.48-7.72,12.29-10.42,5.87-3.3,11-6.75,13.53-12.18-1.05,3.26.18,6.66,1.41,9.87,2.33,6.15,3.48,12.64,6.1,18.59a54.21,54.21,0,0,1,4.51,26.91l3.87-8.53a31.08,31.08,0,0,1,1.5-3c4.69-7.88,15.33-10.58,21.54-17.41,9.72-10.68,1.82-25.09,4-37.87.51,9,12.17,15.36,17.31,22.93,4.08,6,5.33,12.89,6.44,19.62a38.58,38.58,0,0,1,14.17-9.28c7.7-3,17.93-7.18,14.07-15,5.74,3.24,9.47,9.52,10.83,14.81,3.59-4.74-.32-10.83,1.08-16.22.78-3,3.13-5.54,5.42-8l4.83-5.21c-1.41,1.52,2.17,10.52,2.61,12.54q1.53,7,3.21,14a224.25,224.25,0,0,1,4.44,23.49,168,168,0,0,1,1.19,31.93c-.11,2-.31,4-1.84,5.66-2.4,2.51-2.94,2.73-7.08,3-63.87,4-120.67-.52-196,1.09-4.54.1-14.39.22-17.43-2.29a10.26,10.26,0,0,1-3.47-5.23C338.51,529.62,333.64,488.3,356.48,470.77Z"/><rect class="cls-7" x="557.79" y="365.33" width="107.83" height="193.45" rx="12" ry="12"/><rect class="cls-7" x="297.74" y="317.84" width="53.92" height="238.27" rx="12" ry="12"/><rect class="cls-7" x="452.83" y="406.75" width="21.7" height="154.81" rx="9.8" ry="9.8"/><path class="cls-4" d="M727.65,362c4.61.86,9.3,2.58,11.22,4.91,8.69,10.51-2.14,26.83-5.48,37.37-5.74,18.1-6.61,37.42,0,55.37,7.19,19.45,12.27,38.76,11.21,59.34-.55,10.6-3.12,22-10.46,31-13.86,17-53.55,11.14-62.65-6.09-7.26-13.73-6.36-29.33-3.33-43.82,5.11-24.38,14.88-47.88,20.17-72.22,4-18.62-1.7-54.67,23.17-64.54A32.24,32.24,0,0,1,727.65,362Z"/><path class="cls-7" d="M711.32,589.36a1.09,1.09,0,0,0,.39-.08,1.18,1.18,0,0,0,.7-1.52c-22.4-60.24-17.6-116.23-9.64-152.59,8.65-39.44,22.78-64.95,22.92-65.2a1.19,1.19,0,1,0-2.07-1.17c-.15.26-14.43,26-23.15,65.78-8.05,36.69-12.91,93.2,9.71,154A1.18,1.18,0,0,0,711.32,589.36Z"/><path class="cls-4" d="M691.52,519.87c1.5-14.32-4.44-30.4-7.72-45.32-1.74-7.89-2.74-15.75-1.83-23.82s4.23-16.81.41-24.58c-7.7-15.66-23.89-7.62-32.79,4.86-10.34,14.48-12.27,37.44-15.62,55.21-2,10.71-5.3,21.76-6.12,32.61-1.36,18,3.26,30.21,12.21,38.2A25.91,25.91,0,0,0,671,559.71C679.82,554.24,689.11,543,691.52,519.87Z"/><path class="cls-7" d="M656.45,588.22a1.13,1.13,0,0,0,.58,0,1.19,1.19,0,0,0,.91-1.41C657.75,586,639.79,501,664.33,431a1.19,1.19,0,0,0-2.24-.78c-24.77,70.57-6.66,156.21-6.48,157.07A1.17,1.17,0,0,0,656.45,588.22Z"/><ellipse class="cls-10" cx="126.2" cy="363.54" rx="49.68" ry="6.27"/><path class="cls-11" d="M52.81,271.57l-4.87,5.12H46.7c-.53,0-1.82.94-1.82,1.48v4.45c0,.48.78.88,1.26.95l4,.53a1.12,1.12,0,0,0,1.1-.5l1.54-2.85L59,276.26Z"/><path class="cls-12" d="M91.88,250.63s-17.3,53.69-10.8,82.79c9.34-7.47,10.8-11.53,10.8-11.53l8.7,17.94L114.8,327l28.86,23.37,13.43-18.28,16.21,8.12s4.57-84.9-9.9-93.84C142.83,247.55,91.88,250.63,91.88,250.63Z"/><path class="cls-13" d="M86.36,250.63s-12.39,28.2-12,33.89,0,15.23,0,15.23l12-3.25,21.94-36.56Z"/><path class="cls-14" d="M63.81,270.7c-.05-5.73-7.41-6.6-7.41-6.6L52,269.67l1.22,9.51,5-.23A4.2,4.2,0,0,1,62.05,281l12.49,21.57a4.2,4.2,0,0,0,7.12.24l8.09-12Z"/><polygon class="cls-15" points="172.69 254.66 175.23 292.84 165.17 304.42 159.08 290.81 154.53 255.67 172.69 254.66"/><path class="cls-16" d="M122.82,220.62s-1.83,11,2.13,11.64,14.1,1.71,12.84-11.64C127.09,220.84,122.82,220.62,122.82,220.62Z"/><path class="cls-17" d="M124.17,215.56s-7,1.92-8-2.88c-.77-3.45.36-10.67,1-14.43a.43.43,0,0,0-.27-.48.43.43,0,0,0-.53.18c-3,5.14-9.68,18.08-3.6,20.75,7.61,3.35,12.41.84,12.41.84Z"/><path class="cls-18" d="M135.69,215.56s7,1.92,8.05-2.88c.77-3.45-.36-10.67-1.05-14.43a.44.44,0,0,1,.8-.3c3,5.14,9.68,18.08,3.61,20.75-7.62,3.35-12.42.84-12.42.84Z"/><path class="cls-19" d="M122.74,222s0-9.22,5.64-9.29,9.52,2,9.45,9.29C129.45,222.36,121.68,221.67,122.74,222Z"/><path class="cls-20" d="M121.91,220.42s-.81,1.61.83,1.56,15.54,1.14,15.7,0,0-1.72-.61-1.72S122.25,220.23,121.91,220.42Z"/><path class="cls-21" d="M129.88,218.19a.5.5,0,0,1-.5.5h0a.5.5,0,0,1-.5-.5v-8a.5.5,0,0,1,.5-.5h0a.5.5,0,0,1,.5.5Z"/><path class="cls-22" d="M101.59,256.69s-7.51,45.29,3,48.95c38,4.47,53.83,0,53.83,0s1.62-40.22,0-47.12S118.45,230.08,101.59,256.69Z"/><path class="cls-7" d="M159.88,282.19a.5.5,0,0,1-.5.5h-63a.5.5,0,0,1-.5-.5h0a.5.5,0,0,1,.5-.5h63a.5.5,0,0,1,.5.5Z"/><polygon class="cls-7" points="101.95 325.65 99 339.51 116.58 343.02 124.04 323.82 101.95 325.65"/><path class="cls-23" d="M109.45,360l9.27-21.49c0-.07,0,.62,0,.56s-.11.67-.19.67H98.36c-.12,0-.22-.68-.23-.55l-.69,21.17c0,.1-.07,0-.15,0L92,362.17c-.11,0-.17.68-.15.79s.12.73.23.73h17.8c.08,0,.14-.62.19-.68a1.39,1.39,0,0,0,0-.5l-.69-2.25A.8.8,0,0,1,109.45,360Z"/><polygon class="cls-7" points="160.45 325.65 163.4 339.51 145.82 343.02 138.36 323.82 160.45 325.65"/><path class="cls-24" d="M170.37,362.07l-5.4-2-.7-20.94c0-.13-.11.55-.23.55H143.89c-.08,0-.15-.74-.19-.67s0-.24,0-.17L153,360.14c0,.05,0,0,0,.07l-.69,2.06a3.21,3.21,0,0,0,0,.76c0,.06.11.66.19.66h17.8c.11,0,.21-.67.23-.78S170.48,362.11,170.37,362.07Z"/><path class="cls-25" d="M159.19,304.17l-58-1.07L98,328.59a1,1,0,0,0,.22.75,1,1,0,0,0,.68.36l31.62,2.87a1,1,0,0,0,1.08-.86l1.77-13.53L138.51,332c.09.24.32.72.58.72H164.4c.19,0,.37-.41.49-.55a1,1,0,0,0,.12-.68Z"/><path class="cls-26" d="M113.89,232.58s-24.15-5.15-33.22,8.09a.58.58,0,0,0,0,.58.62.62,0,0,0,.46.35c2.79.39,3.4,0,3.52-.11L78,249.63a.59.59,0,0,0-.05.68.61.61,0,0,0,.63.28l4-.78a.62.62,0,0,1,.48.11.6.6,0,0,1,.23.44l.41,6.89a.59.59,0,0,0,.33.5.61.61,0,0,0,.61-.05L88.55,255a.59.59,0,0,1,.53-.08.6.6,0,0,1,.38.38l2.3,6.73a.58.58,0,0,0,.49.4.6.6,0,0,0,.57-.26l2.55-3.82a.57.57,0,0,1,.56-.26.59.59,0,0,1,.49.38l4.14,10.81a.59.59,0,0,0,1.06.1l2.77-4.38a.6.6,0,0,1,.7-.24l5.17,1.82a.6.6,0,0,0,.69-.23l11.45-17.19S120.46,233.42,113.89,232.58Z"/><path class="cls-27" d="M147,234.36s23-4.9,31.62,7.7a.57.57,0,0,1,.05.55.54.54,0,0,1-.44.33c-2.65.38-3.23,0-3.35-.1l6.25,7.75a.57.57,0,0,1,0,.65.56.56,0,0,1-.59.26l-3.83-.74a.57.57,0,0,0-.46.11.57.57,0,0,0-.22.42l-.39,6.55a.55.55,0,0,1-.32.48.58.58,0,0,1-.57,0l-3.67-2.57a.56.56,0,0,0-.5-.07.54.54,0,0,0-.36.36L168,262.41a.58.58,0,0,1-.47.38.56.56,0,0,1-.54-.25l-2.43-3.64a.58.58,0,0,0-.53-.25.61.61,0,0,0-.47.36l-3.94,10.29a.56.56,0,0,1-.47.37.57.57,0,0,1-.54-.26L156,265.24a.58.58,0,0,0-.67-.24l-4.92,1.74a.58.58,0,0,1-.66-.22l-10.9-16.36S140.7,235.16,147,234.36Z"/><path class="cls-28" d="M148.45,239.79a5,5,0,0,1,3.65,1.09.66.66,0,0,0,1-.66c-.66-4.18-9.45-15.74-15.19-16.44-1.83,3.3-4.11,4-4.11,4l-3.55-2.13-3.41,2.18-4.31-4s-8.94,7.16-13.62,16.38a.62.62,0,0,0,.72.88l5.24-1.43a.63.63,0,0,1,.63.2.6.6,0,0,1,.1.65c-1.44,3.38-5.34,13.11-4.68,18.3a.66.66,0,0,0,.35.49.64.64,0,0,0,.6,0c3.13-1.93,6.07-3.93,7.49-4.9a.6.6,0,0,1,.62-.05.61.61,0,0,1,.36.51c.3,3.28,1.54,13.16,6,17a.61.61,0,0,0,.87-.05,105.3,105.3,0,0,0,7.92-9.45.63.63,0,0,1,.52-.27.62.62,0,0,1,.51.29l3.75,5.8a.61.61,0,0,0,1,.05,29.83,29.83,0,0,0,5.65-11,.63.63,0,0,1,.4-.45.6.6,0,0,1,.59.1l3.92,3.09a.63.63,0,0,0,.67.06.64.64,0,0,0,.34-.59c-.23-3.63-1.15-13.46-4.49-18.62a.62.62,0,0,1,0-.62A.6.6,0,0,1,148.45,239.79Z"/><rect class="cls-29" x="99.88" y="298.69" width="60" height="7"/><path class="cls-30" d="M137.76,298.54c-3.22-.32-6.43-.61-9.66-.81-1.92-.12-3.9-.16-5.2.67a3.06,3.06,0,0,0-1.28,1.77c-.5,1.75-1.25,4.25-.11,5.92a5.38,5.38,0,0,0,3.85,1.73c3.77.24,8,.84,11.82.49,3-.28,3-2.88,3.28-4.7S140.92,298.86,137.76,298.54Zm.63,4.68c-.18,1.4-.22,3.4-2.52,3.61-2.91.28-6.19-.19-9.1-.37a4.14,4.14,0,0,1-3-1.33c-.87-1.29-.3-3.21.09-4.56a2.31,2.31,0,0,1,1-1.36c1-.64,2.52-.61,4-.52,2.49.16,5,.38,7.43.63S138.58,301.78,138.39,303.22Z"/><path class="cls-31" d="M130.88,303.19a.5.5,0,0,1-.5.5h-8a.5.5,0,0,1-.5-.5h0a.5.5,0,0,1,.5-.5h8a.5.5,0,0,1,.5.5Z"/><path class="cls-32" d="M176,285.53c0-.31-.09-.59-.39-.69a.66.66,0,0,0-.76.21c-3.08,3.47-10.9,12.31-13.25,15a1.43,1.43,0,0,0-.16,1.66l6.9,12.27a3.14,3.14,0,0,1,.13,2.8c-.32.72-.75,1.8-1.3,3.39-.76,2.21,1.3,4.5,3.29,6.11a3.11,3.11,0,0,0,2.6.63,2.76,2.76,0,0,0,1.89-1.62l1.95-4.2v-7.16Z"/><polygon class="cls-33" points="61.58 259.23 95.09 201.64 116.9 197.77 111.52 217.39 65.84 264.1 61.58 259.23"/><g class="cls-34"><path class="cls-35" d="M64.63,260.65a.33.33,0,0,1-.19-.06.32.32,0,0,1-.06-.43l37-48.81a.3.3,0,0,1,.43-.06.31.31,0,0,1,.06.43l-37,48.81A.3.3,0,0,1,64.63,260.65Z"/><path class="cls-35" d="M100.35,210.8a.32.32,0,0,1-.27-.16l-4.32-8.27a.3.3,0,0,1,.54-.28l4.32,8.27a.3.3,0,0,1-.13.41A.32.32,0,0,1,100.35,210.8Z"/><path class="cls-35" d="M110.88,217.32a.23.23,0,0,1-.14,0l-8.31-4.23a.3.3,0,0,1-.13-.41.31.31,0,0,1,.41-.14l8.31,4.24a.31.31,0,0,1,.13.41A.29.29,0,0,1,110.88,217.32Z"/></g><path class="cls-36" d="M64,267l-.92,1-5-3.48,1.06-1.69s-3-5.38-6.4-7.21-.51-5.28,2.44-6.09,2.64,4.87,2.64,4.87l5.69,6,9.34,6.4s5.49,0,5.74,2.93-5.65,6.37-7.73.53C68.79,267.81,63.76,267,64,267Z"/><path class="cls-3" d="M47.14,278.92s-1,2.82,0,3.12,3.09.46,3.39,0c.69-1,1.24-2.19,0-3C49.94,278.73,47.41,277.88,47.14,278.92Z"/><path class="cls-37" d="M827.31,756.35l-17.75-156.8h0a104.11,104.11,0,0,0-185.22-57.48H528.94A104.11,104.11,0,0,0,343.72,599.5l0,0L325.94,756.33A41.78,41.78,0,0,0,351,799.43L368.62,807a41.79,41.79,0,0,0,47.55-10.58l84.1-93.95H653l84.1,93.95A41.79,41.79,0,0,0,784.64,807l17.61-7.53A41.74,41.74,0,0,0,827.31,756.35Z"/><circle class="cls-38" cx="448.32" cy="607.89" r="67.96" transform="translate(-298.53 495.06) rotate(-45)"/><circle class="cls-39" cx="710.07" cy="607.89" r="67.96" transform="translate(-178.58 318) rotate(-22.5)"/><circle class="cls-7" cx="710.28" cy="572.57" r="15.73"/><circle class="cls-7" cx="710.28" cy="640.23" r="15.73" transform="translate(-207.75 907.84) rotate(-58.28)"/><circle class="cls-7" cx="744.11" cy="606.4" r="15.73" transform="translate(-87.53 127.02) rotate(-9.22)"/><circle class="cls-3" cx="676.45" cy="606.4" r="15.73" transform="matrix(0.99, -0.16, 0.16, 0.99, -88.4, 116.19)"/><path class="cls-40" d="M479.89,599.23H457.31l-3.09-29.44c-.32-3.08-2.91-4.68-6-4.68H440.7c-1.66,0-3.25,0-4.39,1.18a5.21,5.21,0,0,0-1.64,4.12l1.76,28.82H408.28c-3.34,0-6.65,2.75-6.65,6.09V611c0,3.34,3.31,6.11,6.65,6.11H437.5l1.79,30a6.12,6.12,0,0,0,6,5.78h10.77a6.27,6.27,0,0,0,6-6.83l-3-29h20.76c3.33,0,4.49-2.77,4.49-6.11v-5.72C484.38,602,483.22,599.23,479.89,599.23Z"/><g class="cls-41"><path class="cls-42" d="M564.57,585.58a3.42,3.42,0,0,1-3.42,3.42H541.53a3.42,3.42,0,0,1-3.41-3.42h0a3.41,3.41,0,0,1,3.41-3.41h19.62a3.42,3.42,0,0,1,3.42,3.41Z"/></g><g class="cls-41"><path class="cls-43" d="M610.63,585.58a3.42,3.42,0,0,1-3.41,3.42H587.6a3.41,3.41,0,0,1-3.41-3.42h0a3.41,3.41,0,0,1,3.41-3.41h19.62a3.41,3.41,0,0,1,3.41,3.41Z"/></g><rect class="cls-7" x="122.24" y="680.33" width="7.67" height="82.97"/><path class="cls-7" d="M92.47,764.89h67.2v-2.13a2.86,2.86,0,0,0-2.86-2.86H95.55A3.08,3.08,0,0,0,92.47,763Z"/><rect class="cls-7" x="79.77" y="660.57" width="89.79" height="25.46" rx="8.77" ry="8.77"/><path class="cls-44" d="M168.8,748.6s21.91,15.79,18.11,26.4c0,0-24-10.35-26.87-18.49s.49-11.75.49-11.75Z"/><path class="cls-45" d="M165.51,735.36l-3.58,10.36a3.59,3.59,0,0,0,1.4,4.22,9,9,0,0,0,3,1.15,4.19,4.19,0,0,0,4.64-2.1l4.28-8.07Z"/><path class="cls-46" d="M130.65,642.15s45,7.8,64.3,25.63-17.72,74.71-17.72,74.71-6.06,0-13.41-6.34c0,0,22-42.78,3-55.25-21.27-14-45.77-17.18-45.77-17.18l9.14-20.19Z"/><path class="cls-47" d="M183.1,769.13c-4.82-2.23-18.46-11.78-20.76-12.2s-6.29,2.28-6.29,2.28-1,1.75.07,4.79c3.2,3.87,10.31,11.26,19.87,14,7,2,11.95.14,15-2.07A20.27,20.27,0,0,0,183.1,769.13Z"/><path class="cls-48" d="M176,778c-9.56-2.75-16.67-10.14-19.87-14,.7,2,2.32,4.7,5.77,7.81,8.57,7.7,24.94,10.48,28.42,9.94,2.8-.43,2.53-3,.69-5.81C187.94,778.15,183,780,176,778Z"/><path class="cls-49" d="M152,752.47c.05,1.33,2.76,5.88,4.35,8.44a4.12,4.12,0,0,0,3.5,2,10.44,10.44,0,0,0,2.9-.34,2.69,2.69,0,0,0,1.8-3.34l-3.1-10.58Z"/><path class="cls-50" d="M87.34,628.64s-10,26.72,0,34.85,33.83,17.28,39.15,33.46,14.37,47.64,26.46,58.78c0,0,8.5-.82,11.68-4.21,0,0-6.89-47-11.43-59-3.94-10.44-9.73-25.5-20.84-33.92-3.18-2.41-2.63-6.22-1.15-9.93l2.68-6.75Z"/><path class="cls-51" d="M191.56,607.7c-16.76,1-11.54-25.76-11.23-26.82l-25.43,18s1.34,14.32,22.49,21.82A26.26,26.26,0,0,0,192,621.72,23.1,23.1,0,0,1,191.56,607.7Z"/><path class="cls-52" d="M224,599.64c-6.25-4.34-13.32,0-13.32,0-8.35,5.46-14.52,7.79-19.08,8.06a23.1,23.1,0,0,0,.39,14c9.35-2,16-8.78,19-12.25a3,3,0,0,1,4.18-.46c1.3,1,2.56,2.43,2.33,3.91-.45,2.92,2.94,3.85,3.19,2.79s-1.16-7.33-1.16-7.33,6.78,6.81,9.42,9.42,6,0,6,0S230.2,604,224,599.64Z"/><path class="cls-53" d="M113.43,539.54s24.38-9.76,69.74,27.69c0,0,3.79,7.84-.34,14.82s-43.52,41-48.94,59.87c0,0-23.46,7.62-47.73-10.46C86.16,631.46,88.3,579,113.43,539.54Z"/><path class="cls-54" d="M161.62,530.83l-12,14.54a4.8,4.8,0,0,0-.63,5.14c1.67,3.4,5.62,8.34,14.38,7.66a7.37,7.37,0,0,0,6.06-4.13l8.39-17.35Z"/><path class="cls-55" d="M94.56,601.84c-2.83-11.52,25.83-37.22,25.83-37.22l-7-25.08s-61.89,41.2-46.12,74.34a24.14,24.14,0,0,0,8.74,10.3C81,610.76,89,604.61,94.56,601.84Z"/><path class="cls-56" d="M94.54,600.16a.67.67,0,0,1-.66-.51c-2.89-11.79,24.86-36.83,26-37.89a.68.68,0,0,1,1,.06.67.67,0,0,1-.06.95c-.28.26-28.33,25.55-25.62,36.55a.69.69,0,0,1-.5.82A.44.44,0,0,1,94.54,600.16Z"/><path class="cls-57" d="M138,600.85S104,614,95.69,604.12a5.5,5.5,0,0,1-1.13-2.28C89,604.61,81,610.76,76.05,624.18c17.88,11.42,48.43-6.36,56.69-11.6a6.17,6.17,0,0,1,4.57-.83c3.18.66,8.69,1.63,11.66,1.17,4.34-.67,10.58,14.65,17.61,9.93C166.58,622.85,160.56,596.22,138,600.85Z"/><path class="cls-58" d="M191.56,514.09s.2,15.84-2.36,23-3,12.39-11.68,10.4S163.65,538.6,162.88,530c0,0-1.28-13.23,1.88-17.11S191.56,514.09,191.56,514.09Z"/><path class="cls-59" d="M167.77,526.17l1,.43s-.59-10.46,3.77-10.43,20.36,3.22,25.73-.67c5.19-3.76,5.19-11.42,1.86-15a.59.59,0,0,0-.8,0l-.61.5a.6.6,0,0,1-1-.53h0a.59.59,0,0,0-.92-.57c-1.63,1.15-5.33,2.59-12.95.93-10.81-2.36-19.14-1.09-22.21,5.78a.6.6,0,0,1-1.05.09c-.55-.76-1.64-1.47-3.79-.8-3.72,1.15-5.12,7.63-1.16,15.11a.59.59,0,0,1-.39.87c-1.4.26-3.74,1.27-.46,5.3s6,4.95,7.09,5.11a.6.6,0,0,0,.66-.4l2.19-6.3a.6.6,0,0,1,.8-.35Z"/><path class="cls-60" d="M167.49,527.56s1.36-9.49-3.48-8.7-2,10.42.92,12Z"/><path class="cls-7" d="M281.32,779.8a3.11,3.11,0,0,0,1.19-.23,2.87,2.87,0,0,0,1.56-3.82L221.23,634.32a3,3,0,0,0-3.93-1.51,2.86,2.86,0,0,0-1.57,3.81l62.84,141.43A3,3,0,0,0,281.32,779.8Z"/><path class="cls-7" d="M210.53,779.8a3,3,0,0,0,2.75-1.75l62.85-141.43a2.87,2.87,0,0,0-1.57-3.81,3,3,0,0,0-3.94,1.51L207.78,775.75a2.87,2.87,0,0,0,1.57,3.82A3,3,0,0,0,210.53,779.8Z"/><path class="cls-7" d="M86.8,779.8a3,3,0,0,0,1.18-.23,2.87,2.87,0,0,0,1.57-3.82L26.71,634.32a3,3,0,0,0-3.94-1.51,2.85,2.85,0,0,0-1.56,3.81L84.05,778.05A3,3,0,0,0,86.8,779.8Z"/><path class="cls-7" d="M16,779.8a3,3,0,0,0,2.75-1.75L81.6,636.62A2.85,2.85,0,0,0,80,632.81a3,3,0,0,0-3.94,1.51L13.26,775.75a2.87,2.87,0,0,0,1.57,3.82A3,3,0,0,0,16,779.8Z"/><path class="cls-7" d="M8.64,630a3.49,3.49,0,0,1,.59-2.62,2.72,2.72,0,0,1,2.18-1.15H297.3a3.18,3.18,0,0,1,2.74,1.68,4,4,0,0,1,.21,3.49l-3.1,7.51a4.33,4.33,0,0,1-3.94,2.82H13.37a3.4,3.4,0,0,1-3.22-3Z"/><path class="cls-61" d="M155.38,626.87h.17l71.3-.08a3.19,3.19,0,1,0,0-6.38l-71.3.08a3.19,3.19,0,0,0-.16,6.38Z"/><path class="cls-62" d="M291,562.13H231.57a11.33,11.33,0,0,0-10.24,6.49l-27.45,58.21h73.8a6.87,6.87,0,0,0,6.39-4.35l21.29-53.87A4.74,4.74,0,0,0,291,562.13Z"/><ellipse class="cls-7" cx="253.57" cy="593.41" rx="7.6" ry="4.68" transform="translate(-388.99 652.96) rotate(-72.16)"/><circle class="cls-63" cx="290.81" cy="437.6" r="88.78"/><path class="cls-4" d="M228.23,435.29l36.7-19.13v8.15a3.19,3.19,0,0,1-.47,1.69,3.75,3.75,0,0,1-1.53,1.32l-16.81,8.62a15,15,0,0,1-2.25.95c-.79.26-1.63.5-2.53.72a26.26,26.26,0,0,1,2.53.72,15,15,0,0,1,2.25.94l16.81,8.67a3.75,3.75,0,0,1,1.53,1.32,3.19,3.19,0,0,1,.47,1.69v8.15l-36.7-19.18Z"/><path class="cls-4" d="M285.63,469a7,7,0,0,1-1.06,1.86,6.54,6.54,0,0,1-1.48,1.31,6.82,6.82,0,0,1-1.76.81,6.18,6.18,0,0,1-1.81.28H274.7L301.76,404a6.45,6.45,0,0,1,2.27-3,6,6,0,0,1,3.56-1h4.87Z"/><path class="cls-4" d="M322,459.1V451a3.27,3.27,0,0,1,.46-1.69,3.75,3.75,0,0,1,1.53-1.32l16.82-8.67a22.51,22.51,0,0,1,4.77-1.66q-1.33-.33-2.52-.72a15,15,0,0,1-2.25-.95L324,427.32a3.75,3.75,0,0,1-1.53-1.32,3.27,3.27,0,0,1-.46-1.69v-8.15l36.69,19.13v4.63Z"/><path class="cls-64" d="M610.62,606.19c-.19.36-12.23,9.23-12.23,9.23s2.66,19,13.45,26.53c11.88,8.26,28.64-6.8,28.64-6.8s13.35,3.17,20.44-24.61c1.63-6.37-7.77-6.91-19.11-5.73C627.19,606.32,610.62,606.19,610.62,606.19Z"/><path class="cls-65" d="M588.11,671.1a51,51,0,0,1,15.44-7.19c2.08-.56,13.28,2.69,20.2,2.53,9.5-.21,19.17-4.54,27-2.59s14.14,4.48,17.82,7.09c11,7.83,17.47,22.42,21.41,36.88a50.37,50.37,0,0,1-16.84,11.06l-1.74,70.28-41.55,21.26L582.43,786.6l1.7-68.67s-15.07-7-16.17-9.57S574.82,680.23,588.11,671.1Z"/><path class="cls-66" d="M568.66,708.05s-20.18,56,25.84,79c9.56-1.27,5.88-17.14,5.88-17.14s-20-4.43-14-51.11C580.86,714.21,568.66,708.05,568.66,708.05Z"/><path class="cls-67" d="M689,708.05s13.89,58.42-25.85,79c-9.55-1.27-5.88-17.14-5.88-17.14s16.12-7.94,14-51.11C676.82,714.21,689,708.05,689,708.05Z"/><rect class="cls-68" x="581.88" y="729.4" width="91.13" height="61.54" rx="4.05" ry="4.05"/><path class="cls-69" d="M713,809.18c-10.43-2.39-34.54-1.1-34.54-1.1l-1,2.65-1.62,13.2s22.95,4.14,34.27,4.13a10.59,10.59,0,0,0,3.17-.48,11.56,11.56,0,0,0,1-1C719.09,821.36,717.7,813.66,713,809.18Z"/><path class="cls-7" d="M714,809.45c-.33-.1-.67-.18-1-.27,4.72,4.48,6.11,12.18,1.3,17.42a11.56,11.56,0,0,1-1,1C721.77,824.94,722.78,811.91,714,809.45Z"/><path class="cls-70" d="M671.52,807.33l4.08.18a7.84,7.84,0,0,1,5.73,3,9.67,9.67,0,0,1,2.11,6.62,7.68,7.68,0,0,1-2.21,5,6.22,6.22,0,0,1-4.78,1.81l-6.24-.45Z"/><path class="cls-71" d="M534.28,807.92c10.48-2.08,34.54,0,34.54,0l.92,2.68L571,823.79s-23,3.44-34.36,3.08a10.82,10.82,0,0,1-3.16-.57,13.38,13.38,0,0,1-1-1C527.87,819.9,529.44,812.24,534.28,807.92Z"/><path class="cls-7" d="M533.24,808.15c.33-.09.67-.16,1-.23-4.84,4.32-6.41,12-1.75,17.37a13.38,13.38,0,0,0,1,1C525.09,823.4,524.41,810.34,533.24,808.15Z"/><path class="cls-72" d="M575.77,807.34l-4.09,0a7.78,7.78,0,0,0-5.8,2.78,9.63,9.63,0,0,0-2.27,6.55,7.62,7.62,0,0,0,2.08,5.1,6.17,6.17,0,0,0,4.73,2l6.25-.25Z"/><path class="cls-73" d="M715.89,767.81c-4.73-10.88-16.29-12.65-26.14-7.56-.17.23-62.52,32.18-117.51,46.19a59.17,59.17,0,0,1,2.56,15.69c0,1.18,0,2.34,0,3.48C616.91,823.45,662.67,809.38,702,797,714.19,793.09,721.13,779.88,715.89,767.81Z"/><path class="cls-74" d="M671.82,823a36.2,36.2,0,0,1,3.55-17c.07-.24.16-.47.23-.71-3.14-1-7.19-2.29-12.52-4.1-39.05-13.36-68.84-26.85-97.27-42.38-11-6-23.6-2-27.13,11.07-3.16,11.67,3.77,21.63,14.29,25.13,31.47,10.47,15.09,7.56,25.36,10.87,27.61,8.54,61.95,16.31,93.55,18.43C671.86,823.84,671.83,823.4,671.82,823Z"/><path class="cls-75" d="M603.55,663.91s4.2,18.2,24.59,17.82c20.76-.37,22.62-17.88,22.62-17.88L637.19,661l-1.13-15.11-20.41,1.51-.37,14.36Z"/><path class="cls-76" d="M618.52,603s-23.38,45.3,4.35,56.29c19.57,7.75,31.83-30.08,28.18-40.33-5.66-15.84-9.39-14-9.39-14Z"/><path class="cls-77" d="M656.67,598.89c11.55,3.18,1.68,28.23-15.71,22.31s-24.23-5.84-26.94-1.07-3.29,21.74-9.17,13.36c-6.45-9.19-10-27.64-2.14-33.59,7.07-5.31,8.72-13.55,17.19-13.26,11.25.37,19.94-4.61,25-1C650.75,589.75,648.17,596.56,656.67,598.89Z"/><path class="cls-78" d="M613,624s-5-5.37-5.78,1.1,1.76,14.8,4.77,10.23S613,624,613,624Z"/><path class="cls-7" d="M632.82,746.06c.48,3.27-1.27,6.23-4.53,6.72a6,6,0,0,1-6.79-5c-.48-3.27,1-6.51,4.28-7A6.44,6.44,0,0,1,632.82,746.06Z"/></svg>