<svg id="Layer_1" data-name="Layer 1" xmlns="http://www.w3.org/2000/svg" viewBox="0 0 305.87 217.58"><defs><style>.cls-1{fill:#b4a95a;}.cls-1,.cls-2,.cls-3,.cls-4,.cls-5{fill-rule:evenodd;}.cls-2{fill:#fff;}.cls-3{fill:#421400;}.cls-4{fill:#ffeec6;}.cls-5{fill:#eb7b29;}</style></defs><title>simple-logo</title><path class="cls-1" d="M156,43C216.84,69,257.47,121.45,246.76,160.25S178,209.48,117.21,183.55,15.76,105.14,26.48,66.35,95.2,17.12,156,43Z"/><path class="cls-2" d="M5,88.28,255.72.39c4-1.42,8.66,1.19,10.28,5.8l39.31,112.15c1.62,4.61-.37,9.54-4.41,11L50.16,217.19c-4,1.42-8.67-1.19-10.28-5.8L.56,99.23C-1,94.62.93,89.7,5,88.28Z"/><path class="cls-3" d="M20.22,90.39l224.9-78.83c3.63-1.27,7.78,1.07,9.23,5.2l35.26,100.6c1.45,4.13-.33,8.55-3.95,9.83L60.75,206c-3.62,1.27-7.77-1.07-9.22-5.21L16.26,100.22c-1.44-4.14.34-8.56,4-9.83Z"/><path class="cls-4" d="M29.81,95.25,240.66,21.34a6.78,6.78,0,0,1,8.48,4.4l30.8,87.86a6.78,6.78,0,0,1-3.88,8.73L65.21,196.24a6.77,6.77,0,0,1-8.47-4.4L25.94,104a6.77,6.77,0,0,1,3.87-8.73Z"/><path class="cls-5" d="M42.07,106,238.32,37.24a5.85,5.85,0,0,1,7.58,3.19l24.45,69.77c1,2.86-.76,6.12-3.92,7.22L70.18,186.21A5.85,5.85,0,0,1,62.6,183L38.15,113.26A5.85,5.85,0,0,1,42.07,106Z"/><path class="cls-3" d="M73.21,126l12.36-4.33a1,1,0,0,1,1.25.6L91,134.13,102.87,130a1,1,0,0,1,1.25.6l4.33,12.36a1,1,0,0,1-.6,1.25L96,148.34l4.16,11.89a1,1,0,0,1-.6,1.24l-12.36,4.34a1,1,0,0,1-1.25-.6l-4.16-11.89-11.89,4.17a1,1,0,0,1-1.24-.6l-4.34-12.36a1,1,0,0,1,.6-1.25l11.89-4.16-4.17-11.89a1,1,0,0,1,.6-1.25Z"/><path class="cls-4" d="M194,102.45l21-7.35a1.68,1.68,0,0,1,2.12,1l7.34,21a1.65,1.65,0,0,1-1,2.11l-21,7.35a1.67,1.67,0,0,1-2.12-1l-7.35-21a1.66,1.66,0,0,1,1-2.11Z"/><path class="cls-4" d="M223.11,92.24l21-7.34a1.66,1.66,0,0,1,2.11,1l7.35,21a1.67,1.67,0,0,1-1,2.12l-21,7.35a1.66,1.66,0,0,1-2.11-1l-7.35-21a1.68,1.68,0,0,1,1-2.12Z"/><path class="cls-3" d="M205.38,101.34a10,10,0,1,1-6.06,12.77,10,10,0,0,1,6.06-12.77Z"/><path class="cls-3" d="M234.49,91.14a10,10,0,1,1-6.06,12.77,10,10,0,0,1,6.06-12.77Z"/><path class="cls-4" d="M121.63,129l58.45-20.49a1.52,1.52,0,0,1,1.94.93l6.72,19.19a1.52,1.52,0,0,1-.93,1.94L129.36,151a1.54,1.54,0,0,1-1.94-.93l-6.72-19.2a1.51,1.51,0,0,1,.93-1.93Z"/><path class="cls-3" d="M132.61,133.9l13.21-4.63c1.44-.5,3.12.52,3.74,2.28h0c.61,1.76-.06,3.61-1.5,4.12l-13.21,4.63c-1.44.5-3.12-.52-3.74-2.28h0c-.61-1.76.06-3.61,1.5-4.12Z"/><path class="cls-3" d="M161.38,123.82l13.21-4.63c1.44-.51,3.12.52,3.74,2.28h0c.61,1.76-.06,3.61-1.5,4.11l-13.21,4.63c-1.44.51-3.12-.52-3.74-2.28h0c-.61-1.76.06-3.61,1.5-4.11Z"/><path class="cls-3" d="M130.84,155.25l58.46-20.49a1.7,1.7,0,0,1,2,1.25l2.42,6.89-61.32,21.49L130,157.5a1.71,1.71,0,0,1,.82-2.25Z"/><path class="cls-3" d="M116.35,113.91l58.46-20.49c.78-.28,1.54-.19,1.68.2l3.29,9.41c.14.39-.39.93-1.18,1.2l-58.46,20.49c-.79.28-1.54.19-1.68-.2l-3.3-9.41c-.13-.38.4-.92,1.19-1.2Z"/><path class="cls-3" d="M111.08,98.86l58.45-20.49c.79-.28,1.55-.19,1.68.2l3.3,9.41c.13.39-.4.93-1.19,1.21l-58.45,20.49c-.79.27-1.55.18-1.68-.2l-3.3-9.41c-.14-.39.4-.93,1.19-1.21Z"/><path class="cls-3" d="M165.65,62.71l3.5,10c.18.53-.31,1.18-1.1,1.46L109.59,94.63c-.79.27-1.58.07-1.76-.45l-3.5-10,61.32-21.5Z"/></svg>