<svg id="Layer_1" data-name="Layer 1" xmlns="http://www.w3.org/2000/svg" xmlns:xlink="http://www.w3.org/1999/xlink" viewBox="0 0 831 815.26"><defs><style>.cls-1{fill:url(#linear-gradient);}.cls-2{opacity:0.3;}.cls-3{fill:#91b3fa;}.cls-4{fill:#bdd0fb;}.cls-5{fill:url(#linear-gradient-2);}.cls-6{fill:url(#linear-gradient-3);}.cls-7{fill:url(#linear-gradient-4);}.cls-8{fill:url(#linear-gradient-5);}.cls-31,.cls-32,.cls-34,.cls-9{fill:#fff;}.cls-9{opacity:0.52;}.cls-10{fill:url(#linear-gradient-6);}.cls-11{fill:#7d97f4;}.cls-12{fill:url(#linear-gradient-7);}.cls-13{fill:url(#linear-gradient-8);}.cls-14{fill:url(#linear-gradient-9);}.cls-15{fill:url(#linear-gradient-10);}.cls-16{fill:url(#linear-gradient-11);}.cls-17{fill:url(#linear-gradient-12);}.cls-18{fill:url(#linear-gradient-13);}.cls-19{fill:url(#linear-gradient-14);}.cls-20{fill:url(#linear-gradient-15);}.cls-21{fill:url(#linear-gradient-16);}.cls-22{fill:url(#linear-gradient-17);}.cls-23{fill:url(#linear-gradient-18);}.cls-24{fill:url(#linear-gradient-19);}.cls-25{fill:url(#linear-gradient-20);}.cls-26{fill:url(#linear-gradient-21);}.cls-27{fill:url(#linear-gradient-22);}.cls-28{fill:url(#linear-gradient-23);}.cls-29{fill:url(#linear-gradient-24);}.cls-30{fill:url(#linear-gradient-25);}.cls-31{opacity:0.76;}.cls-32,.cls-33{opacity:0.84;}.cls-35{fill:url(#linear-gradient-26);}.cls-36{fill:url(#linear-gradient-27);}.cls-37{fill:url(#linear-gradient-28);}.cls-38{fill:url(#linear-gradient-29);}.cls-39{fill:url(#linear-gradient-30);}.cls-40{fill:url(#linear-gradient-31);}.cls-41{fill:url(#linear-gradient-32);}.cls-42{fill:url(#linear-gradient-33);}.cls-43{fill:url(#linear-gradient-34);}.cls-44{fill:url(#linear-gradient-35);}.cls-45{fill:url(#linear-gradient-36);}</style><linearGradient id="linear-gradient" x1="1058.22" y1="495.37" x2="475.14" y2="-133.98" gradientTransform="translate(-186.71 302.65) rotate(10.26)" gradientUnits="userSpaceOnUse"><stop offset="0" stop-color="#dae3fe"/><stop offset="1" stop-color="#e9effd"/></linearGradient><linearGradient id="linear-gradient-2" x1="444.8" y1="96.07" x2="478.04" y2="96.07" gradientTransform="matrix(1, 0, 0, 1, 0, 0)" xlink:href="#linear-gradient"/><linearGradient id="linear-gradient-3" x1="420.82" y1="95.85" x2="502.57" y2="95.85" gradientTransform="matrix(1, 0, 0, 1, 0, 0)" xlink:href="#linear-gradient"/><linearGradient id="linear-gradient-4" x1="329.33" y1="142.3" x2="351.97" y2="142.3" gradientTransform="matrix(1, 0, 0, 1, 0, 0)" xlink:href="#linear-gradient"/><linearGradient id="linear-gradient-5" x1="312.64" y1="142.15" x2="369.04" y2="142.15" gradientTransform="matrix(1, 0, 0, 1, 0, 0)" xlink:href="#linear-gradient"/><linearGradient id="linear-gradient-6" x1="343.67" y1="659.95" x2="510" y2="160.97" gradientUnits="userSpaceOnUse"><stop offset="0" stop-color="#09005d"/><stop offset="1" stop-color="#1a0f91"/></linearGradient><linearGradient id="linear-gradient-7" x1="66.24" y1="474.32" x2="69" y2="474.32" gradientTransform="matrix(1, 0, 0, 1, 0, 0)" xlink:href="#linear-gradient"/><linearGradient id="linear-gradient-8" x1="63.92" y1="343.97" x2="304.91" y2="343.97" gradientTransform="matrix(1, 0, 0, 1, 0, 0)" xlink:href="#linear-gradient"/><linearGradient id="linear-gradient-9" x1="107.23" y1="444.51" x2="664.04" y2="444.51" gradientUnits="userSpaceOnUse"><stop offset="0" stop-color="#4f52ff"/><stop offset="1" stop-color="#4042e2"/></linearGradient><linearGradient id="linear-gradient-10" x1="384.09" y1="876.62" x2="446.77" y2="533.92" xlink:href="#linear-gradient-6"/><linearGradient id="linear-gradient-11" x1="8777.7" y1="665.98" x2="8667.7" y2="728.76" gradientTransform="matrix(-1, 0, 0, 1, 9293.2, 0)" gradientUnits="userSpaceOnUse"><stop offset="0" stop-color="#febbba"/><stop offset="1" stop-color="#ff928e"/></linearGradient><linearGradient id="linear-gradient-12" x1="-2295.84" y1="-1842.55" x2="-2304.29" y2="-1713.07" gradientTransform="translate(3403.1 1369.33) rotate(-26.18)" gradientUnits="userSpaceOnUse"><stop offset="0" stop-color="#e1473d"/><stop offset="1" stop-color="#e9605a"/></linearGradient><linearGradient id="linear-gradient-13" x1="8767.06" y1="681.63" x2="9143.43" y2="446.02" xlink:href="#linear-gradient-11"/><linearGradient id="linear-gradient-14" x1="-1584.78" y1="-2791.61" x2="-1593.23" y2="-2662.14" gradientTransform="matrix(0.79, -0.61, 0.61, 0.79, 3513.49, 1991.44)" xlink:href="#linear-gradient-12"/><linearGradient id="linear-gradient-15" x1="674.37" y1="584.26" x2="674.37" y2="755.76" gradientTransform="matrix(1, 0, 0, 1, 0, 0)" xlink:href="#linear-gradient-12"/><linearGradient id="linear-gradient-16" x1="-5452.44" y1="974.59" x2="-5425.39" y2="1042.45" gradientTransform="translate(5467.97 -2258) rotate(-19.17)" xlink:href="#linear-gradient-6"/><linearGradient id="linear-gradient-17" x1="756.28" y1="417.25" x2="717.28" y2="529.74" gradientUnits="userSpaceOnUse"><stop offset="0" stop-color="#ff928e"/><stop offset="1" stop-color="#fe7062"/></linearGradient><linearGradient id="linear-gradient-18" x1="-3103.69" y1="629.78" x2="-2994.11" y2="629.78" gradientTransform="translate(3811.86)" xlink:href="#linear-gradient-11"/><linearGradient id="linear-gradient-19" x1="-4943.43" y1="226.82" x2="-4938.08" y2="187.64" gradientTransform="translate(5577.88 -3.27) rotate(-4.11)" xlink:href="#linear-gradient-11"/><linearGradient id="linear-gradient-20" x1="-7258.33" y1="1214.31" x2="-7207.9" y2="1124.55" gradientTransform="translate(3611.42 -6200.51) rotate(-56.92)" xlink:href="#linear-gradient-11"/><linearGradient id="linear-gradient-21" x1="-7247.49" y1="1136.14" x2="-7222.27" y2="1199.4" gradientTransform="translate(3611.42 -6200.51) rotate(-56.92)" xlink:href="#linear-gradient-6"/><linearGradient id="linear-gradient-22" x1="-7247.6" y1="1220.34" x2="-7197.16" y2="1130.58" gradientTransform="translate(3611.42 -6200.51) rotate(-56.92)" xlink:href="#linear-gradient-11"/><linearGradient id="linear-gradient-23" x1="-3170.63" y1="601.39" x2="-3227.95" y2="617.1" gradientTransform="translate(3840.25 -128.78) rotate(-2.83)" xlink:href="#linear-gradient-6"/><linearGradient id="linear-gradient-24" x1="8293.61" y1="619.29" x2="8809.18" y2="575.91" gradientTransform="translate(-7739.25)" xlink:href="#linear-gradient-6"/><linearGradient id="linear-gradient-25" x1="591.02" y1="348.14" x2="778.51" y2="-59.84" gradientTransform="matrix(1, 0, 0, 1, 0, 0)" xlink:href="#linear-gradient-11"/><linearGradient id="linear-gradient-26" x1="475.47" y1="108.41" x2="831" y2="108.41" gradientTransform="matrix(1, 0, 0, 1, 0, 0)" xlink:href="#linear-gradient-11"/><linearGradient id="linear-gradient-27" x1="404.52" y1="313.19" x2="248.53" y2="532.18" xlink:href="#linear-gradient-17"/><linearGradient id="linear-gradient-28" x1="860.88" y1="-73.45" x2="370.35" y2="618.63" gradientTransform="translate(-163.28 394.96) rotate(-9.97)" xlink:href="#linear-gradient-6"/><linearGradient id="linear-gradient-29" x1="411.87" y1="297.6" x2="302.38" y2="387.59" gradientTransform="matrix(1, 0, 0, 1, 0, 0)" xlink:href="#linear-gradient-12"/><linearGradient id="linear-gradient-30" x1="481.24" y1="367.85" x2="325.25" y2="586.83" xlink:href="#linear-gradient-17"/><linearGradient id="linear-gradient-31" x1="586.67" y1="248.17" x2="537.59" y2="408.56" gradientTransform="matrix(1, 0, 0, 1, 0, 0)" xlink:href="#linear-gradient-11"/><linearGradient id="linear-gradient-32" x1="606.08" y1="252.65" x2="556.12" y2="415.93" gradientTransform="matrix(1, 0, 0, 1, 0, 0)" xlink:href="#linear-gradient-11"/><linearGradient id="linear-gradient-33" x1="293.38" y1="323.36" x2="244.65" y2="533.96" gradientTransform="matrix(1, 0, 0, 1, 0, 0)" xlink:href="#linear-gradient-11"/><linearGradient id="linear-gradient-34" x1="309.71" y1="312.64" x2="214.56" y2="385.45" gradientTransform="matrix(1, 0, 0, 1, 0, 0)" xlink:href="#linear-gradient-11"/><linearGradient id="linear-gradient-35" x1="261.02" y1="278.55" x2="349.64" y2="392.65" xlink:href="#linear-gradient-6"/><linearGradient id="linear-gradient-36" x1="297.91" y1="297.22" x2="202.76" y2="370.03" gradientTransform="matrix(1, 0, 0, 1, 0, 0)" xlink:href="#linear-gradient-11"/></defs><title>elearning</title><path class="cls-1" d="M750.24,611.3C638,781.29,415.59,822.74,255,779.71c-43.85-11.75-132.08-35.39-190-114.2C-46.37,514.16,22.41,252.4,179.31,119.38c20.2-17.13,159.25-131.24,337.52-97.08C647.36,47.31,725.76,137.8,735.25,149a365.24,365.24,0,0,1,58.17,96.33C840.62,360.27,820.37,505.07,750.24,611.3Z"/><g class="cls-2"><path class="cls-3" d="M366.68,100.44a2.43,2.43,0,0,1-2.2-2.38c0-2.74.06-5.52.26-8.26a2.42,2.42,0,0,1,2.6-2.24h0a2.42,2.42,0,0,1,2.19,2.59c-.19,2.61-.27,5.25-.24,7.85a2.42,2.42,0,0,1-2.39,2.45Zm2.11-21a1.45,1.45,0,0,1-.29,0,2.43,2.43,0,0,1-1.86-2.87c.57-2.69,1.27-5.38,2.07-8a2.42,2.42,0,1,1,4.63,1.41c-.75,2.49-1.41,5-2,7.6A2.42,2.42,0,0,1,368.79,79.43Zm6.68-20a2.32,2.32,0,0,1-.8-.21A2.42,2.42,0,0,1,373.5,56c1.15-2.49,2.43-5,3.8-7.34a2.42,2.42,0,0,1,4.2,2.41c-1.3,2.26-2.51,4.61-3.61,7A2.4,2.4,0,0,1,375.47,59.41Zm11-18a2.45,2.45,0,0,1-1.26-.5,2.42,2.42,0,0,1-.42-3.4c1.68-2.17,3.48-4.29,5.34-6.31a2.42,2.42,0,0,1,3.56,3.29c-1.77,1.92-3.48,3.93-5.08,6A2.42,2.42,0,0,1,386.46,41.39ZM401.2,26.26A2.42,2.42,0,0,1,399.89,22c2.11-1.74,4.34-3.41,6.6-5a2.42,2.42,0,0,1,2.75,4c-2.16,1.48-4.27,3.07-6.28,4.72A2.4,2.4,0,0,1,401.2,26.26Zm17.71-11.48a2.42,2.42,0,0,1-.86-4.58c2.45-1.23,5-2.37,7.54-3.38a2.42,2.42,0,1,1,1.79,4.5c-2.42,1-4.83,2-7.16,3.21A2.42,2.42,0,0,1,418.91,14.78Zm89,2.47a2.34,2.34,0,0,1-1-.31c-2.26-1.29-4.61-2.5-7-3.6a2.42,2.42,0,0,1,2-4.4c2.49,1.15,5,2.43,7.35,3.79a2.43,2.43,0,0,1-1.43,4.52ZM438.72,7.51a2.42,2.42,0,0,1-.35-4.77c2.66-.65,5.39-1.19,8.1-1.61a2.42,2.42,0,0,1,.74,4.79c-2.57.4-5.16.91-7.69,1.53A2.73,2.73,0,0,1,438.72,7.51Zm49.75,1.4a2.63,2.63,0,0,1-.47-.1c-2.5-.75-5.06-1.4-7.61-1.95a2.42,2.42,0,0,1,1-4.74c2.69.57,5.38,1.26,8,2.05a2.43,2.43,0,0,1-.93,4.74ZM459.65,4.85A2.43,2.43,0,0,1,459.84,0c2.74,0,5.52,0,8.26.24h0a2.42,2.42,0,0,1-.39,4.83c-2.61-.18-5.25-.26-7.85-.22Z"/><path class="cls-3" d="M521.82,27a2.41,2.41,0,0,1-1.34-.56c-1-.8-1.94-1.6-2.93-2.37a2.42,2.42,0,1,1,3-3.83c1,.81,2.08,1.65,3.09,2.5A2.42,2.42,0,0,1,521.82,27Z"/></g><g class="cls-2"><path class="cls-3" d="M555.24,92.89a2.44,2.44,0,0,1-2.2-2.26c-.08-1.24-.19-2.51-.32-3.76a2.42,2.42,0,0,1,4.82-.52c.14,1.32.25,2.65.34,4a2.45,2.45,0,0,1-2.64,2.58Z"/><path class="cls-3" d="M452.43,193.2c-1.11-.11-2.23-.23-3.34-.37a2.42,2.42,0,0,1,.61-4.81c2.57.33,5.15.55,7.7.66a2.42,2.42,0,0,1-.21,4.84C455.61,193.45,454,193.34,452.43,193.2Zm-15.89-2.85a2,2,0,0,1-.41-.07c-2.61-.7-5.22-1.52-7.76-2.43a2.42,2.42,0,0,1,1.64-4.56c2.41.87,4.89,1.64,7.38,2.31a2.42,2.42,0,0,1-.85,4.75Zm33.4,2.84a2.42,2.42,0,0,1,0-4.82c2.55-.24,5.12-.59,7.65-1.05a2.42,2.42,0,0,1,.86,4.77c-2.67.48-5.38.85-8.06,1.1A1.69,1.69,0,0,1,469.94,193.19ZM417.18,182.8a2.46,2.46,0,0,1-.9-.27c-2.39-1.26-4.76-2.63-7-4.08a2.43,2.43,0,0,1,2.61-4.09c2.16,1.38,4.41,2.68,6.68,3.88a2.42,2.42,0,0,1,1,3.27A2.45,2.45,0,0,1,417.18,182.8ZM490.27,189a2.43,2.43,0,0,1-.53-4.72c2.43-.79,4.87-1.7,7.23-2.7a2.42,2.42,0,1,1,1.89,4.46c-2.49,1-5.06,2-7.62,2.85A2.48,2.48,0,0,1,490.27,189Zm18.91-8.58a2.42,2.42,0,0,1-1-4.49c2.2-1.31,4.38-2.73,6.47-4.22a2.42,2.42,0,0,1,2.81,3.95c-2.2,1.56-4.49,3.05-6.81,4.43A2.4,2.4,0,0,1,509.18,180.4Zm16.6-12.49a2.43,2.43,0,0,1-1.44-4.18c1.87-1.76,3.69-3.62,5.4-5.52a2.43,2.43,0,1,1,3.61,3.24c-1.81,2-3.72,4-5.69,5.81A2.4,2.4,0,0,1,525.78,167.91Zm13.47-15.82a2.42,2.42,0,0,1-1.78-3.77c1.44-2.12,2.8-4.33,4.06-6.57a2.42,2.42,0,1,1,4.23,2.37c-1.32,2.35-2.76,4.68-4.28,6.92A2.41,2.41,0,0,1,539.25,152.09Zm9.68-18.39a2.2,2.2,0,0,1-.66-.16,2.43,2.43,0,0,1-1.38-3.14c.94-2.38,1.78-4.84,2.51-7.3a2.43,2.43,0,0,1,4.65,1.38c-.77,2.59-1.66,5.18-2.64,7.69A2.42,2.42,0,0,1,548.93,133.7Zm5.39-20.06h-.14a2.43,2.43,0,0,1-2-2.77c.29-1.87.53-3.76.7-5.64.06-.68.12-1.36.17-2a2.41,2.41,0,0,1,2.59-2.24,2.39,2.39,0,0,1,2.24,2.58c-.05.72-.11,1.43-.17,2.15-.19,2-.44,4-.74,5.93A2.42,2.42,0,0,1,554.32,113.64Z"/><path class="cls-3" d="M399.92,171.12a2.38,2.38,0,0,1-1.35-.57c-1-.85-2-1.73-3-2.63a2.42,2.42,0,0,1,3.29-3.56c.93.85,1.88,1.7,2.83,2.5a2.43,2.43,0,0,1-1.8,4.26Z"/></g><path class="cls-4" d="M405.77,143.43a1.14,1.14,0,0,0,1.24.47l13.32-3.54a60.17,60.17,0,0,0,16.2,10.77l1.9,13.64a1.15,1.15,0,0,0,.91,1l16.22,3.18a1.14,1.14,0,0,0,1.2-.55l6.91-11.91a60,60,0,0,0,19.07-3.86l11,8.31a1.14,1.14,0,0,0,1.32,0l13.72-9.23a1.12,1.12,0,0,0,.46-1.23l-3.54-13.32A59.85,59.85,0,0,0,516.47,121l13.65-1.91a1.1,1.1,0,0,0,1-.9l3.18-16.23a1.11,1.11,0,0,0-.54-1.19l-11.92-6.92a60,60,0,0,0-3.85-19.07l8.31-11a1.13,1.13,0,0,0,0-1.31l-9.22-13.72a1.13,1.13,0,0,0-1.23-.47l-13.32,3.54A60.37,60.37,0,0,0,486.3,41l-1.9-13.64a1.15,1.15,0,0,0-.9-1l-16.23-3.18a1.15,1.15,0,0,0-1.2.55l-6.91,11.91a60.23,60.23,0,0,0-19.07,3.86l-11-8.31a1.13,1.13,0,0,0-1.31,0l-13.73,9.23a1.14,1.14,0,0,0-.46,1.23L417.13,55a60.24,60.24,0,0,0-10.77,16.2l-13.64,1.91a1.13,1.13,0,0,0-1,.9l-3.18,16.23a1.14,1.14,0,0,0,.54,1.19L401,98.33a60.22,60.22,0,0,0,3.85,19.07l-8.3,11a1.11,1.11,0,0,0,0,1.31Z"/><path class="cls-5" d="M459.87,112.62A16.62,16.62,0,1,1,472.52,83.7,16.46,16.46,0,0,1,478,95.18a16.63,16.63,0,0,1-15.7,17.49A18,18,0,0,1,459.87,112.62Zm2.75-29.24a13.19,13.19,0,0,0-1.89,0,12.75,12.75,0,1,0,9.2,3.25A12.63,12.63,0,0,0,462.62,83.38Z"/><path class="cls-6" d="M458,136.56c-1.39-.13-2.78-.33-4.16-.6h0l-1.3-.28a40.87,40.87,0,0,1-6.25-2l-.08,0-.23-.1-.45-.19a1,1,0,1,1,.76-1.78,38.94,38.94,0,0,0,53.61-28.27c.26-1.32.45-2.64.58-4a38.93,38.93,0,0,0-77-11c-.26,1.3-.44,2.61-.57,3.92A38.84,38.84,0,0,0,425.06,109a1,1,0,0,1,.05.42,1,1,0,0,1-.64.82,1,1,0,0,1-1.24-.58A40.88,40.88,0,1,1,502.4,99.55c-.13,1.39-.33,2.78-.6,4.16A40.89,40.89,0,0,1,458,136.56Z"/><g class="cls-2"><path class="cls-3" d="M278.43,156.38a1.49,1.49,0,0,1-1.33-1.2c-.24-1.25-.45-2.52-.62-3.78a1.49,1.49,0,0,1,3-.4c.17,1.2.36,2.42.6,3.61a1.49,1.49,0,0,1-1.19,1.75A1.19,1.19,0,0,1,278.43,156.38Z"/><path class="cls-3" d="M277.27,144.93a1.51,1.51,0,0,1-1.36-1.48,62.85,62.85,0,0,1,.28-6.58c0-.46.09-.92.14-1.38a1.56,1.56,0,0,1,1.66-1.32,1.49,1.49,0,0,1,1.31,1.66c-.05.44-.09.88-.13,1.32a62.61,62.61,0,0,0-.27,6.27,1.48,1.48,0,0,1-1.48,1.51ZM279,129.49l-.21,0a1.5,1.5,0,0,1-1.11-1.8A66.39,66.39,0,0,1,280,120a1.5,1.5,0,1,1,2.81,1,61.45,61.45,0,0,0-2.23,7.26A1.5,1.5,0,0,1,279,129.49Zm5.46-14.56a1.43,1.43,0,0,1-.56-.16,1.5,1.5,0,0,1-.63-2,63.19,63.19,0,0,1,4.14-6.82,1.5,1.5,0,0,1,2.46,1.71,61.51,61.51,0,0,0-3.95,6.5A1.49,1.49,0,0,1,284.49,114.93Zm8.87-12.76a1.46,1.46,0,0,1-.86-.38,1.49,1.49,0,0,1-.12-2.11,63.87,63.87,0,0,1,5.68-5.6,1.5,1.5,0,0,1,2,2.26,62,62,0,0,0-5.41,5.34A1.52,1.52,0,0,1,293.36,102.17ZM305.07,92a1.5,1.5,0,0,1-.7-2.73,65,65,0,0,1,6.86-4,1.49,1.49,0,1,1,1.36,2.66,61.39,61.39,0,0,0-6.54,3.87A1.52,1.52,0,0,1,305.07,92Zm13.84-7.06a1.5,1.5,0,0,1-.37-2.9,66,66,0,0,1,7.63-2.25,1.5,1.5,0,1,1,.67,2.92,61.34,61.34,0,0,0-7.28,2.14A1.49,1.49,0,0,1,318.91,84.9Zm15.14-3.46a1.5,1.5,0,0,1,0-3,64,64,0,0,1,8-.31,1.5,1.5,0,0,1-.07,3,60,60,0,0,0-7.59.3A1.4,1.4,0,0,1,334.05,81.44Zm23.16,2-.26-.05a63.44,63.44,0,0,0-6.46-1.41l-1-.15a1.5,1.5,0,0,1-1.27-1.7,1.48,1.48,0,0,1,1.7-1.26l1,.16a67.22,67.22,0,0,1,6.76,1.47,1.5,1.5,0,0,1-.53,2.94Z"/></g><g class="cls-2"><path class="cls-3" d="M335.46,207.24a1.5,1.5,0,0,1,.26-3,62.09,62.09,0,0,0,7.47.15,1.5,1.5,0,1,1,.12,3,64,64,0,0,1-7.83-.15Zm-7.58-1.07-.16,0a65.58,65.58,0,0,1-7.58-2,1.5,1.5,0,1,1,.94-2.84,62.06,62.06,0,0,0,7.23,1.92,1.5,1.5,0,0,1-.43,3Zm22.85.43a1.5,1.5,0,0,1-.11-3,62.09,62.09,0,0,0,7.29-1.67,1.5,1.5,0,0,1,.84,2.88,65.58,65.58,0,0,1-7.64,1.75A1.63,1.63,0,0,1,350.73,206.6Zm-37.37-5.25a1.48,1.48,0,0,1-.5-.13,63.7,63.7,0,0,1-6.87-3.79,1.5,1.5,0,0,1,1.6-2.53,61.38,61.38,0,0,0,6.55,3.61,1.5,1.5,0,0,1-.78,2.84Zm52,.94a1.49,1.49,0,0,1-.45-2.86,62.26,62.26,0,0,0,6.67-3.38,1.5,1.5,0,0,1,1.51,2.59,65.5,65.5,0,0,1-7,3.53A1.45,1.45,0,0,1,365.39,202.29Zm13.2-7.7a1.5,1.5,0,0,1-.77-2.68A63.07,63.07,0,0,0,383.5,187a1.5,1.5,0,1,1,2.08,2.15,65.82,65.82,0,0,1-5.95,5.1A1.48,1.48,0,0,1,378.59,194.59Zm11-10.64a1.56,1.56,0,0,1-.8-.33,1.49,1.49,0,0,1-.23-2.1,61.26,61.26,0,0,0,4.34-6.09,1.5,1.5,0,1,1,2.54,1.58,63.3,63.3,0,0,1-4.55,6.39A1.51,1.51,0,0,1,389.57,184Z"/><path class="cls-3" d="M300.39,193.13a1.56,1.56,0,0,1-.81-.33c-1-.82-2-1.66-2.89-2.52a1.5,1.5,0,0,1,2-2.2c.88.82,1.81,1.63,2.75,2.4a1.5,1.5,0,0,1-1.09,2.65Z"/></g><path class="cls-4" d="M303.42,174a.76.76,0,0,0,.82.31l8.92-2.37A39.9,39.9,0,0,0,324,179.14l1.27,9.13a.77.77,0,0,0,.61.64L336.73,191a.78.78,0,0,0,.81-.37l4.62-8a40.26,40.26,0,0,0,12.76-2.58l7.36,5.56a.77.77,0,0,0,.88,0l9.18-6.17a.74.74,0,0,0,.31-.82l-2.36-8.92a40.1,40.1,0,0,0,7.2-10.84l9.13-1.27a.77.77,0,0,0,.64-.61l2.13-10.86a.77.77,0,0,0-.36-.8l-8-4.62A40,40,0,0,0,378.47,128l5.56-7.36a.75.75,0,0,0,0-.88l-6.18-9.19a.77.77,0,0,0-.82-.31l-8.91,2.37a40.31,40.31,0,0,0-10.85-7.2L356,96.33a.75.75,0,0,0-.6-.64l-10.86-2.13a.75.75,0,0,0-.8.36l-4.63,8a40,40,0,0,0-12.76,2.58L319,98.92a.75.75,0,0,0-.88,0L309,105.06a.76.76,0,0,0-.31.83L311,114.8a40,40,0,0,0-7.21,10.85l-9.13,1.27a.75.75,0,0,0-.64.6l-2.13,10.86a.76.76,0,0,0,.37.8l8,4.63a40,40,0,0,0,2.58,12.76l-5.56,7.36a.75.75,0,0,0,0,.88Z"/><path class="cls-7" d="M339.58,153.57a11.37,11.37,0,1,1,1.68,0A11.73,11.73,0,0,1,339.58,153.57ZM341.43,134a10.07,10.07,0,0,0-1.23,0,8.35,8.35,0,0,0-7.87,8.76,8.34,8.34,0,0,0,8.77,7.87h0a8.33,8.33,0,0,0,7.87-8.76A8.36,8.36,0,0,0,341.43,134Z"/><path class="cls-8" d="M338.25,170.23c-.94-.09-1.89-.23-2.84-.41a28.6,28.6,0,0,1-5.5-1.67l-.23-.1a1.52,1.52,0,0,1-.79-2,1.51,1.51,0,0,1,2-.78,24.58,24.58,0,0,0,5.13,1.58h0l.29.06a25,25,0,0,0,18.42-3.75l.05,0,.14-.09A25.09,25.09,0,0,0,365.57,147c.16-.86.29-1.71.37-2.57a25.21,25.21,0,0,0-49.84-7.13c-.16.84-.28,1.69-.36,2.54a25,25,0,0,0,1.38,10.85,1.57,1.57,0,0,1,.08.64,1.5,1.5,0,0,1-2.9.37,28.15,28.15,0,0,1-1.54-12.14,27.14,27.14,0,0,1,.4-2.83,28.2,28.2,0,1,1,25.09,33.5Z"/><path class="cls-4" d="M9.4,125.05c-6.93,50.16-37.75,342.05,177.32,379,0,0,60.07-194.36-171.72-382.7C13,119.71,9.85,121.77,9.4,125.05Z"/><path class="cls-9" d="M29.33,165s.87,5.58,2.7,15.32c.92,4.86,2.07,10.76,3.49,17.51s3.07,14.36,5,22.62c.94,4.14,2,8.43,3.08,12.88s2.3,9,3.49,13.73c2.5,9.4,5.17,19.3,8.21,29.46s6.3,20.63,9.8,31.2c1.78,5.27,3.65,10.56,5.51,15.88s3.85,10.61,5.92,15.87S80.6,350,82.82,355.14l3.25,7.77c1.1,2.58,2.27,5.11,3.4,7.66s2.24,5.07,3.4,7.57,2.38,4.95,3.56,7.41c2.29,4.94,4.82,9.69,7.24,14.39,4.89,9.39,10,18.24,15.09,26.48,1.22,2.09,2.57,4.07,3.86,6l3.84,5.79c1.22,1.92,2.55,3.72,3.84,5.49s2.56,3.52,3.81,5.22l1.84,2.53c.62.83,1.28,1.61,1.91,2.4q1.89,2.36,3.71,4.59c1.21,1.49,2.35,3,3.54,4.35l3.55,3.93c1.15,1.26,2.25,2.49,3.32,3.68l1.58,1.75,1.61,1.58c2.11,2.07,4.05,4,5.81,5.68a65,65,0,0,0,4.85,4.38L169.5,487l3.06,2.61.13.11a2.3,2.3,0,0,1-3,3.5h0l-3.12-2.7-3.75-3.24c-1.47-1.28-3.2-2.71-4.93-4.52L152,476.85l-1.64-1.64-1.59-1.79-3.36-3.78-3.58-4c-1.21-1.4-2.36-2.92-3.58-4.44l-3.74-4.7c-.63-.81-1.29-1.6-1.92-2.44l-1.85-2.58-3.81-5.33c-1.31-1.8-2.64-3.64-3.86-5.59l-3.84-5.89c-1.3-2-2.64-4-3.86-6.12-5.09-8.37-10.18-17.35-15-26.84-2.4-4.76-4.91-9.56-7.19-14.56l-3.52-7.48c-1.15-2.53-2.24-5.09-3.38-7.65s-2.27-5.12-3.35-7.72l-3.21-7.84c-2.2-5.21-4.15-10.54-6.21-15.84s-3.89-10.67-5.83-16-3.67-10.67-5.41-16c-3.44-10.63-6.71-21.13-9.61-31.37s-5.58-20.16-8-29.6c-1.17-4.73-2.3-9.34-3.4-13.79s-2.08-8.77-3-12.93c-7.5-33.2-10.82-55.68-10.82-55.68a1,1,0,0,1,.82-1.11A1,1,0,0,1,29.33,165Z"/><path class="cls-3" d="M216.08,506.25S14.94,382.62,59.24,49a6.58,6.58,0,0,1,11.42-3.53C105.64,84.23,224.67,236.68,216.08,506.25Z"/><path class="cls-9" d="M92.69,122.1s.41,1.32,1.19,3.8,1.93,6.11,3.4,10.73c2.91,9.25,7.07,22.46,12.07,38.32s10.74,34.38,16.85,54.24c3,9.95,6.11,20.23,9.26,30.67l4.71,15.79q2.33,8,4.65,15.93L154,323.35c3,10.49,6,20.81,8.83,30.8s5.48,19.69,8,28.87,4.88,17.88,7.07,25.9,4.06,15.41,5.79,21.94c.85,3.26,1.65,6.32,2.38,9.15s1.38,5.44,2,7.79l3.69,14.79a.74.74,0,0,1-1.44.38h0l-4.12-14.67c-.64-2.34-1.36-4.92-2.14-7.74s-1.67-5.85-2.59-9.09c-1.86-6.49-3.95-13.82-6.24-21.8s-4.79-16.64-7.43-25.79-5.5-18.77-8.42-28.74l-9-30.74c-3.09-10.46-6.22-21.09-9.36-31.71-6.27-21.26-12.55-42.51-18.42-62.44s-11.23-38.57-15.87-54.53-8.57-29.24-11.29-38.55c-1.37-4.65-2.45-8.3-3.19-10.79l-1.15-3.82a.81.81,0,0,1,.54-1A.79.79,0,0,1,92.69,122.1Z"/><path class="cls-10" d="M773.14,678.05a13.06,13.06,0,0,1-13,13H55.88a13.06,13.06,0,0,1-13-13L37,273.34c0-7.16,8.43-21.13,23.89-20.08l688.26-17.81A32.81,32.81,0,0,1,782.81,269Z"/><path class="cls-11" d="M760.28,665.57A12.36,12.36,0,0,1,748,677.89H72.86a12.36,12.36,0,0,1-12.32-12.32L55,298.17c.65-22.11,20-30.06,31.78-29.59l659.66-17.7a23,23,0,0,1,23.64,23.61Z"/><path class="cls-12" d="M67.84,490.38a1.17,1.17,0,0,1-1.17-1.14l-.43-29.8a1.16,1.16,0,1,1,2.32,0L69,489.2a1.17,1.17,0,0,1-1.15,1.18Z"/><path class="cls-13" d="M66.76,417.37a1.17,1.17,0,0,1-1.16-1.15L63.92,302.11c0-7.67,2.4-13.8,7-18.24,8.41-8.06,21.56-7.66,22.12-7.64l210.64-5.65a1.14,1.14,0,0,1,1.19,1.13,1.17,1.17,0,0,1-1.13,1.2L93.07,278.56c-.6,0-12.8-.4-20.51,7-4.15,4-6.28,9.55-6.31,16.54l1.68,114.1a1.17,1.17,0,0,1-1.15,1.18Z"/><path class="cls-14" d="M108.38,594c.6-25.75.38-253.72-1.1-273.41s29.19-23.38,76.26-25.6,444.3-11,454.53-11.81c23-1.87,27.75,32.49,25.45,107.09-1.73,56-4.59,148.37-5.91,190.82a23.43,23.43,0,0,1-23.38,22.71c-95.58.26-461.94,1.31-486.33,2C119.83,606.64,108.14,604.17,108.38,594Z"/><path class="cls-15" d="M812.49,724.65H17.78A17.83,17.83,0,0,1,0,706.87H0a17.84,17.84,0,0,1,17.78-17.78H812.49a17.84,17.84,0,0,1,17.78,17.78h0A17.83,17.83,0,0,1,812.49,724.65Z"/><circle class="cls-4" cx="357.8" cy="627.3" r="11.17"/><circle class="cls-4" cx="391.77" cy="628.34" r="11.17"/><circle class="cls-4" cx="426.15" cy="628.34" r="11.17"/><path class="cls-16" d="M532.22,768.33c.13-.05,69.91-122.23,79.33-133.73a7.32,7.32,0,0,1,6.53-2.63l19.47,2.32,22.88,49.5-38.11-22.2c3.77,26.09-45.2,64.85-62,79a3.86,3.86,0,0,0-.3,5.62l6.7,7a77,77,0,0,1-38,21.63Z"/><path class="cls-17" d="M562.85,749.43s4.28,1.39,5.73,5.2a4.35,4.35,0,0,1-1.64,5c-7.05,5.05-30.29,21.34-41,24.54a1.22,1.22,0,0,1-1.52-1.43c.55-2.49,2.33-7.47,8.07-14.75l-.52,1a1.49,1.49,0,0,0,2.07,2C541.2,767,555.81,758.1,562.85,749.43Z"/><path class="cls-18" d="M559.4,798.32c.12-.07,10.58-25.29,10.7-25.37,9.6-58.44,33-108.48,39.92-121.65a7.31,7.31,0,0,1,5.86-3.89l19.54-1.67,32.43,43.84-41.82-14c9,24.78-31.14,72.65-44.72,89.9a3.85,3.85,0,0,0,.84,5.56l8,5.52a76.93,76.93,0,0,1-32.87,28.88Z"/><path class="cls-19" d="M585.57,773.61s4.47.49,6.66,3.93a4.36,4.36,0,0,1-.59,5.25c-5.88,6.37-25.34,27-35.19,32.33a1.21,1.21,0,0,1-1.78-1.09c0-2.55.77-7.79,4.91-16.08l-.29,1.12a1.49,1.49,0,0,0,2.42,1.51C567.91,795.17,580.43,783.53,585.57,773.61Z"/><path class="cls-20" d="M726.9,636.51S744.57,662.8,746,674.79s-4.88,16.15-23.39,17.68c-55.06,4.55-82.2-12-82.2-12-3.77-24-6.45-30.13-37.9-43.19,0,0,39.78,3.16,47.79,0S726.9,636.51,726.9,636.51Z"/><path class="cls-21" d="M656.4,489.19s12.31-14.56,25.4,3.31c2.38,3.24,11.48.57,14.82,7.34a8.6,8.6,0,0,0,9.28,4.78c9.55-1.76,25.17-1.91,32.87,13.06,5.89,11.42,1.34,18.11-4.54,21.92A9.65,9.65,0,0,0,731,552.52c2.51,4.26,3,10-3.49,17-14.5,15.54-43.2-9.86-43.2-9.86l-22.78-53.84Z"/><path class="cls-22" d="M679.09,633s-20.59-19.61-30.72-32.59a27.55,27.55,0,0,1-4.67-24.79c4.63-15.59,12.85-31.73,13.6-34.24,1.15-3.85,24.23-3.69,24.23-3.69S727,567.19,744.8,617.13l-20,6.24s-11.86-19.9-23.58-32.55c0,0,20.28,26.79,21,37.75Z"/><path class="cls-23" d="M639.86,640.76l15.47-16.83,17.87,4.81s20.82,3.23,32.74,0l11.92-3.22,26.94-8.39,4.23,12a7.19,7.19,0,0,1-2.63,8.27,47.83,47.83,0,0,1-6.8,4.23c-3.55,1.56-81.72.5-81.72.5Z"/><path class="cls-24" d="M665.67,510l15.51,28.85c-1,6.3-16.88,6.48-19.33,2.72a3.91,3.91,0,0,1-.49-1.28L652.08,521c-.4-1.88,4.76-8.21,6.45-9.12l6.17-3.28C667.07,507.32,657.16,507.22,665.67,510Z"/><path class="cls-25" d="M634.27,503.19s-1.75,9.75,5.91,22.14,15.29,11.83,19.17,7.41,8.51-11.78,6.4-24.13S636.92,490.76,634.27,503.19Z"/><path class="cls-26" d="M656.48,510s-12.41-16.29-21.93-2.09l.16,4.9s-12.38-.57-11-12,11.45-19.21,25.47-15.31,22.21,8.34,23.79,18.07-6.36,8.14-6.36,8.14-3-6.71-6.7-7.17-2.35,4.85-2.35,4.85Z"/><path class="cls-27" d="M659.33,509.51s-6.43-8.33-.58-10.06,5.63,8.17,5.25,11.85Z"/><path class="cls-28" d="M691.07,647.42h-.17l-71.14-.08a3.19,3.19,0,1,1,0-6.37l71.15.08a3.18,3.18,0,0,1,.16,6.36Z"/><path class="cls-29" d="M555.8,582.83h59.25a11.28,11.28,0,0,1,10.21,6.47l27.4,58.08H579a6.85,6.85,0,0,1-6.38-4.34L551.4,589.3A4.73,4.73,0,0,1,555.8,582.83Z"/><path class="cls-3" d="M597.54,612.61c1.29,4,.34,7.86-2.12,8.65s-5.48-1.8-6.77-5.79-.33-7.87,2.12-8.66S596.26,608.62,597.54,612.61Z"/><path class="cls-30" d="M485.63,149.55l336.25-4c6.59-.08,8.14,5.17,8.13,8.06l.74,110.23c0,2.92-3,5.36-9.6,5.33-60.8-.31-326-1.46-337.94-1.15s-7-87.08-5.47-109.54C477.94,155.71,479.3,149.62,485.63,149.55Z"/><path class="cls-31" d="M821.48,265.68h-.05c-48.34-.16-291.78-1-336.37-.86h-.31l-.14-.29c-4.31-9.09-4.54-46.16-.57-94.45.06-.7,1-1,1.84-1l336.24-3.82a3.38,3.38,0,0,1,1.16.17c.6.23.73.58.73.84l-.69,98.36c0,.7-.93,1-1.83,1ZM496.35,263.8c64.5,0,279.92.73,325.09.88h0a2,2,0,0,0,.83-.16l.68-98.09-.07,0a2.39,2.39,0,0,0-.8-.11l-336.24,3.82a2.18,2.18,0,0,0-.86.16c-3.91,47.58-3.76,84.14.35,93.54Z"/><path class="cls-32" d="M650.84,194.83a7.31,7.31,0,0,0-5.24-2.22l-133.67.24a7.26,7.26,0,0,0-7.24,7.46L506,246.68a7.26,7.26,0,0,0,7.23,7.06l130.63.38a7.26,7.26,0,0,0,7.28-7l1.72-47A7.28,7.28,0,0,0,650.84,194.83Z"/><path class="cls-32" d="M671.89,175.9l-168.18,1.64c-1.89,0-3.18,2-3.18,4.32v.07c0,2.37,1.31,4.29,3.21,4.3l168.3.49a5.3,5.3,0,0,0,5.29-5.38l0-.09A5.36,5.36,0,0,0,671.89,175.9Z"/><path class="cls-32" d="M807.69,195.43a5.24,5.24,0,0,0-3.63-1.47l-134.82-.48A4.87,4.87,0,0,0,665.7,195a4.75,4.75,0,0,0-1.3,3.58l.17,2.7a4.76,4.76,0,0,0,4.78,4.43l134.89-.93c2.55,0,5-2,5.13-4.57l0-1.28A5.23,5.23,0,0,0,807.69,195.43Z"/><path class="cls-32" d="M807,213.78a5.3,5.3,0,0,0-3.63-1.47l-134.82-.47a4.86,4.86,0,0,0-3.54,1.5,4.79,4.79,0,0,0-1.3,3.59l.17,2.7a4.78,4.78,0,0,0,4.78,4.43l134.89-.93c2.55,0,5-2,5.13-4.58l0-1.28A5.23,5.23,0,0,0,807,213.78Z"/><path class="cls-32" d="M806.34,232.14a5.22,5.22,0,0,0-3.62-1.47l-134.82-.48a4.87,4.87,0,0,0-3.54,1.51,4.71,4.71,0,0,0-1.3,3.58l.17,2.7a4.76,4.76,0,0,0,4.78,4.43l134.89-.93c2.55,0,5-2,5.13-4.57l.05-1.28A5.25,5.25,0,0,0,806.34,232.14Z"/><g class="cls-33"><path class="cls-34" d="M778.21,155.45a6.6,6.6,0,0,1-6.66,6.37l-4.81,0a6.67,6.67,0,0,1-6.69-6.43v-.16a6.59,6.59,0,0,1,6.65-6.37l4.81,0a6.69,6.69,0,0,1,6.7,6.44Z"/><path class="cls-34" d="M798.39,155.55a6.45,6.45,0,0,1-6.48,6.37l-4.39,0a6.31,6.31,0,0,1-6.28-6.44v-.15a6.32,6.32,0,0,1,6.32-6.38l4.47,0a6.38,6.38,0,0,1,6.36,6.43Z"/><path class="cls-34" d="M818.57,155.65a6.3,6.3,0,0,1-6.31,6.37l-4.48,0a6.39,6.39,0,0,1-6.36-6.44v-.15a6.46,6.46,0,0,1,6.49-6.37l4.39,0a6.31,6.31,0,0,1,6.27,6.43Z"/></g><rect class="cls-35" x="475.47" y="89.85" width="355.53" height="37.11" rx="12" ry="12"/><g class="cls-33"><path class="cls-34" d="M768.15,107.75a8.37,8.37,0,0,1-8.45,8.08l-6.1,0c-4.49,0-8.54-3.68-8.5-8.17v-.2a8.38,8.38,0,0,1,8.44-8.09l6.11,0c4.48,0,8.54,3.68,8.5,8.17Z"/><path class="cls-34" d="M793.76,107.88a8.19,8.19,0,0,1-8.23,8.08l-5.57,0a8,8,0,0,1-8-8.16v-.2a8,8,0,0,1,8-8.09l5.68,0a8.1,8.1,0,0,1,8.07,8.17Z"/><path class="cls-34" d="M819.37,108a8,8,0,0,1-8,8.09l-5.68,0a8.12,8.12,0,0,1-8.09-8.17v-.2a8.2,8.2,0,0,1,8.24-8.08l5.56,0a8,8,0,0,1,8,8.16Z"/><rect class="cls-34" x="625.9" y="102" width="111.81" height="11.77" rx="4.48" ry="4.48"/></g><path class="cls-36" d="M402.36,430.73C397,417,389,406.42,380.26,396a29.26,29.26,0,0,0-27-10.1C305.45,393.4,239.69,400,210.46,403.66a41.72,41.72,0,0,0-26.27,14.2C159.11,446.89,106,523.31,157,603.75a2.94,2.94,0,0,0,2.47,1.35h37.11l2.67-4.14c-10.79-24-9.28-50.38,2.79-79.29a2.93,2.93,0,0,1,5.5.24h0a504.56,504.56,0,0,1,18.37,80.67,2.92,2.92,0,0,0,2.89,2.52H342.11a2.94,2.94,0,0,0,2.88-2.42c10.46-59.63,38.43-124.06,47.6-144.26a18.29,18.29,0,0,1,9.05-9.11c1.25-.56,2.48-1.15,3.71-1.74a2.93,2.93,0,0,0,1.54-3.47C405.57,439.6,404.08,435.13,402.36,430.73Z"/><path class="cls-37" d="M488.57,383.33a5.63,5.63,0,0,1,.23-8.29L783.21,112.36a2.73,2.73,0,0,1,3-.43h0a2.75,2.75,0,0,1,.67,4.5l-290.58,267a5.64,5.64,0,0,1-7.74-.11Z"/><path class="cls-38" d="M200.36,507.1c-9.68-27.85-7.66-60.15-7-67.74a1.61,1.61,0,0,1,1.79-1.47h0a1.61,1.61,0,0,1,1.43,1.74c-.63,7.34-2.64,39.09,6.84,66.39a1.62,1.62,0,0,1-1,2.06h0A1.62,1.62,0,0,1,200.36,507.1Z"/><path class="cls-39" d="M510.14,401.59c-45.48,16.62-147.53-15.71-147.53-15.71l-1.53,76.43c77.61,24.53,128.1,17.39,160.94-3.2C524.07,435.7,517,415.33,510.14,401.59Z"/><path class="cls-40" d="M582.54,319.88l-19-3.77s-5.19,60.55-47.58,82.94a46.67,46.67,0,0,1-5.79,2.54C517,415.33,524.07,435.7,522,459.11,588.75,417.26,582.54,319.88,582.54,319.88Z"/><path class="cls-41" d="M564.48,321.39l-1-5.28s-4-12.9,6.53-25.59c15.18-18.34,25.89-13,25.89-13s-.39,5.36-.33,8.84c0,2.8,2.3,3.89,4.37,2l25.88-23.78s6.93,37.5-46.19,62.35Z"/><path class="cls-42" d="M258.91,339.61l-3.41,59.52a3.66,3.66,0,0,0,2.75,3.76c7.55,1.91,28.43,5.7,46.6-4.64a5.92,5.92,0,0,0,2.71-6.77L292.36,338Z"/><path class="cls-43" d="M306.23,279s16.64,38.23,17.76,58.3,5.44,33.09-17.76,37.14-42.76-7.52-53.35-27.51c0,0-16.59-30.81-12.87-43.42S306.23,279,306.23,279Z"/><path class="cls-44" d="M260.81,332.54l1.32-.58a3.19,3.19,0,0,0,1.56-4.37c-3.27-6.33-9.65-20.81-1.41-24.19C272.9,299,315,290.46,324,275.53c8.73-14.34,1-32.86-10.62-38.13a1.6,1.6,0,0,0-2.09.68l-1,1.84a1.58,1.58,0,0,1-2.91-.3h0a1.57,1.57,0,0,0-2.84-.41c-2.79,4.47-10.32,11.71-30.46,15.42-28.63,5.29-47.56,16.87-48,36.65a1.57,1.57,0,0,1-2.44,1.3c-2.11-1.28-5.49-1.89-10,1.91-7.87,6.61-4.65,23.76,12.59,37.87a1.56,1.56,0,0,1-.08,2.52c-3.12,2-7.78,6.88,4.29,13.33,12.48,6.67,21.8,6.12,25.39,5.53a1.57,1.57,0,0,0,1.28-1.89l-3.84-17.39a1.59,1.59,0,0,1,1.54-1.92Z"/><path class="cls-45" d="M261.53,336.21s-6.35-24.42-17.3-17.57,5.68,27.36,14.49,28.28Z"/></svg>