<svg xmlns="http://www.w3.org/2000/svg" xmlns:xlink="http://www.w3.org/1999/xlink" viewBox="0 0 832.78 827.77"><defs><style>.cls-1{fill:url(#linear-gradient);}.cls-2{isolation:isolate;}.cls-3{fill:url(#linear-gradient-2);}.cls-4{opacity:0.3;}.cls-5{fill:#bdd0fb;}.cls-6{fill:url(#linear-gradient-3);}.cls-7{fill:url(#linear-gradient-4);}.cls-8{fill:url(#linear-gradient-5);}.cls-9{fill:url(#linear-gradient-6);}.cls-10,.cls-15,.cls-16,.cls-22{fill:#fff;}.cls-10{mix-blend-mode:soft-light;}.cls-11{fill:#91b3fa;}.cls-12{fill:url(#linear-gradient-7);}.cls-13{fill:url(#linear-gradient-8);}.cls-14{fill:#7d97f4;}.cls-15{fill-rule:evenodd;}.cls-16{opacity:0.58;}.cls-17{fill:url(#linear-gradient-9);}.cls-18{fill:url(#linear-gradient-10);}.cls-19{fill:url(#linear-gradient-11);}.cls-20{fill:url(#linear-gradient-12);}.cls-21{fill:url(#linear-gradient-13);}.cls-22{opacity:0.63;}.cls-23{fill:url(#linear-gradient-14);}.cls-24{fill:url(#linear-gradient-15);}.cls-25{fill:url(#linear-gradient-16);}.cls-26{fill:url(#linear-gradient-17);}.cls-27{fill:url(#linear-gradient-18);}.cls-28{fill:url(#linear-gradient-19);}.cls-29{fill:url(#linear-gradient-20);}.cls-30{fill:url(#linear-gradient-21);}.cls-31{fill:url(#linear-gradient-22);}.cls-32{fill:url(#linear-gradient-23);}.cls-33{fill:url(#linear-gradient-24);}.cls-34{fill:url(#linear-gradient-25);}.cls-35{fill:url(#linear-gradient-26);}.cls-36{fill:url(#linear-gradient-27);}.cls-37{fill:url(#linear-gradient-28);}.cls-38{fill:url(#linear-gradient-29);}.cls-39{fill:url(#linear-gradient-30);}.cls-40{fill:url(#linear-gradient-31);}.cls-41{fill:url(#linear-gradient-32);}.cls-42{fill:url(#linear-gradient-33);}.cls-43{clip-path:url(#clip-path);}.cls-44{fill:url(#linear-gradient-35);}.cls-45{fill:url(#linear-gradient-36);}.cls-46{fill:url(#linear-gradient-37);}.cls-47{fill:url(#linear-gradient-38);}.cls-48{fill:url(#linear-gradient-39);}.cls-49{fill:url(#linear-gradient-40);}.cls-50{fill:url(#linear-gradient-41);}.cls-51{fill:url(#linear-gradient-42);}.cls-52{fill:url(#linear-gradient-43);}.cls-53{fill:url(#linear-gradient-44);}.cls-54{fill:url(#linear-gradient-45);}.cls-55{fill:url(#linear-gradient-46);}.cls-56{fill:url(#linear-gradient-47);}.cls-57{fill:url(#linear-gradient-48);}.cls-58{fill:url(#linear-gradient-49);}.cls-59{fill:url(#linear-gradient-50);}.cls-60{fill:url(#linear-gradient-51);}.cls-61{fill:url(#linear-gradient-52);}.cls-62{fill:url(#linear-gradient-53);}.cls-63{fill:url(#linear-gradient-54);}.cls-64{fill:url(#linear-gradient-55);}.cls-65{fill:url(#linear-gradient-56);}.cls-66{fill:url(#linear-gradient-57);}.cls-67{fill:url(#linear-gradient-58);}.cls-68{fill:url(#linear-gradient-59);}.cls-69{fill:url(#linear-gradient-60);}.cls-70{fill:url(#linear-gradient-61);}.cls-71{fill:url(#linear-gradient-62);}.cls-72{fill:url(#linear-gradient-63);}.cls-73{fill:url(#linear-gradient-64);}.cls-74{fill:url(#linear-gradient-65);}.cls-75{fill:url(#linear-gradient-66);}.cls-76{fill:url(#linear-gradient-67);}.cls-77{fill:url(#linear-gradient-68);}.cls-78{fill:url(#linear-gradient-69);}.cls-79{fill:url(#linear-gradient-70);}.cls-80{fill:url(#linear-gradient-71);}.cls-81{fill:url(#linear-gradient-72);}.cls-82{fill:url(#linear-gradient-73);}.cls-83{fill:url(#linear-gradient-74);}.cls-84{fill:url(#linear-gradient-75);}.cls-85{fill:url(#linear-gradient-76);}.cls-86{fill:url(#linear-gradient-77);}.cls-87{fill:url(#linear-gradient-78);}.cls-88{fill:url(#linear-gradient-79);}.cls-89{fill:url(#linear-gradient-80);}.cls-90{fill:url(#linear-gradient-81);}.cls-91{fill:url(#linear-gradient-82);}.cls-92{fill:url(#linear-gradient-83);}.cls-93{fill:url(#linear-gradient-84);}.cls-94{fill:url(#linear-gradient-85);}.cls-95{fill:url(#linear-gradient-86);}.cls-96{fill:url(#linear-gradient-87);}.cls-97{fill:url(#linear-gradient-88);}.cls-98{fill:url(#linear-gradient-89);}.cls-99{fill:url(#linear-gradient-90);}.cls-100{fill:url(#linear-gradient-91);}.cls-101{fill:url(#linear-gradient-92);}.cls-102{fill:url(#linear-gradient-93);}.cls-103{fill:url(#linear-gradient-94);}.cls-104{fill:url(#linear-gradient-95);}.cls-105{fill:url(#linear-gradient-96);}.cls-106{fill:url(#linear-gradient-97);}.cls-107{fill:url(#linear-gradient-98);}.cls-108{fill:url(#linear-gradient-99);}.cls-109{fill:url(#linear-gradient-100);}.cls-110{fill:url(#linear-gradient-101);}.cls-111{fill:url(#linear-gradient-102);}.cls-112{fill:url(#linear-gradient-103);}.cls-113{fill:url(#linear-gradient-104);}.cls-114{fill:url(#linear-gradient-105);}.cls-115{fill:url(#linear-gradient-106);}.cls-116{fill:url(#linear-gradient-107);}.cls-117{fill:url(#linear-gradient-108);}.cls-118{fill:url(#linear-gradient-109);}.cls-119{fill:url(#linear-gradient-110);}.cls-120{fill:url(#linear-gradient-111);}.cls-121{fill:url(#linear-gradient-112);}.cls-122{fill:url(#linear-gradient-113);}.cls-123{fill:url(#linear-gradient-114);}.cls-124{fill:url(#linear-gradient-115);}.cls-125{fill:url(#linear-gradient-116);}.cls-126{fill:url(#linear-gradient-117);}.cls-127{fill:url(#linear-gradient-118);}.cls-128{fill:url(#linear-gradient-119);}.cls-129{fill:url(#linear-gradient-120);}.cls-130{fill:url(#linear-gradient-121);}.cls-131{fill:url(#linear-gradient-122);}.cls-132{fill:url(#linear-gradient-123);}.cls-133{fill:url(#linear-gradient-124);}.cls-134{fill:url(#linear-gradient-125);}.cls-135{fill:url(#linear-gradient-126);}.cls-136{fill:url(#linear-gradient-127);}.cls-137{fill:url(#linear-gradient-128);}.cls-138{fill:url(#linear-gradient-129);}.cls-139{fill:url(#linear-gradient-130);}.cls-140{fill:url(#linear-gradient-131);}.cls-141{fill:url(#linear-gradient-132);}.cls-142{fill:url(#linear-gradient-133);}.cls-143{fill:url(#linear-gradient-134);}.cls-144{fill:url(#linear-gradient-135);}.cls-145{fill:url(#linear-gradient-136);}.cls-146{fill:url(#linear-gradient-137);}.cls-147{fill:url(#linear-gradient-138);}.cls-148{fill:url(#linear-gradient-139);}.cls-149{fill:url(#linear-gradient-140);}.cls-150{fill:url(#linear-gradient-141);}.cls-151{fill:url(#linear-gradient-142);}.cls-152{fill:url(#linear-gradient-143);}.cls-153{fill:url(#linear-gradient-144);}.cls-154{fill:url(#linear-gradient-145);}.cls-155{fill:url(#linear-gradient-146);}.cls-156{fill:url(#linear-gradient-147);}.cls-157{fill:url(#linear-gradient-148);}.cls-158{fill:url(#linear-gradient-149);}.cls-159{fill:url(#linear-gradient-150);}.cls-160{fill:url(#linear-gradient-151);}.cls-161{fill:url(#linear-gradient-152);}.cls-162{fill:url(#linear-gradient-153);}.cls-163{fill:url(#linear-gradient-154);}.cls-164{fill:url(#linear-gradient-155);}.cls-165{fill:url(#linear-gradient-156);}.cls-166{fill:url(#linear-gradient-157);}.cls-167{fill:url(#linear-gradient-158);}.cls-168{fill:url(#linear-gradient-159);}.cls-169{fill:url(#linear-gradient-160);}.cls-170{fill:url(#linear-gradient-161);}.cls-171{fill:url(#linear-gradient-162);}.cls-172{fill:url(#linear-gradient-163);}.cls-173{fill:url(#linear-gradient-164);}.cls-174{fill:url(#linear-gradient-165);}.cls-175{fill:url(#linear-gradient-166);}.cls-176{fill:url(#linear-gradient-167);}.cls-177{fill:url(#linear-gradient-168);}.cls-178{fill:url(#linear-gradient-169);}.cls-179{fill:url(#linear-gradient-170);}.cls-180{fill:url(#linear-gradient-171);}.cls-181{fill:url(#linear-gradient-172);}.cls-182{fill:url(#linear-gradient-173);}.cls-183{fill:url(#linear-gradient-174);}.cls-184{fill:url(#linear-gradient-175);}.cls-185{fill:url(#linear-gradient-176);}.cls-186{fill:url(#linear-gradient-177);}.cls-187{fill:url(#linear-gradient-178);}.cls-188{fill:url(#linear-gradient-179);}.cls-189{fill:url(#linear-gradient-180);}.cls-190{fill:url(#linear-gradient-181);}.cls-191{fill:url(#linear-gradient-182);}.cls-192{fill:url(#linear-gradient-183);}.cls-193{fill:url(#linear-gradient-184);}.cls-194{fill:url(#linear-gradient-185);}.cls-195{fill:url(#linear-gradient-186);}.cls-196{fill:url(#linear-gradient-187);}.cls-197{fill:url(#linear-gradient-188);}.cls-198{fill:url(#linear-gradient-189);}.cls-199{fill:url(#linear-gradient-190);}.cls-200{fill:url(#linear-gradient-191);}</style><linearGradient id="linear-gradient" x1="689.58" y1="481.68" x2="695.17" y2="481.68" gradientTransform="translate(41.02 -54.17) rotate(4.62)" gradientUnits="userSpaceOnUse"><stop offset="0" stop-color="#4f52ff"/><stop offset="1" stop-color="#4042e2"/></linearGradient><linearGradient id="linear-gradient-2" x1="935.86" y1="1072.09" x2="199.3" y2="157.32" gradientUnits="userSpaceOnUse"><stop offset="0" stop-color="#dae3fe"/><stop offset="1" stop-color="#e9effd"/></linearGradient><linearGradient id="linear-gradient-3" x1="493.03" y1="208.37" x2="526.28" y2="208.37" xlink:href="#linear-gradient-2"/><linearGradient id="linear-gradient-4" x1="470.11" y1="208.34" x2="550.87" y2="208.34" xlink:href="#linear-gradient-2"/><linearGradient id="linear-gradient-5" x1="371.67" y1="182.31" x2="394.31" y2="182.31" xlink:href="#linear-gradient-2"/><linearGradient id="linear-gradient-6" x1="355.69" y1="182.27" x2="411.42" y2="182.27" xlink:href="#linear-gradient-2"/><linearGradient id="linear-gradient-7" x1="-2201.67" y1="626.09" x2="-2038.39" y2="136.26" gradientTransform="matrix(-1, 0, 0, 1, -1708.92, 0)" gradientUnits="userSpaceOnUse"><stop offset="0" stop-color="#09005d"/><stop offset="1" stop-color="#1a0f91"/></linearGradient><linearGradient id="linear-gradient-8" x1="420.54" y1="684.04" x2="434.66" y2="602.43" gradientTransform="translate(845.18 1344.32) rotate(-180)" xlink:href="#linear-gradient-7"/><linearGradient id="linear-gradient-9" x1="173.07" y1="593.65" x2="394.8" y2="593.65" gradientUnits="userSpaceOnUse"><stop offset="0" stop-color="#ff928e"/><stop offset="1" stop-color="#fe7062"/></linearGradient><linearGradient id="linear-gradient-10" x1="415.14" y1="557.83" x2="348.37" y2="638.49" gradientUnits="userSpaceOnUse"><stop offset="0" stop-color="#e1473d"/><stop offset="1" stop-color="#e9605a"/></linearGradient><linearGradient id="linear-gradient-11" x1="326.65" y1="513.69" x2="176.66" y2="288.7" gradientTransform="matrix(1, 0, 0, 1, 0, 0)" xlink:href="#linear-gradient"/><linearGradient id="linear-gradient-12" x1="142.99" y1="278.53" x2="114.99" y2="135.53" gradientTransform="matrix(1, 0, 0, 1, 0, 0)" xlink:href="#linear-gradient"/><linearGradient id="linear-gradient-13" x1="115.35" y1="179.33" x2="214.34" y2="-54.66" gradientTransform="matrix(1, 0, 0, 1, 0, 0)" xlink:href="#linear-gradient"/><linearGradient id="linear-gradient-14" x1="-1546.45" y1="537.33" x2="-1633.37" y2="675.51" gradientTransform="matrix(-1, 0, 0, 1, -915.42, 0)" xlink:href="#linear-gradient"/><linearGradient id="linear-gradient-15" x1="-1465.41" y1="635.6" x2="-1433.3" y2="669.14" gradientTransform="matrix(-1, 0, 0, 1, -915.42, 0)" xlink:href="#linear-gradient-7"/><linearGradient id="linear-gradient-16" x1="567.95" y1="494.55" x2="703.95" y2="957.55" gradientTransform="matrix(1, 0, 0, 1, 0, 0)" xlink:href="#linear-gradient-7"/><linearGradient id="linear-gradient-17" x1="-1422.82" y1="719.78" x2="-1362.08" y2="764.35" gradientTransform="matrix(-1, 0, 0, 1, -915.42, 0)" xlink:href="#linear-gradient-7"/><linearGradient id="linear-gradient-18" x1="-290.41" y1="-2563.64" x2="-332.41" y2="-2448.14" gradientTransform="matrix(-1, 0, 0, 1, -915.42, 0)" xlink:href="#linear-gradient-9"/><linearGradient id="linear-gradient-19" x1="-217.25" y1="-2537.03" x2="-259.25" y2="-2421.54" gradientTransform="matrix(-1, 0, 0, 1, -915.42, 0)" xlink:href="#linear-gradient-9"/><linearGradient id="linear-gradient-20" x1="634.07" y1="438.35" x2="594.07" y2="742.35" gradientTransform="matrix(1, 0, 0, 1, 0, 0)" xlink:href="#linear-gradient-7"/><linearGradient id="linear-gradient-21" x1="-1520.94" y1="555.04" x2="-1562.17" y2="604.07" gradientTransform="matrix(-1, 0, 0, 1, -915.42, 0)" gradientUnits="userSpaceOnUse"><stop offset="0" stop-color="#febbba"/><stop offset="1" stop-color="#ff928e"/></linearGradient><linearGradient id="linear-gradient-22" x1="-456.16" y1="-2623.89" x2="-498.16" y2="-2508.39" gradientTransform="matrix(-1, 0, 0, 1, -915.42, 0)" xlink:href="#linear-gradient-9"/><linearGradient id="linear-gradient-23" x1="-1569.02" y1="599.65" x2="-1486.6" y2="486.9" xlink:href="#linear-gradient-21"/><linearGradient id="linear-gradient-24" x1="-1619.43" y1="506.22" x2="-1616.4" y2="478.89" xlink:href="#linear-gradient-21"/><linearGradient id="linear-gradient-25" x1="-1603.24" y1="482.38" x2="-1616.62" y2="438.25" xlink:href="#linear-gradient-21"/><linearGradient id="linear-gradient-26" x1="-1615.29" y1="401.5" x2="-1602.88" y2="472.3" gradientTransform="matrix(-1, 0, 0, 1, -915.42, 0)" xlink:href="#linear-gradient-7"/><linearGradient id="linear-gradient-27" x1="-1617.1" y1="486.58" x2="-1630.48" y2="442.45" xlink:href="#linear-gradient-21"/><linearGradient id="linear-gradient-28" x1="-1453.39" y1="82.16" x2="-1459.39" y2="210.83" gradientTransform="matrix(-1, 0, 0, 1, -915.42, 0)" xlink:href="#linear-gradient"/><linearGradient id="linear-gradient-29" x1="-1510.43" y1="79.5" x2="-1516.43" y2="208.17" gradientTransform="matrix(-1, 0, 0, 1, -915.42, 0)" xlink:href="#linear-gradient"/><linearGradient id="linear-gradient-30" x1="904.21" y1="160.24" x2="734.72" y2="428.73" xlink:href="#linear-gradient-10"/><linearGradient id="linear-gradient-31" x1="932.79" y1="178.28" x2="763.3" y2="446.77" xlink:href="#linear-gradient-10"/><linearGradient id="linear-gradient-32" x1="960.75" y1="195.93" x2="791.26" y2="464.42" xlink:href="#linear-gradient-10"/><linearGradient id="linear-gradient-33" x1="-1688.12" y1="622.09" x2="-1667.78" y2="608.3" gradientTransform="matrix(-1, 0.08, 0.08, 1, -1017.08, -3.19)" xlink:href="#linear-gradient"/><clipPath id="clip-path" transform="translate(0 0)"><rect class="cls-1" x="689.59" y="480.01" width="5.57" height="3.34" rx="1.45" ry="1.45" transform="translate(-36.52 57.29) rotate(-4.62)"/></clipPath><linearGradient id="linear-gradient-35" x1="694.96" y1="482.84" x2="695.1" y2="482.84" gradientTransform="matrix(1, 0, 0, 1, 0, 0)" xlink:href="#linear-gradient"/><linearGradient id="linear-gradient-36" x1="694.71" y1="482.03" x2="695.19" y2="482.03" gradientTransform="matrix(1, 0, 0, 1, 0, 0)" xlink:href="#linear-gradient"/><linearGradient id="linear-gradient-37" x1="694.67" y1="482.04" x2="695.02" y2="482.04" gradientTransform="matrix(1, 0, 0, 1, 0, 0)" xlink:href="#linear-gradient"/><linearGradient id="linear-gradient-38" x1="694.63" y1="482.04" x2="694.98" y2="482.04" gradientTransform="matrix(1, 0, 0, 1, 0, 0)" xlink:href="#linear-gradient"/><linearGradient id="linear-gradient-39" x1="694.6" y1="482.05" x2="694.94" y2="482.05" gradientTransform="matrix(1, 0, 0, 1, 0, 0)" xlink:href="#linear-gradient"/><linearGradient id="linear-gradient-40" x1="694.56" y1="482.05" x2="694.9" y2="482.05" gradientTransform="matrix(1, 0, 0, 1, 0, 0)" xlink:href="#linear-gradient"/><linearGradient id="linear-gradient-41" x1="694.52" y1="482.05" x2="694.86" y2="482.05" gradientTransform="matrix(1, 0, 0, 1, 0, 0)" xlink:href="#linear-gradient"/><linearGradient id="linear-gradient-42" x1="694.48" y1="482.06" x2="694.83" y2="482.06" gradientTransform="matrix(1, 0, 0, 1, 0, 0)" xlink:href="#linear-gradient"/><linearGradient id="linear-gradient-43" x1="694.44" y1="482.06" x2="694.79" y2="482.06" gradientTransform="matrix(1, 0, 0, 1, 0, 0)" xlink:href="#linear-gradient"/><linearGradient id="linear-gradient-44" x1="694.4" y1="482.06" x2="694.75" y2="482.06" gradientTransform="matrix(1, 0, 0, 1, 0, 0)" xlink:href="#linear-gradient"/><linearGradient id="linear-gradient-45" x1="694.37" y1="482.06" x2="694.71" y2="482.06" gradientTransform="matrix(1, 0, 0, 1, 0, 0)" xlink:href="#linear-gradient"/><linearGradient id="linear-gradient-46" x1="694.33" y1="482.07" x2="694.67" y2="482.07" gradientTransform="matrix(1, 0, 0, 1, 0, 0)" xlink:href="#linear-gradient"/><linearGradient id="linear-gradient-47" x1="694.29" y1="482.07" x2="694.63" y2="482.07" gradientTransform="matrix(1, 0, 0, 1, 0, 0)" xlink:href="#linear-gradient"/><linearGradient id="linear-gradient-48" x1="694.25" y1="482.07" x2="694.6" y2="482.07" gradientTransform="matrix(1, 0, 0, 1, 0, 0)" xlink:href="#linear-gradient"/><linearGradient id="linear-gradient-49" x1="694.21" y1="482.08" x2="694.56" y2="482.08" gradientTransform="matrix(1, 0, 0, 1, 0, 0)" xlink:href="#linear-gradient"/><linearGradient id="linear-gradient-50" x1="694.17" y1="482.08" x2="694.52" y2="482.08" gradientTransform="matrix(1, 0, 0, 1, 0, 0)" xlink:href="#linear-gradient"/><linearGradient id="linear-gradient-51" x1="694.13" y1="482.08" x2="694.48" y2="482.08" gradientTransform="matrix(1, 0, 0, 1, 0, 0)" xlink:href="#linear-gradient"/><linearGradient id="linear-gradient-52" x1="694.1" y1="482.09" x2="694.44" y2="482.09" gradientTransform="matrix(1, 0, 0, 1, 0, 0)" xlink:href="#linear-gradient"/><linearGradient id="linear-gradient-53" x1="694.06" y1="482.09" x2="694.4" y2="482.09" gradientTransform="matrix(1, 0, 0, 1, 0, 0)" xlink:href="#linear-gradient"/><linearGradient id="linear-gradient-54" x1="694.02" y1="482.09" x2="694.36" y2="482.09" gradientTransform="matrix(1, 0, 0, 1, 0, 0)" xlink:href="#linear-gradient"/><linearGradient id="linear-gradient-55" x1="693.98" y1="482.1" x2="694.33" y2="482.1" gradientTransform="matrix(1, 0, 0, 1, 0, 0)" xlink:href="#linear-gradient"/><linearGradient id="linear-gradient-56" x1="693.94" y1="482.1" x2="694.29" y2="482.1" gradientTransform="matrix(1, 0, 0, 1, 0, 0)" xlink:href="#linear-gradient"/><linearGradient id="linear-gradient-57" x1="693.9" y1="482.1" x2="694.25" y2="482.1" gradientTransform="matrix(1, 0, 0, 1, 0, 0)" xlink:href="#linear-gradient"/><linearGradient id="linear-gradient-58" x1="693.87" y1="482.11" x2="694.21" y2="482.11" gradientTransform="matrix(1, 0, 0, 1, 0, 0)" xlink:href="#linear-gradient"/><linearGradient id="linear-gradient-59" x1="693.83" y1="482.11" x2="694.17" y2="482.11" gradientTransform="matrix(1, 0, 0, 1, 0, 0)" xlink:href="#linear-gradient"/><linearGradient id="linear-gradient-60" x1="693.79" y1="482.11" x2="694.13" y2="482.11" gradientTransform="matrix(1, 0, 0, 1, 0, 0)" xlink:href="#linear-gradient"/><linearGradient id="linear-gradient-61" x1="693.75" y1="482.11" x2="694.1" y2="482.11" gradientTransform="matrix(1, 0, 0, 1, 0, 0)" xlink:href="#linear-gradient"/><linearGradient id="linear-gradient-62" x1="693.71" y1="482.12" x2="694.06" y2="482.12" gradientTransform="matrix(1, 0, 0, 1, 0, 0)" xlink:href="#linear-gradient"/><linearGradient id="linear-gradient-63" x1="693.67" y1="482.12" x2="694.02" y2="482.12" gradientTransform="matrix(1, 0, 0, 1, 0, 0)" xlink:href="#linear-gradient"/><linearGradient id="linear-gradient-64" x1="693.63" y1="482.12" x2="693.98" y2="482.12" gradientTransform="matrix(1, 0, 0, 1, 0, 0)" xlink:href="#linear-gradient"/><linearGradient id="linear-gradient-65" x1="693.6" y1="482.13" x2="693.94" y2="482.13" gradientTransform="matrix(1, 0, 0, 1, 0, 0)" xlink:href="#linear-gradient"/><linearGradient id="linear-gradient-66" x1="693.56" y1="482.13" x2="693.9" y2="482.13" gradientTransform="matrix(1, 0, 0, 1, 0, 0)" xlink:href="#linear-gradient"/><linearGradient id="linear-gradient-67" x1="693.52" y1="482.13" x2="693.86" y2="482.13" gradientTransform="matrix(1, 0, 0, 1, 0, 0)" xlink:href="#linear-gradient"/><linearGradient id="linear-gradient-68" x1="693.48" y1="482.14" x2="693.83" y2="482.14" gradientTransform="matrix(1, 0, 0, 1, 0, 0)" xlink:href="#linear-gradient"/><linearGradient id="linear-gradient-69" x1="693.44" y1="482.14" x2="693.79" y2="482.14" gradientTransform="matrix(1, 0, 0, 1, 0, 0)" xlink:href="#linear-gradient"/><linearGradient id="linear-gradient-70" x1="693.4" y1="482.14" x2="693.75" y2="482.14" gradientTransform="matrix(1, 0, 0, 1, 0, 0)" xlink:href="#linear-gradient"/><linearGradient id="linear-gradient-71" x1="693.37" y1="482.15" x2="693.71" y2="482.15" gradientTransform="matrix(1, 0, 0, 1, 0, 0)" xlink:href="#linear-gradient"/><linearGradient id="linear-gradient-72" x1="693.33" y1="482.15" x2="693.67" y2="482.15" gradientTransform="matrix(1, 0, 0, 1, 0, 0)" xlink:href="#linear-gradient"/><linearGradient id="linear-gradient-73" x1="693.29" y1="482.15" x2="693.63" y2="482.15" gradientTransform="matrix(1, 0, 0, 1, 0, 0)" xlink:href="#linear-gradient"/><linearGradient id="linear-gradient-74" x1="693.25" y1="482.15" x2="693.6" y2="482.15" gradientTransform="matrix(1, 0, 0, 1, 0, 0)" xlink:href="#linear-gradient"/><linearGradient id="linear-gradient-75" x1="693.21" y1="482.16" x2="693.56" y2="482.16" gradientTransform="matrix(1, 0, 0, 1, 0, 0)" xlink:href="#linear-gradient"/><linearGradient id="linear-gradient-76" x1="693.17" y1="482.16" x2="693.52" y2="482.16" gradientTransform="matrix(1, 0, 0, 1, 0, 0)" xlink:href="#linear-gradient"/><linearGradient id="linear-gradient-77" x1="693.13" y1="482.16" x2="693.48" y2="482.16" gradientTransform="matrix(1, 0, 0, 1, 0, 0)" xlink:href="#linear-gradient"/><linearGradient id="linear-gradient-78" x1="693.1" y1="482.17" x2="693.44" y2="482.17" gradientTransform="matrix(1, 0, 0, 1, 0, 0)" xlink:href="#linear-gradient"/><linearGradient id="linear-gradient-79" x1="693.06" y1="482.17" x2="693.4" y2="482.17" gradientTransform="matrix(1, 0, 0, 1, 0, 0)" xlink:href="#linear-gradient"/><linearGradient id="linear-gradient-80" x1="693.02" y1="482.17" x2="693.36" y2="482.17" gradientTransform="matrix(1, 0, 0, 1, 0, 0)" xlink:href="#linear-gradient"/><linearGradient id="linear-gradient-81" x1="692.98" y1="482.18" x2="693.33" y2="482.18" gradientTransform="matrix(1, 0, 0, 1, 0, 0)" xlink:href="#linear-gradient"/><linearGradient id="linear-gradient-82" x1="692.94" y1="482.18" x2="693.29" y2="482.18" gradientTransform="matrix(1, 0, 0, 1, 0, 0)" xlink:href="#linear-gradient"/><linearGradient id="linear-gradient-83" x1="692.9" y1="482.18" x2="693.25" y2="482.18" gradientTransform="matrix(1, 0, 0, 1, 0, 0)" xlink:href="#linear-gradient"/><linearGradient id="linear-gradient-84" x1="692.87" y1="482.19" x2="693.21" y2="482.19" gradientTransform="matrix(1, 0, 0, 1, 0, 0)" xlink:href="#linear-gradient"/><linearGradient id="linear-gradient-85" x1="692.83" y1="482.19" x2="693.17" y2="482.19" gradientTransform="matrix(1, 0, 0, 1, 0, 0)" xlink:href="#linear-gradient"/><linearGradient id="linear-gradient-86" x1="692.79" y1="482.19" x2="693.13" y2="482.19" gradientTransform="matrix(1, 0, 0, 1, 0, 0)" xlink:href="#linear-gradient"/><linearGradient id="linear-gradient-87" x1="692.75" y1="482.2" x2="693.1" y2="482.2" gradientTransform="matrix(1, 0, 0, 1, 0, 0)" xlink:href="#linear-gradient"/><linearGradient id="linear-gradient-88" x1="692.71" y1="482.2" x2="693.06" y2="482.2" gradientTransform="matrix(1, 0, 0, 1, 0, 0)" xlink:href="#linear-gradient"/><linearGradient id="linear-gradient-89" x1="692.67" y1="482.2" x2="693.02" y2="482.2" gradientTransform="matrix(1, 0, 0, 1, 0, 0)" xlink:href="#linear-gradient"/><linearGradient id="linear-gradient-90" x1="692.63" y1="482.2" x2="692.98" y2="482.2" gradientTransform="matrix(1, 0, 0, 1, 0, 0)" xlink:href="#linear-gradient"/><linearGradient id="linear-gradient-91" x1="692.6" y1="482.21" x2="692.94" y2="482.21" gradientTransform="matrix(1, 0, 0, 1, 0, 0)" xlink:href="#linear-gradient"/><linearGradient id="linear-gradient-92" x1="692.56" y1="482.21" x2="692.9" y2="482.21" gradientTransform="matrix(1, 0, 0, 1, 0, 0)" xlink:href="#linear-gradient"/><linearGradient id="linear-gradient-93" x1="692.52" y1="482.21" x2="692.87" y2="482.21" gradientTransform="matrix(1, 0, 0, 1, 0, 0)" xlink:href="#linear-gradient"/><linearGradient id="linear-gradient-94" x1="692.48" y1="482.22" x2="692.83" y2="482.22" gradientTransform="matrix(1, 0, 0, 1, 0, 0)" xlink:href="#linear-gradient"/><linearGradient id="linear-gradient-95" x1="692.44" y1="482.22" x2="692.79" y2="482.22" gradientTransform="matrix(1, 0, 0, 1, 0, 0)" xlink:href="#linear-gradient"/><linearGradient id="linear-gradient-96" x1="692.4" y1="482.22" x2="692.75" y2="482.22" gradientTransform="matrix(1, 0, 0, 1, 0, 0)" xlink:href="#linear-gradient"/><linearGradient id="linear-gradient-97" x1="692.37" y1="482.23" x2="692.71" y2="482.23" gradientTransform="matrix(1, 0, 0, 1, 0, 0)" xlink:href="#linear-gradient"/><linearGradient id="linear-gradient-98" x1="692.33" y1="482.23" x2="692.67" y2="482.23" gradientTransform="matrix(1, 0, 0, 1, 0, 0)" xlink:href="#linear-gradient"/><linearGradient id="linear-gradient-99" x1="692.29" y1="482.23" x2="692.63" y2="482.23" gradientTransform="matrix(1, 0, 0, 1, 0, 0)" xlink:href="#linear-gradient"/><linearGradient id="linear-gradient-100" x1="692.25" y1="482.24" x2="692.6" y2="482.24" gradientTransform="matrix(1, 0, 0, 1, 0, 0)" xlink:href="#linear-gradient"/><linearGradient id="linear-gradient-101" x1="692.21" y1="482.24" x2="692.56" y2="482.24" gradientTransform="matrix(1, 0, 0, 1, 0, 0)" xlink:href="#linear-gradient"/><linearGradient id="linear-gradient-102" x1="692.17" y1="482.24" x2="692.52" y2="482.24" gradientTransform="matrix(1, 0, 0, 1, 0, 0)" xlink:href="#linear-gradient"/><linearGradient id="linear-gradient-103" x1="692.14" y1="482.24" x2="692.48" y2="482.24" gradientTransform="matrix(1, 0, 0, 1, 0, 0)" xlink:href="#linear-gradient"/><linearGradient id="linear-gradient-104" x1="692.1" y1="482.25" x2="692.44" y2="482.25" gradientTransform="matrix(1, 0, 0, 1, 0, 0)" xlink:href="#linear-gradient"/><linearGradient id="linear-gradient-105" x1="692.06" y1="482.25" x2="692.4" y2="482.25" gradientTransform="matrix(1, 0, 0, 1, 0, 0)" xlink:href="#linear-gradient"/><linearGradient id="linear-gradient-106" x1="692.02" y1="482.25" x2="692.37" y2="482.25" gradientTransform="matrix(1, 0, 0, 1, 0, 0)" xlink:href="#linear-gradient"/><linearGradient id="linear-gradient-107" x1="691.98" y1="482.26" x2="692.33" y2="482.26" gradientTransform="matrix(1, 0, 0, 1, 0, 0)" xlink:href="#linear-gradient"/><linearGradient id="linear-gradient-108" x1="691.94" y1="482.26" x2="692.29" y2="482.26" gradientTransform="matrix(1, 0, 0, 1, 0, 0)" xlink:href="#linear-gradient"/><linearGradient id="linear-gradient-109" x1="691.9" y1="482.26" x2="692.25" y2="482.26" gradientTransform="matrix(1, 0, 0, 1, 0, 0)" xlink:href="#linear-gradient"/><linearGradient id="linear-gradient-110" x1="691.87" y1="482.27" x2="692.21" y2="482.27" gradientTransform="matrix(1, 0, 0, 1, 0, 0)" xlink:href="#linear-gradient"/><linearGradient id="linear-gradient-111" x1="691.83" y1="482.27" x2="692.17" y2="482.27" gradientTransform="matrix(1, 0, 0, 1, 0, 0)" xlink:href="#linear-gradient"/><linearGradient id="linear-gradient-112" x1="691.79" y1="482.27" x2="692.13" y2="482.27" gradientTransform="matrix(1, 0, 0, 1, 0, 0)" xlink:href="#linear-gradient"/><linearGradient id="linear-gradient-113" x1="691.75" y1="482.28" x2="692.1" y2="482.28" gradientTransform="matrix(1, 0, 0, 1, 0, 0)" xlink:href="#linear-gradient"/><linearGradient id="linear-gradient-114" x1="691.71" y1="482.28" x2="692.06" y2="482.28" gradientTransform="matrix(1, 0, 0, 1, 0, 0)" xlink:href="#linear-gradient"/><linearGradient id="linear-gradient-115" x1="691.67" y1="482.28" x2="692.02" y2="482.28" gradientTransform="matrix(1, 0, 0, 1, 0, 0)" xlink:href="#linear-gradient"/><linearGradient id="linear-gradient-116" x1="691.64" y1="482.29" x2="691.98" y2="482.29" gradientTransform="matrix(1, 0, 0, 1, 0, 0)" xlink:href="#linear-gradient"/><linearGradient id="linear-gradient-117" x1="691.6" y1="482.29" x2="691.94" y2="482.29" gradientTransform="matrix(1, 0, 0, 1, 0, 0)" xlink:href="#linear-gradient"/><linearGradient id="linear-gradient-118" x1="691.56" y1="482.29" x2="691.9" y2="482.29" gradientTransform="matrix(1, 0, 0, 1, 0, 0)" xlink:href="#linear-gradient"/><linearGradient id="linear-gradient-119" x1="691.52" y1="482.29" x2="691.87" y2="482.29" gradientTransform="matrix(1, 0, 0, 1, 0, 0)" xlink:href="#linear-gradient"/><linearGradient id="linear-gradient-120" x1="691.48" y1="482.3" x2="691.83" y2="482.3" gradientTransform="matrix(1, 0, 0, 1, 0, 0)" xlink:href="#linear-gradient"/><linearGradient id="linear-gradient-121" x1="691.44" y1="482.3" x2="691.79" y2="482.3" gradientTransform="matrix(1, 0, 0, 1, 0, 0)" xlink:href="#linear-gradient"/><linearGradient id="linear-gradient-122" x1="691.4" y1="482.3" x2="691.75" y2="482.3" gradientTransform="matrix(1, 0, 0, 1, 0, 0)" xlink:href="#linear-gradient"/><linearGradient id="linear-gradient-123" x1="691.37" y1="482.31" x2="691.71" y2="482.31" gradientTransform="matrix(1, 0, 0, 1, 0, 0)" xlink:href="#linear-gradient"/><linearGradient id="linear-gradient-124" x1="691.33" y1="482.31" x2="691.67" y2="482.31" gradientTransform="matrix(1, 0, 0, 1, 0, 0)" xlink:href="#linear-gradient"/><linearGradient id="linear-gradient-125" x1="691.29" y1="482.31" x2="691.63" y2="482.31" gradientTransform="matrix(1, 0, 0, 1, 0, 0)" xlink:href="#linear-gradient"/><linearGradient id="linear-gradient-126" x1="691.25" y1="482.32" x2="691.6" y2="482.32" gradientTransform="matrix(1, 0, 0, 1, 0, 0)" xlink:href="#linear-gradient"/><linearGradient id="linear-gradient-127" x1="691.21" y1="482.32" x2="691.56" y2="482.32" gradientTransform="matrix(1, 0, 0, 1, 0, 0)" xlink:href="#linear-gradient"/><linearGradient id="linear-gradient-128" x1="691.17" y1="482.32" x2="691.52" y2="482.32" gradientTransform="matrix(1, 0, 0, 1, 0, 0)" xlink:href="#linear-gradient"/><linearGradient id="linear-gradient-129" x1="691.14" y1="482.33" x2="691.48" y2="482.33" gradientTransform="matrix(1, 0, 0, 1, 0, 0)" xlink:href="#linear-gradient"/><linearGradient id="linear-gradient-130" x1="691.1" y1="482.33" x2="691.44" y2="482.33" gradientTransform="matrix(1, 0, 0, 1, 0, 0)" xlink:href="#linear-gradient"/><linearGradient id="linear-gradient-131" x1="691.06" y1="482.33" x2="691.4" y2="482.33" gradientTransform="matrix(1, 0, 0, 1, 0, 0)" xlink:href="#linear-gradient"/><linearGradient id="linear-gradient-132" x1="691.02" y1="482.34" x2="691.37" y2="482.34" gradientTransform="matrix(1, 0, 0, 1, 0, 0)" xlink:href="#linear-gradient"/><linearGradient id="linear-gradient-133" x1="690.98" y1="482.34" x2="691.33" y2="482.34" gradientTransform="matrix(1, 0, 0, 1, 0, 0)" xlink:href="#linear-gradient"/><linearGradient id="linear-gradient-134" x1="690.94" y1="482.34" x2="691.29" y2="482.34" gradientTransform="matrix(1, 0, 0, 1, 0, 0)" xlink:href="#linear-gradient"/><linearGradient id="linear-gradient-135" x1="690.9" y1="482.34" x2="691.25" y2="482.34" gradientTransform="matrix(1, 0, 0, 1, 0, 0)" xlink:href="#linear-gradient"/><linearGradient id="linear-gradient-136" x1="690.87" y1="482.35" x2="691.21" y2="482.35" gradientTransform="matrix(1, 0, 0, 1, 0, 0)" xlink:href="#linear-gradient"/><linearGradient id="linear-gradient-137" x1="690.83" y1="482.35" x2="691.17" y2="482.35" gradientTransform="matrix(1, 0, 0, 1, 0, 0)" xlink:href="#linear-gradient"/><linearGradient id="linear-gradient-138" x1="690.79" y1="482.35" x2="691.13" y2="482.35" gradientTransform="matrix(1, 0, 0, 1, 0, 0)" xlink:href="#linear-gradient"/><linearGradient id="linear-gradient-139" x1="690.75" y1="482.36" x2="691.1" y2="482.36" gradientTransform="matrix(1, 0, 0, 1, 0, 0)" xlink:href="#linear-gradient"/><linearGradient id="linear-gradient-140" x1="690.71" y1="482.36" x2="691.06" y2="482.36" gradientTransform="matrix(1, 0, 0, 1, 0, 0)" xlink:href="#linear-gradient"/><linearGradient id="linear-gradient-141" x1="690.67" y1="482.36" x2="691.02" y2="482.36" gradientTransform="matrix(1, 0, 0, 1, 0, 0)" xlink:href="#linear-gradient"/><linearGradient id="linear-gradient-142" x1="690.64" y1="482.37" x2="690.98" y2="482.37" gradientTransform="matrix(1, 0, 0, 1, 0, 0)" xlink:href="#linear-gradient"/><linearGradient id="linear-gradient-143" x1="690.6" y1="482.37" x2="690.94" y2="482.37" gradientTransform="matrix(1, 0, 0, 1, 0, 0)" xlink:href="#linear-gradient"/><linearGradient id="linear-gradient-144" x1="690.56" y1="482.37" x2="690.9" y2="482.37" gradientTransform="matrix(1, 0, 0, 1, 0, 0)" xlink:href="#linear-gradient"/><linearGradient id="linear-gradient-145" x1="690.52" y1="482.38" x2="690.87" y2="482.38" gradientTransform="matrix(1, 0, 0, 1, 0, 0)" xlink:href="#linear-gradient"/><linearGradient id="linear-gradient-146" x1="690.48" y1="482.38" x2="690.83" y2="482.38" gradientTransform="matrix(1, 0, 0, 1, 0, 0)" xlink:href="#linear-gradient"/><linearGradient id="linear-gradient-147" x1="690.44" y1="482.38" x2="690.79" y2="482.38" gradientTransform="matrix(1, 0, 0, 1, 0, 0)" xlink:href="#linear-gradient"/><linearGradient id="linear-gradient-148" x1="690.4" y1="482.38" x2="690.75" y2="482.38" gradientTransform="matrix(1, 0, 0, 1, 0, 0)" xlink:href="#linear-gradient"/><linearGradient id="linear-gradient-149" x1="690.37" y1="482.39" x2="690.71" y2="482.39" gradientTransform="matrix(1, 0, 0, 1, 0, 0)" xlink:href="#linear-gradient"/><linearGradient id="linear-gradient-150" x1="690.33" y1="482.39" x2="690.67" y2="482.39" gradientTransform="matrix(1, 0, 0, 1, 0, 0)" xlink:href="#linear-gradient"/><linearGradient id="linear-gradient-151" x1="690.29" y1="482.39" x2="690.63" y2="482.39" gradientTransform="matrix(1, 0, 0, 1, 0, 0)" xlink:href="#linear-gradient"/><linearGradient id="linear-gradient-152" x1="690.25" y1="482.4" x2="690.6" y2="482.4" gradientTransform="matrix(1, 0, 0, 1, 0, 0)" xlink:href="#linear-gradient"/><linearGradient id="linear-gradient-153" x1="690.21" y1="482.4" x2="690.56" y2="482.4" gradientTransform="matrix(1, 0, 0, 1, 0, 0)" xlink:href="#linear-gradient"/><linearGradient id="linear-gradient-154" x1="690.17" y1="482.4" x2="690.52" y2="482.4" gradientTransform="matrix(1, 0, 0, 1, 0, 0)" xlink:href="#linear-gradient"/><linearGradient id="linear-gradient-155" x1="690.14" y1="482.41" x2="690.48" y2="482.41" gradientTransform="matrix(1, 0, 0, 1, 0, 0)" xlink:href="#linear-gradient"/><linearGradient id="linear-gradient-156" x1="690.1" y1="482.41" x2="690.44" y2="482.41" gradientTransform="matrix(1, 0, 0, 1, 0, 0)" xlink:href="#linear-gradient"/><linearGradient id="linear-gradient-157" x1="690.06" y1="482.41" x2="690.4" y2="482.41" gradientTransform="matrix(1, 0, 0, 1, 0, 0)" xlink:href="#linear-gradient"/><linearGradient id="linear-gradient-158" x1="690.02" y1="482.42" x2="690.37" y2="482.42" gradientTransform="matrix(1, 0, 0, 1, 0, 0)" xlink:href="#linear-gradient"/><linearGradient id="linear-gradient-159" x1="689.98" y1="482.42" x2="690.33" y2="482.42" gradientTransform="matrix(1, 0, 0, 1, 0, 0)" xlink:href="#linear-gradient"/><linearGradient id="linear-gradient-160" x1="689.94" y1="482.42" x2="690.29" y2="482.42" gradientTransform="matrix(1, 0, 0, 1, 0, 0)" xlink:href="#linear-gradient"/><linearGradient id="linear-gradient-161" x1="689.9" y1="482.42" x2="690.25" y2="482.42" gradientTransform="matrix(1, 0, 0, 1, 0, 0)" xlink:href="#linear-gradient"/><linearGradient id="linear-gradient-162" x1="689.87" y1="482.43" x2="690.21" y2="482.43" gradientTransform="matrix(1, 0, 0, 1, 0, 0)" xlink:href="#linear-gradient"/><linearGradient id="linear-gradient-163" x1="689.83" y1="482.43" x2="690.17" y2="482.43" gradientTransform="matrix(1, 0, 0, 1, 0, 0)" xlink:href="#linear-gradient"/><linearGradient id="linear-gradient-164" x1="689.79" y1="482.43" x2="690.14" y2="482.43" gradientTransform="matrix(1, 0, 0, 1, 0, 0)" xlink:href="#linear-gradient"/><linearGradient id="linear-gradient-165" x1="689.75" y1="482.44" x2="690.1" y2="482.44" gradientTransform="matrix(1, 0, 0, 1, 0, 0)" xlink:href="#linear-gradient"/><linearGradient id="linear-gradient-166" x1="689.71" y1="482.44" x2="690.06" y2="482.44" gradientTransform="matrix(1, 0, 0, 1, 0, 0)" xlink:href="#linear-gradient"/><linearGradient id="linear-gradient-167" x1="689.67" y1="482.44" x2="690.02" y2="482.44" gradientTransform="matrix(1, 0, 0, 1, 0, 0)" xlink:href="#linear-gradient"/><linearGradient id="linear-gradient-168" x1="689.64" y1="482.45" x2="689.98" y2="482.45" gradientTransform="matrix(1, 0, 0, 1, 0, 0)" xlink:href="#linear-gradient"/><linearGradient id="linear-gradient-169" x1="689.6" y1="482.45" x2="689.94" y2="482.45" gradientTransform="matrix(1, 0, 0, 1, 0, 0)" xlink:href="#linear-gradient"/><linearGradient id="linear-gradient-170" x1="689.56" y1="482.45" x2="689.9" y2="482.45" gradientTransform="matrix(1, 0, 0, 1, 0, 0)" xlink:href="#linear-gradient"/><linearGradient id="linear-gradient-171" x1="689.52" y1="482.46" x2="689.87" y2="482.46" gradientTransform="matrix(1, 0, 0, 1, 0, 0)" xlink:href="#linear-gradient"/><linearGradient id="linear-gradient-172" x1="689.48" y1="482.46" x2="689.83" y2="482.46" gradientTransform="matrix(1, 0, 0, 1, 0, 0)" xlink:href="#linear-gradient"/><linearGradient id="linear-gradient-173" x1="689.44" y1="482.46" x2="689.79" y2="482.46" gradientTransform="matrix(1, 0, 0, 1, 0, 0)" xlink:href="#linear-gradient"/><linearGradient id="linear-gradient-174" x1="689.4" y1="482.47" x2="689.75" y2="482.47" gradientTransform="matrix(1, 0, 0, 1, 0, 0)" xlink:href="#linear-gradient"/><linearGradient id="linear-gradient-175" x1="689.37" y1="482.47" x2="689.71" y2="482.47" gradientTransform="matrix(1, 0, 0, 1, 0, 0)" xlink:href="#linear-gradient"/><linearGradient id="linear-gradient-176" x1="689.33" y1="482.47" x2="689.67" y2="482.47" gradientTransform="matrix(1, 0, 0, 1, 0, 0)" xlink:href="#linear-gradient"/><linearGradient id="linear-gradient-177" x1="689.29" y1="482.47" x2="689.64" y2="482.47" gradientTransform="matrix(1, 0, 0, 1, 0, 0)" xlink:href="#linear-gradient"/><linearGradient id="linear-gradient-178" x1="689.25" y1="482.48" x2="689.6" y2="482.48" gradientTransform="matrix(1, 0, 0, 1, 0, 0)" xlink:href="#linear-gradient"/><linearGradient id="linear-gradient-179" x1="689.21" y1="482.48" x2="689.56" y2="482.48" gradientTransform="matrix(1, 0, 0, 1, 0, 0)" xlink:href="#linear-gradient"/><linearGradient id="linear-gradient-180" x1="689.17" y1="482.48" x2="689.52" y2="482.48" gradientTransform="matrix(1, 0, 0, 1, 0, 0)" xlink:href="#linear-gradient"/><linearGradient id="linear-gradient-181" x1="689.14" y1="482.49" x2="689.48" y2="482.49" gradientTransform="matrix(1, 0, 0, 1, 0, 0)" xlink:href="#linear-gradient"/><linearGradient id="linear-gradient-182" x1="689.1" y1="482.49" x2="689.44" y2="482.49" gradientTransform="matrix(1, 0, 0, 1, 0, 0)" xlink:href="#linear-gradient"/><linearGradient id="linear-gradient-183" x1="689.06" y1="482.49" x2="689.4" y2="482.49" gradientTransform="matrix(1, 0, 0, 1, 0, 0)" xlink:href="#linear-gradient"/><linearGradient id="linear-gradient-184" x1="689.02" y1="482.5" x2="689.37" y2="482.5" gradientTransform="matrix(1, 0, 0, 1, 0, 0)" xlink:href="#linear-gradient"/><linearGradient id="linear-gradient-185" x1="688.98" y1="482.5" x2="689.33" y2="482.5" gradientTransform="matrix(1, 0, 0, 1, 0, 0)" xlink:href="#linear-gradient"/><linearGradient id="linear-gradient-186" x1="688.94" y1="482.5" x2="689.29" y2="482.5" gradientTransform="matrix(1, 0, 0, 1, 0, 0)" xlink:href="#linear-gradient"/><linearGradient id="linear-gradient-187" x1="688.91" y1="482.5" x2="689.82" y2="482.5" gradientTransform="matrix(1, 0, 0, 1, 0, 0)" xlink:href="#linear-gradient"/><linearGradient id="linear-gradient-188" x1="688.94" y1="481.48" x2="689.17" y2="481.48" gradientTransform="matrix(1, 0, 0, 1, 0, 0)" xlink:href="#linear-gradient"/><linearGradient id="linear-gradient-189" x1="-1623.28" y1="571.06" x2="-1767.21" y2="594.84" gradientTransform="matrix(-1, 0.08, 0.08, 1, -1017.08, -3.19)" xlink:href="#linear-gradient"/><linearGradient id="linear-gradient-190" x1="-1658.25" y1="595.74" x2="-1737.53" y2="608.84" gradientTransform="matrix(-1, 0.08, 0.08, 1, -1017.08, -3.19)" xlink:href="#linear-gradient"/><linearGradient id="linear-gradient-191" x1="726.23" y1="439.45" x2="758.89" y2="397.45" gradientTransform="matrix(1, 0, 0, 1, 0, 0)" xlink:href="#linear-gradient"/></defs><title>laptop-learning</title><g class="cls-2"><g id="Layer_1" data-name="Layer 1"><path class="cls-3" d="M733.23,711.34c-16.92,17.81-32.93,29.29-45.58,38.37-148.67,106.67-324.59,75.58-362,68-55.21-11.21-161.93-32.88-239.09-123.62C-30.14,556.8-12,340.53,78.58,197.77c16.56-26.12,104.05-171,281.86-194.3C468.05-10.59,593.49,17.78,684.33,93.88,875,253.64,861.44,576.36,733.23,711.34Z" transform="translate(0 0)"/><g class="cls-4"><path class="cls-5" d="M427.47,161.05a2.43,2.43,0,0,1-.57-3.2c1.44-2.32,3-4.62,4.66-6.82a2.42,2.42,0,0,1,3.39-.49l0,0a2.41,2.41,0,0,1,.45,3.36c-1.56,2.1-3.05,4.28-4.43,6.49a2.42,2.42,0,0,1-3.34.77Zm13.08-16.57a1.9,1.9,0,0,1-.21-.19,2.42,2.42,0,0,1,0-3.43c1.93-2,4-3.85,6.05-5.62a2.42,2.42,0,1,1,3.15,3.68c-2,1.69-3.91,3.49-5.75,5.35A2.43,2.43,0,0,1,440.55,144.48ZM457,131.21a2.35,2.35,0,0,1-.55-.62,2.42,2.42,0,0,1,.74-3.34c2.31-1.48,4.72-2.87,7.15-4.14a2.42,2.42,0,0,1,2.24,4.3c-2.31,1.2-4.59,2.52-6.79,3.93A2.44,2.44,0,0,1,457,131.21Zm19-9.28a2.42,2.42,0,0,1,.68-4.19c2.58-.92,5.24-1.74,7.9-2.44a2.42,2.42,0,0,1,1.23,4.69c-2.53.66-5.05,1.44-7.51,2.31A2.41,2.41,0,0,1,475.93,121.93Zm20.56-4.81a2.42,2.42,0,0,1,1.2-4.32c2.72-.32,5.49-.53,8.24-.62a2.42,2.42,0,0,1,.16,4.84c-2.61.09-5.24.29-7.83.6A2.44,2.44,0,0,1,496.49,117.12ZM517.6,117a2.42,2.42,0,0,1,1.74-4.32c2.73.28,5.48.69,8.17,1.21a2.42,2.42,0,1,1-.91,4.76c-2.56-.49-5.17-.88-7.77-1.15A2.44,2.44,0,0,1,517.6,117Zm73.63,50a2.36,2.36,0,0,1-.65-.78c-1.21-2.31-2.54-4.59-4-6.79a2.43,2.43,0,1,1,4.09-2.61c1.48,2.31,2.88,4.72,4.15,7.15a2.42,2.42,0,0,1-3.64,3Zm-53-45.43a2.42,2.42,0,0,1,2.27-4.21c2.59.89,5.18,1.9,7.69,3a2.42,2.42,0,0,1-1.95,4.44c-2.39-1-4.84-2-7.31-2.85A2.36,2.36,0,0,1,538.21,121.52Zm41.17,28a2.69,2.69,0,0,1-.35-.33c-1.7-2-3.5-3.91-5.36-5.74a2.43,2.43,0,0,1,3.4-3.46c1.95,1.93,3.85,4,5.64,6a2.42,2.42,0,0,1-3.33,3.49Zm-22.1-18.94a2.42,2.42,0,0,1,2.77-4c2.33,1.45,4.62,3,6.83,4.65l0,0a2.43,2.43,0,0,1-2.94,3.86c-2.09-1.56-4.27-3.05-6.49-4.42A1.37,1.37,0,0,1,557.28,130.54Z" transform="translate(0 0)"/><path class="cls-5" d="M597.74,182.68a2.46,2.46,0,0,1-.82-1.19c-.37-1.2-.77-2.4-1.2-3.59a2.42,2.42,0,0,1,4.57-1.62c.44,1.24.87,2.51,1.26,3.76a2.43,2.43,0,0,1-3.81,2.64Z" transform="translate(0 0)"/></g><g class="cls-4"><path class="cls-5" d="M590.43,256.2a2.42,2.42,0,0,1-.64-3.08c.6-1.09,1.19-2.22,1.75-3.35a2.42,2.42,0,0,1,4.34,2.16c-.59,1.18-1.21,2.37-1.84,3.52a2.41,2.41,0,0,1-3.29,1A1.77,1.77,0,0,1,590.43,256.2Z" transform="translate(0 0)"/><path class="cls-5" d="M449.78,285.38c-.88-.69-1.75-1.39-2.61-2.11a2.43,2.43,0,0,1,3.1-3.73q3,2.5,6.14,4.71a2.42,2.42,0,1,1-2.79,4C452.33,287.31,451,286.35,449.78,285.38Zm-11.86-11a2.56,2.56,0,0,1-.3-.28c-1.82-2-3.58-4.09-5.23-6.22a2.42,2.42,0,1,1,3.84-3c1.56,2,3.24,4,5,5.92a2.42,2.42,0,0,1-3.28,3.54Zm26.62,20.38a2.43,2.43,0,0,1,2.6-4.07c2.28,1.17,4.63,2.26,7,3.24a2.42,2.42,0,1,1-1.85,4.48c-2.5-1-5-2.17-7.38-3.41A3,3,0,0,1,464.54,294.8Zm-38.86-37.17a2.47,2.47,0,0,1-.61-.71c-1.34-2.34-2.6-4.78-3.74-7.22a2.42,2.42,0,1,1,4.4-2c1.08,2.32,2.27,4.63,3.54,6.86a2.42,2.42,0,0,1-3.59,3.11Zm58.26,44.56a2.42,2.42,0,0,1,2.1-4.26c2.48.64,5,1.19,7.55,1.62a2.42,2.42,0,0,1-.82,4.78c-2.66-.46-5.34-1-7.95-1.71A2.33,2.33,0,0,1,483.94,302.19Zm20.56,3a2.42,2.42,0,0,1,1.56-4.34c2.57.09,5.17.07,7.73-.06a2.42,2.42,0,1,1,.24,4.84c-2.69.13-5.43.16-8.12.07A2.44,2.44,0,0,1,504.5,305.15Zm20.71-1.59a2.39,2.39,0,0,1-.89-1.47,2.42,2.42,0,0,1,1.93-2.83c2.52-.47,5-1.06,7.52-1.74a2.42,2.42,0,1,1,1.3,4.67c-2.6.72-5.27,1.33-7.92,1.84A2.45,2.45,0,0,1,525.21,303.56Zm19.87-6.08a2.41,2.41,0,0,1,.53-4.13c2.36-1,4.7-2.15,7-3.36a2.42,2.42,0,1,1,2.28,4.28c-2.37,1.27-4.84,2.46-7.32,3.53A2.42,2.42,0,0,1,545.08,297.48Zm18.06-10.29a2,2,0,0,1-.47-.48,2.43,2.43,0,0,1,.53-3.39c2.07-1.51,4.1-3.12,6-4.8a2.42,2.42,0,1,1,3.17,3.66c-2,1.77-4.18,3.47-6.36,5.06A2.41,2.41,0,0,1,563.14,287.19Zm15.34-14-.11-.1a2.42,2.42,0,0,1-.22-3.42c1.25-1.42,2.47-2.89,3.63-4.38q.63-.81,1.23-1.62a2.42,2.42,0,0,1,3.39-.5,2.39,2.39,0,0,1,.5,3.39c-.42.57-.86,1.14-1.3,1.71-1.22,1.57-2.5,3.12-3.81,4.61A2.44,2.44,0,0,1,578.48,273.2Z" transform="translate(0 0)"/><path class="cls-5" d="M417.42,238.5a2.4,2.4,0,0,1-.83-1.2c-.38-1.25-.75-2.54-1.08-3.82a2.42,2.42,0,1,1,4.69-1.23c.32,1.22.66,2.44,1,3.63a2.42,2.42,0,0,1-3.81,2.62Z" transform="translate(0 0)"/></g><path class="cls-5" d="M437.26,218.32a1.14,1.14,0,0,0,.79,1.06l13.13,4.19a60.37,60.37,0,0,0,7.86,17.8l-5.74,12.52a1.11,1.11,0,0,0,.24,1.29l12,11.42a1.15,1.15,0,0,0,1.31.18l12.24-6.32a60,60,0,0,0,18.14,7l4.8,12.93a1.13,1.13,0,0,0,1.09.73l16.53-.38a1.14,1.14,0,0,0,1-.79l4.19-13.13a60.37,60.37,0,0,0,17.8-7.86l12.52,5.75a1.13,1.13,0,0,0,1.29-.25l11.42-12a1.16,1.16,0,0,0,.19-1.31L561.75,239a60,60,0,0,0,7-18.14l12.93-4.8a1.14,1.14,0,0,0,.74-1.09L582,198.41a1.14,1.14,0,0,0-.79-1l-13.13-4.19a60.08,60.08,0,0,0-7.85-17.8L566,162.85a1.13,1.13,0,0,0-.25-1.29l-12-11.42a1.14,1.14,0,0,0-1.3-.19l-12.24,6.32a60,60,0,0,0-18.15-7l-4.79-12.93a1.15,1.15,0,0,0-1.09-.74L499.7,136a1.14,1.14,0,0,0-1.06.79l-4.19,13.13a59.69,59.69,0,0,0-17.79,7.86L464.13,152a1.13,1.13,0,0,0-1.29.25l-11.42,12a1.14,1.14,0,0,0-.18,1.3l6.32,12.24a60.07,60.07,0,0,0-7,18.15l-12.92,4.79a1.13,1.13,0,0,0-.74,1.09Z" transform="translate(0 0)"/><path class="cls-6" d="M499.44,221.48a16.62,16.62,0,1,1,26.23-17.55,16.62,16.62,0,0,1-24.2,18.9A15.9,15.9,0,0,1,499.44,221.48Zm18.06-23.16a12.94,12.94,0,0,0-1.57-1,12.59,12.59,0,1,0,1.57,1Z" transform="translate(0 0)"/><path class="cls-7" d="M485,240.64c-1.09-.86-2.16-1.77-3.18-2.75h0c-.32-.3-.63-.61-.95-.93a41.07,41.07,0,0,1-4.2-5l-.05-.07-.14-.21c-.1-.13-.19-.27-.28-.4a1,1,0,0,1,0-1.14,1.15,1.15,0,0,1,.23-.21,1,1,0,0,1,1.34.26,39,39,0,0,0,41.6,15.94,38.66,38.66,0,0,0,18.8-10.9,39.19,39.19,0,0,0,2.62-3A38.93,38.93,0,1,0,472,199.72a1,1,0,0,1-.18.38,1,1,0,0,1-1,.35,1,1,0,0,1-.73-1.16,40.87,40.87,0,1,1,72.17,34.07,41.2,41.2,0,0,1-2.74,3.19A40.89,40.89,0,0,1,485,240.64Z" transform="translate(0 0)"/><g class="cls-4"><path class="cls-5" d="M323,160.67a1.5,1.5,0,0,1-.47-1.73c.46-1.18,1-2.36,1.51-3.52a1.5,1.5,0,1,1,2.71,1.27c-.51,1.09-1,2.22-1.44,3.35a1.49,1.49,0,0,1-1.94.84A1.23,1.23,0,0,1,323,160.67Z" transform="translate(0 0)"/><path class="cls-5" d="M328.17,150.39a1.49,1.49,0,0,1-.35-2,65.16,65.16,0,0,1,3.77-5.4c.29-.36.57-.72.87-1.08a1.54,1.54,0,0,1,2.1-.22,1.49,1.49,0,0,1,.22,2.1l-.82,1a60.89,60.89,0,0,0-3.6,5.15,1.5,1.5,0,0,1-2.07.47Zm9.8-12.06a1.07,1.07,0,0,1-.16-.14,1.49,1.49,0,0,1,0-2.12,64.52,64.52,0,0,1,6.06-5.16,1.5,1.5,0,1,1,1.8,2.39,61.54,61.54,0,0,0-5.79,4.93A1.49,1.49,0,0,1,338,138.33ZM350.4,129a1.61,1.61,0,0,1-.38-.44,1.49,1.49,0,0,1,.56-2,63.18,63.18,0,0,1,7.15-3.52,1.5,1.5,0,1,1,1.15,2.76,60.73,60.73,0,0,0-6.82,3.36A1.5,1.5,0,0,1,350.4,129Zm14.35-6a1.46,1.46,0,0,1-.53-.77,1.51,1.51,0,0,1,1-1.85,65.19,65.19,0,0,1,7.8-1.66,1.5,1.5,0,0,1,.44,3,61,61,0,0,0-7.43,1.59A1.5,1.5,0,0,1,364.75,123Zm15.37-2.29a1.5,1.5,0,0,1,.88-2.68,64.11,64.11,0,0,1,8,.28,1.5,1.5,0,0,1-.29,3,64.2,64.2,0,0,0-7.6-.27A1.49,1.49,0,0,1,380.12,120.73Zm15.46,1.5a1.5,1.5,0,0,1,1.24-2.65,65,65,0,0,1,7.65,2.22,1.5,1.5,0,1,1-1,2.82,61.36,61.36,0,0,0-7.29-2.11A1.53,1.53,0,0,1,395.58,122.23Zm14.62,5.23a1.49,1.49,0,0,1,1.59-2.51,65,65,0,0,1,6.88,4,1.5,1.5,0,1,1-1.67,2.49,60.74,60.74,0,0,0-6.56-3.84A1.43,1.43,0,0,1,410.2,127.46Zm18.46,14.12a1.12,1.12,0,0,1-.2-.18,60.54,60.54,0,0,0-4.68-4.66l-.74-.66a1.49,1.49,0,0,1-.16-2.11,1.48,1.48,0,0,1,2.11-.15l.79.69a66.63,66.63,0,0,1,4.91,4.89,1.5,1.5,0,0,1-2,2.18Z" transform="translate(0 0)"/></g><g class="cls-4"><path class="cls-5" d="M343.66,234.23a1.49,1.49,0,0,1,1.82-2.37A64,64,0,0,0,351.7,236a1.5,1.5,0,1,1-1.51,2.59,65.4,65.4,0,0,1-6.52-4.35Zm-5.82-5-.12-.11a65.75,65.75,0,0,1-5.3-5.77,1.5,1.5,0,1,1,2.32-1.89A62.8,62.8,0,0,0,339.8,227a1.5,1.5,0,0,1-2,2.26Zm19,12.67a1.5,1.5,0,0,1,1.51-2.56,62.74,62.74,0,0,0,7,2.52,1.5,1.5,0,0,1-.84,2.87,63,63,0,0,1-7.38-2.64A1.77,1.77,0,0,1,356.87,241.92ZM328.2,217.38a1.59,1.59,0,0,1-.34-.39,64.71,64.71,0,0,1-3.76-6.89,1.5,1.5,0,1,1,2.72-1.26,61.2,61.2,0,0,0,3.57,6.56,1.5,1.5,0,0,1-2.19,2Zm43.34,28.8a1.5,1.5,0,0,1,1.16-2.66,61.67,61.67,0,0,0,7.44.75,1.5,1.5,0,0,1-.12,3,63.61,63.61,0,0,1-7.8-.79A1.44,1.44,0,0,1,371.54,246.18Zm15.27.62a1.52,1.52,0,0,1-.57-1.06,1.5,1.5,0,0,1,1.37-1.62,63.81,63.81,0,0,0,7.41-1,1.48,1.48,0,0,1,1.76,1.16,1.5,1.5,0,0,1-1.17,1.77,65,65,0,0,1-7.76,1.1A1.51,1.51,0,0,1,386.81,246.8Zm15-3.06a1.59,1.59,0,0,1-.5-.71,1.5,1.5,0,0,1,.95-1.89,61.2,61.2,0,0,0,6.93-2.8,1.5,1.5,0,1,1,1.29,2.71,65.31,65.31,0,0,1-7.27,2.93A1.51,1.51,0,0,1,401.79,243.74Z" transform="translate(0 0)"/><path class="cls-5" d="M321.7,203.46a1.4,1.4,0,0,1-.5-.71c-.4-1.22-.76-2.46-1.08-3.68a1.49,1.49,0,0,1,1.07-1.82,1.5,1.5,0,0,1,1.83,1.07c.3,1.16.65,2.34,1,3.5a1.49,1.49,0,0,1-2.34,1.64Z" transform="translate(0 0)"/></g><path class="cls-5" d="M334.55,189a.76.76,0,0,0,.53.7l8.79,2.8a40,40,0,0,0,5.26,11.91l-3.85,8.38a.78.78,0,0,0,.17.87l8,7.64a.76.76,0,0,0,.87.12l8.2-4.23a40.25,40.25,0,0,0,12.14,4.7l3.21,8.65a.75.75,0,0,0,.73.49l11.06-.26a.75.75,0,0,0,.7-.52l2.8-8.79a40.2,40.2,0,0,0,11.92-5.26l8.37,3.84a.76.76,0,0,0,.87-.16l7.64-8a.77.77,0,0,0,.12-.88l-4.23-8.19a40,40,0,0,0,4.7-12.14l8.65-3.21a.75.75,0,0,0,.49-.73l-.25-11.06a.76.76,0,0,0-.53-.7l-8.79-2.81a40.15,40.15,0,0,0-5.26-11.91l3.85-8.38a.75.75,0,0,0-.17-.86l-8-7.64a.78.78,0,0,0-.87-.13l-8.2,4.23a40.23,40.23,0,0,0-12.14-4.69l-3.21-8.65a.75.75,0,0,0-.72-.49l-11.07.25a.76.76,0,0,0-.7.53l-2.8,8.79a40,40,0,0,0-11.91,5.26l-8.38-3.85a.76.76,0,0,0-.87.17l-7.64,8a.76.76,0,0,0-.12.87l4.23,8.19a40,40,0,0,0-4.7,12.15l-8.65,3.21a.75.75,0,0,0-.49.72Z" transform="translate(0 0)"/><path class="cls-8" d="M376,191.23a11.37,11.37,0,1,1,1.4.93A12.14,12.14,0,0,1,376,191.23Zm12.09-15.5a9.37,9.37,0,0,0-1-.68,8.35,8.35,0,0,0-11.35,3.15,8.33,8.33,0,0,0,3.14,11.35h0a8.33,8.33,0,0,0,9.22-13.82Z" transform="translate(0 0)"/><path class="cls-9" d="M365.93,204.55a27.29,27.29,0,0,1-2.17-1.88,28.18,28.18,0,0,1-3.73-4.36l-.15-.21a1.5,1.5,0,0,1,.06-1.76,1.5,1.5,0,0,1,2.42.07,25.11,25.11,0,0,0,3.47,4.1h0l.21.2a25.09,25.09,0,0,0,17.55,6.77h.23a25,25,0,0,0,17.64-7.79,25.76,25.76,0,0,0,1.69-2A25.2,25.2,0,0,0,365,164.88a23.71,23.71,0,0,0-1.67,1.94,25,25,0,0,0-4.68,9.88,1.5,1.5,0,0,1-1.79,1.13,1.49,1.49,0,0,1-1.13-1.79A28.15,28.15,0,0,1,361,165c.59-.75,1.21-1.48,1.87-2.17a28.2,28.2,0,0,1,42.69,36.74c-.59.76-1.22,1.49-1.89,2.2A28.25,28.25,0,0,1,365.93,204.55Z" transform="translate(0 0)"/><path class="cls-5" d="M831.29,59.79c1.18-3.34-3.38-6.14-6.59-4.07-32.57,21-112.41,85.7-108.44,214.59,5,161.72-39.82,215.61-91.54,245.8,0,0,67.51-9.46,115.3-63.88C857.37,318.61,810.33,119,831.29,59.79Z" transform="translate(0 0)"/><path class="cls-10" d="M803.07,107c-5.69,17.32-11,34.74-15.52,52.32s-8.67,35.23-12,53S769.29,248,767.27,266s-3.35,36-4.51,54.1-2.43,36.34-5.76,54.47-9.16,36.07-18.67,52.48c-2.38,4.08-4.85,8.15-7.58,12s-5.5,7.77-8.43,11.55a195.43,195.43,0,0,1-19.53,21.48,215.28,215.28,0,0,1-49,34.19,4.49,4.49,0,0,1-5.58-1.27,3.18,3.18,0,0,1,1.18-4.74h0c4.3-2.37,8.57-4.78,12.69-7.34,2.09-1.26,4.1-2.59,6.14-3.89s4-2.67,6-4.09a195.2,195.2,0,0,0,56.09-61.52A158.23,158.23,0,0,0,741.56,399a175.92,175.92,0,0,0,7-25.86c3.38-17.58,4.71-35.61,6.13-53.7s3.05-36.24,5.51-54.29q1.82-13.53,4.18-27c.76-4.49,1.62-9,2.47-13.43s1.82-8.93,2.79-13.38q5.88-26.7,13.67-53c5.29-17.48,11.11-34.81,17.71-51.9a1.1,1.1,0,0,1,1.37-.56A1,1,0,0,1,803.07,107Z" transform="translate(0 0)"/><path class="cls-11" d="M683.34,506.26A9.16,9.16,0,0,0,698.45,508c23.28-27.31,82.13-110.5,59.64-232.35-19-102.9-19.51-160.5-17.94-186.67a5.74,5.74,0,0,0-10.14-4C690.8,131.84,575.48,296.67,683.34,506.26Z" transform="translate(0 0)"/><path class="cls-10" d="M692.08,505.18a2.32,2.32,0,0,0,.46.18,2.54,2.54,0,0,0,3.12-1.79c.41-1.53,41.44-155.1,21.5-299.36a2.54,2.54,0,0,0-5,.69c19.8,143.22-21,295.82-21.37,297.34A2.54,2.54,0,0,0,692.08,505.18Z" transform="translate(0 0)"/><path class="cls-12" d="M71.15,643.86a12.81,12.81,0,0,0,12.79,12.77H775.26A12.81,12.81,0,0,0,788,643.86l5.76-397.28c0-7-8.28-20.74-23.45-19.71L94.72,209.39a32.21,32.21,0,0,0-33.06,33Z" transform="translate(0 0)"/><path class="cls-11" d="M83.77,631.61a12.13,12.13,0,0,0,12.1,12.09H758.59a12.12,12.12,0,0,0,12.09-12.09L776.11,271c-.64-21.7-19.67-29.5-31.2-29L97.37,224.53A22.64,22.64,0,0,0,74.14,247.7Z" transform="translate(0 0)"/><path class="cls-11" d="M763.52,460.14h0a1.65,1.65,0,0,1-1.62-1.67l.43-29.25a1.69,1.69,0,0,1,1.66-1.61,1.64,1.64,0,0,1,1.62,1.66l-.43,29.25A1.64,1.64,0,0,1,763.52,460.14Z" transform="translate(0 0)"/><path class="cls-11" d="M764.57,388.46h0a1.63,1.63,0,0,1-1.61-1.66l1.64-112c0-6.69-2.06-12-6-15.85-7.42-7.11-19.19-6.74-19.69-6.72l-207-5.55a1.64,1.64,0,0,1,0-3.28H532l206.84,5.55c1.29-.06,13.72-.29,22,7.63,4.65,4.46,7,10.59,7.06,18.24l-1.65,112.06A1.63,1.63,0,0,1,764.57,388.46Z" transform="translate(0 0)"/><rect class="cls-13" x="15.07" y="654.71" width="815.04" height="34.91" rx="2.62" ry="2.62" transform="translate(845.18 1344.32) rotate(180)"/><path class="cls-14" d="M673.71,599.76H159.84a31.14,31.14,0,0,1-31.15-31.14V319a31.14,31.14,0,0,1,31.65-31.14l513.87,8.33a31.13,31.13,0,0,1,30.64,31.14V568.62A31.14,31.14,0,0,1,673.71,599.76Z" transform="translate(0 0)"/><path class="cls-5" d="M414.47,546.06A109.85,109.85,0,1,1,524.31,436.21,110,110,0,0,1,414.47,546.06Zm0-201.28a91.44,91.44,0,1,0,91.44,91.43A91.54,91.54,0,0,0,414.47,344.78Z" transform="translate(0 0)"/><path class="cls-15" d="M380.06,478.52v-79a10.88,10.88,0,0,1,16.44-9.36L463,429.67a10.88,10.88,0,0,1,0,18.72L396.5,487.88A10.89,10.89,0,0,1,380.06,478.52Z" transform="translate(0 0)"/><path class="cls-16" d="M677.71,602.28H182.22a8.91,8.91,0,0,1-9.15-8.63,8.8,8.8,0,0,1,8.72-8.63H677.28c5.48,0,9.58,3.86,9.58,8.63A8.91,8.91,0,0,1,677.71,602.28Z" transform="translate(0 0)"/><path class="cls-17" d="M386.17,602.28H181.7a8.63,8.63,0,1,1,0-17.26H386.17a8.63,8.63,0,1,1,0,17.26Z" transform="translate(0 0)"/><circle class="cls-18" cx="386.69" cy="592.21" r="17.04"/><path class="cls-19" d="M217,185.09l12.37,44.57a21.64,21.64,0,0,1-2.81,17.76c-8.72,13.13-30,36.85-75.25,49-45.92,12.29-71.91-.36-83.1-8.68a23,23,0,0,1-8.38-12.13l-13.54-47.2Z" transform="translate(0 0)"/><path class="cls-20" d="M119.1,127.73l128.6,36A8.59,8.59,0,0,1,251,178.56c-25.49,21.8-83.42,72.58-105.36,102.08a8.59,8.59,0,0,1-10.18,2.79L5.31,229.57a8.59,8.59,0,0,1-2.38-14.4c25.24-22.16,89.48-77.66,110.37-87A8.52,8.52,0,0,1,119.1,127.73Z" transform="translate(0 0)"/><path class="cls-21" d="M121.88,194.16S53.33,237.4,48.1,247.28s5.29,54.8,5.29,54.8C42.6,340.09,41,381.37,59.23,403c0,0,22.48-50,12.44-71S57.76,302.2,57.76,302.2s-8.79-47.88-6-54.72C51.75,247.48,127.7,196.9,121.88,194.16Z" transform="translate(0 0)"/><path class="cls-22" d="M230.39,175.68,164.58,240.6l-16.45,16.23L144,260.89l-2,2a12.63,12.63,0,0,1-2.13,1.65,12.34,12.34,0,0,1-10.4,1.13L85.6,251a.66.66,0,0,0-.83.42.64.64,0,0,0,.41.83l43.71,15a14,14,0,0,0,11.85-1.21,13.41,13.41,0,0,0,2.45-1.86l2.09-2,4.14-4L166,242l66.3-64.42a1.36,1.36,0,1,0-1.9-2Z" transform="translate(0 0)"/><path class="cls-22" d="M58.41,325.17l.13.14.15.18.31.37.59.79c.39.54.74,1.13,1.11,1.69l1,1.8c.3.61.57,1.25.85,1.87a18.75,18.75,0,0,1,.77,1.92c.23.65.48,1.29.69,1.95l.56,2a19.9,19.9,0,0,1,.51,2l.41,2.05a20.64,20.64,0,0,1,.36,2.06c.16,1.39.35,2.77.5,4.16l.2,4.21c0,.35,0,.7,0,1.05l0,1.05,0,2.11c0,2.81-.36,5.61-.59,8.42a21.15,21.15,0,0,1-.27,2.1l-.33,2.09c-.23,1.39-.43,2.79-.67,4.18-.63,2.76-1.19,5.53-1.86,8.28l-2.31,8.18v0a.47.47,0,0,0,.91.27L63.9,382c.75-2.75,1.4-5.54,2.1-8.31.29-1.4.52-2.81.79-4.21l.39-2.11c.13-.7.27-1.41.33-2.12.31-2.85.77-5.68.82-8.56l.11-2.15,0-1.08c0-.36,0-.72,0-1.08l-.1-4.32c-.11-1.44-.27-2.87-.4-4.31,0-.72-.2-1.43-.32-2.15l-.37-2.14c-.1-.72-.31-1.42-.48-2.13l-.53-2.11c-.21-.7-.46-1.39-.68-2.08a21.33,21.33,0,0,0-.76-2.07c-.29-.67-.56-1.35-.87-2l-1-2c-.39-.63-.75-1.28-1.18-1.91l-.65-.93-.37-.46-.19-.23-.22-.25a1.36,1.36,0,0,0-2,1.82l0,0Z" transform="translate(0 0)"/><path class="cls-22" d="M56.32,342.87v2.67l0,3-.08,6L56,366.7l-.49,24.19a.74.74,0,0,0,1.48.05l1.11-24.18.52-12.09.23-6.05.11-3,0-1.52,0-.77c0-.33,0-.72-.06-1.08a1.32,1.32,0,0,0-2.64.12Z" transform="translate(0 0)"/><path class="cls-23" d="M796.57,482.25s32.82,18.18,35.53,48.94.23,158.47-65.57,189.9-152.91,24.18-186.25,20.75-51.83-26.1-56-41.7-10.8-73.72,24.28-92.46,71.91-47.47,108.72-75.43S757.21,458.63,796.57,482.25Z" transform="translate(0 0)"/><path class="cls-24" d="M558.94,618.28s8.86.47,9.94,18.69c0,0-20.53,18.41-48.28,22.8-2.08.33,2.92-14.22,3.67-16.19C527.84,634.2,539.09,628.17,558.94,618.28Z" transform="translate(0 0)"/><path class="cls-25" d="M658.69,596.86H640s-57.37-63.35-95-69.75c0,0-26.19,33.43,1.39,95.9,2.22,5,8.43,7.26,13.06,4.3a7.45,7.45,0,0,0,3-3.56l-2.22-53.33s48.93,42.8,57.44,51.06S669.4,624.7,658.69,596.86Z" transform="translate(0 0)"/><path class="cls-26" d="M478,729.87a70.32,70.32,0,0,1,38.33-16.77l6.09,3.73a66.12,66.12,0,0,1-11,11.78c-6.52,3.79-16.59,8.92-24.95,10C478.37,739.73,477.17,734.82,478,729.87Z" transform="translate(0 0)"/><path class="cls-27" d="M524.27,643.58c4.82,1.56,6.94,8.4,19.19,3.88a108.8,108.8,0,0,0,25.18-13.27c.1.88.18,1.8.24,2.78,0,0-21.65,20.6-49.39,25a2.76,2.76,0,0,1-3-3.72A70,70,0,0,1,524.27,643.58Z" transform="translate(0 0)"/><path class="cls-28" d="M472.09,735.73a66.76,66.76,0,0,1,5.9-5.86c-.82,5,.38,9.86,8.49,8.77,8.36-1.11,18.43-6.24,24.95-10-8.18,7-20.61,14.38-36.31,13.94A4.12,4.12,0,0,1,472.09,735.73Z" transform="translate(0 0)"/><path class="cls-29" d="M658,610.38l-87.52,1s-50,41.35-59.05,104.41c0,0-1.5,4.64,7.53,5.43,0,0,30.22-19.74,49.92-54.63,24.16-42.79,72-23.53,72-23.53,15.73-11.33,38-13.64,54.69-17.42Z" transform="translate(0 0)"/><path class="cls-30" d="M655.94,539.88s-9.43,47.22-55.59,65.9l-16.42-1.94L580.05,610l38.52,1.23s32.93-13,50.37-48.58C669.52,561.5,679.13,541.66,655.94,539.88Z" transform="translate(0 0)"/><path class="cls-31" d="M650.89,609.61s10.71-29.12,13-57.42c0,0-7.83-6.74-12.73-9.65a3.54,3.54,0,0,1-1.39-4.59c3.6-7.46,25.39-36.76,27-37.17,8.87-2.21,45.24-19.51,70.86,15.53,11,15-2.18,61.34-52.06,109.28l-10.29,2Z" transform="translate(0 0)"/><path class="cls-32" d="M692.17,558.57S662.4,593.81,624.35,599c0,0-9.84-9-17.15-5.77s-17.35,17.33-17.35,17.33h48.87s46.21-1.62,69.3-29.64C706.16,571.08,700.59,565.23,692.17,558.57Z" transform="translate(0 0)"/><path class="cls-33" d="M709.54,476.06l6.51,21.72a2.38,2.38,0,0,1-.93,2.66c-3.13,2.15-11.33,6.42-22.57,2.27a3.55,3.55,0,0,1-2.28-3l-1.54-18.93Z" transform="translate(0 0)"/><path class="cls-34" d="M671.4,458.46s3.2,22.52,11.85,29.45,25.51,1.71,31.2-15.27l-11.34-29Z" transform="translate(0 0)"/><path class="cls-35" d="M704.38,462.4a1.12,1.12,0,0,1-1.45-.89,29.22,29.22,0,0,0-2.66-9s.82-2.95-7.47,1.51-20.75,11-28.08,7.12c-7.15-3.81-14.39-23,4.5-19.42a1.12,1.12,0,0,0,1.33-1.17c-.23-3.14.08-10.39,7.41-12.71,6.87-2.18,3.18,1.35,4.73,3.22.46.55-.57-1.87,9.18-.46,3.35.49,7.64-8.39,15.86-4.77,6.77,3,7.82,7.15,7.71,9.75a1.12,1.12,0,0,0,1.59,1.06c2.07-.95,5.41-1.45,8.6,2.55,4.42,5.54-1.89,10.34-3.79,11.6a1.09,1.09,0,0,0-.5.92c0,2.87-.47,15.43-6.76,22.51a1.13,1.13,0,0,1-1.87-.32l-4.85-11.55a1.11,1.11,0,0,0-1.37-.63Z" transform="translate(0 0)"/><path class="cls-36" d="M704.28,464.74s3-12.05,7.46-8.13-1.18,12.52-6.33,14.16Z" transform="translate(0 0)"/><path class="cls-37" d="M592.31,613.27,570.37,540.1a7.47,7.47,0,0,0-6.65-5.32l-29.63-2a4.21,4.21,0,0,0-4.25,5.59l24.53,69.88a6.15,6.15,0,0,0,5.18,4.08l29.18,3.24Z" transform="translate(0 0)"/><path class="cls-11" d="M551.85,564.9c1.63,3.3,4.46,5.24,6.32,4.32s2-4.34.38-7.64-4.47-5.25-6.32-4.33S550.21,561.59,551.85,564.9Z" transform="translate(0 0)"/><path class="cls-38" d="M588.73,615.54h.14L651,612.39a2.78,2.78,0,1,0-.28-5.56L588.59,610a2.79,2.79,0,0,0,.14,5.57Z" transform="translate(0 0)"/><path class="cls-39" d="M663.9,552.68a.5.5,0,0,0,.5-.5c0-13,5-30.22,5-30.39a.51.51,0,0,0-.34-.62.5.5,0,0,0-.61.34c-.05.17-5.1,17.55-5.06,30.68A.49.49,0,0,0,663.9,552.68Z" transform="translate(0 0)"/><path class="cls-40" d="M692.17,559.06a.48.48,0,0,0,.39-.19c.14-.17,13.73-17.45,18.41-29.3a.49.49,0,0,0-.92-.36c-4.62,11.71-18.13,28.88-18.27,29a.49.49,0,0,0,.09.69A.45.45,0,0,0,692.17,559.06Z" transform="translate(0 0)"/><path class="cls-41" d="M711.3,585.48l.37-.15c19.67-8.42,31.82-31.91,31.94-32.14a.51.51,0,0,0-.22-.67.49.49,0,0,0-.66.22c-.12.23-12,23.11-31.08,31.52l-2-2.86a.49.49,0,0,0-.69-.12.5.5,0,0,0-.12.69Z" transform="translate(0 0)"/><path class="cls-42" d="M693.36,482.34c13.36-2.37,17.51-17.87,17.55-18l-1-.26c0,.15-4,15-16.73,17.26Z" transform="translate(0 0)"/><rect class="cls-1" x="689.59" y="480.01" width="5.57" height="3.34" rx="1.45" ry="1.45" transform="translate(-36.52 57.29) rotate(-4.62)"/><g class="cls-43"><polygon class="cls-44" points="694.96 481.96 695.01 483.73 695.1 483.72 694.96 481.96"/><polygon class="cls-45" points="694.71 479.81 695.02 484.26 695.06 484.26 695.19 481.94 695.02 479.79 694.71 479.81"/><polygon class="cls-46" points="694.67 479.82 694.98 484.26 695.02 484.26 694.71 479.81 694.67 479.82"/><polygon class="cls-47" points="694.63 479.82 694.94 484.27 694.98 484.26 694.67 479.82 694.63 479.82"/><polygon class="cls-48" points="694.6 479.82 694.9 484.27 694.94 484.27 694.63 479.82 694.6 479.82"/><polygon class="cls-49" points="694.56 479.83 694.87 484.27 694.9 484.27 694.6 479.82 694.56 479.83"/><polygon class="cls-50" points="694.52 479.83 694.83 484.28 694.87 484.27 694.56 479.83 694.52 479.83"/><polygon class="cls-51" points="694.48 479.83 694.79 484.28 694.83 484.28 694.52 479.83 694.48 479.83"/><polygon class="cls-52" points="694.44 479.84 694.75 484.28 694.79 484.28 694.48 479.83 694.44 479.84"/><polygon class="cls-53" points="694.4 479.84 694.71 484.29 694.75 484.28 694.44 479.84 694.4 479.84"/><polygon class="cls-54" points="694.37 479.84 694.67 484.29 694.71 484.29 694.4 479.84 694.37 479.84"/><polygon class="cls-55" points="694.33 479.85 694.63 484.29 694.67 484.29 694.37 479.84 694.33 479.85"/><polygon class="cls-56" points="694.29 479.85 694.6 484.3 694.63 484.29 694.33 479.85 694.29 479.85"/><polygon class="cls-57" points="694.25 479.85 694.56 484.3 694.6 484.3 694.29 479.85 694.25 479.85"/><polygon class="cls-58" points="694.21 479.86 694.52 484.3 694.56 484.3 694.25 479.85 694.21 479.86"/><polygon class="cls-59" points="694.17 479.86 694.48 484.31 694.52 484.3 694.21 479.86 694.17 479.86"/><polygon class="cls-60" points="694.13 479.86 694.44 484.31 694.48 484.31 694.17 479.86 694.13 479.86"/><polygon class="cls-61" points="694.1 479.87 694.4 484.31 694.44 484.31 694.13 479.86 694.1 479.87"/><polygon class="cls-62" points="694.06 479.87 694.37 484.31 694.4 484.31 694.1 479.87 694.06 479.87"/><polygon class="cls-63" points="694.02 479.87 694.33 484.32 694.37 484.31 694.06 479.87 694.02 479.87"/><polygon class="cls-64" points="693.98 479.87 694.29 484.32 694.33 484.32 694.02 479.87 693.98 479.87"/><polygon class="cls-65" points="693.94 479.88 694.25 484.32 694.29 484.32 693.98 479.87 693.94 479.88"/><polygon class="cls-66" points="693.9 479.88 694.21 484.33 694.25 484.32 693.94 479.88 693.9 479.88"/><polygon class="cls-67" points="693.87 479.88 694.17 484.33 694.21 484.33 693.9 479.88 693.87 479.88"/><polygon class="cls-68" points="693.83 479.89 694.13 484.33 694.17 484.33 693.87 479.88 693.83 479.89"/><polygon class="cls-69" points="693.79 479.89 694.1 484.34 694.13 484.33 693.83 479.89 693.79 479.89"/><polygon class="cls-70" points="693.75 479.89 694.06 484.34 694.1 484.34 693.79 479.89 693.75 479.89"/><polygon class="cls-71" points="693.71 479.9 694.02 484.34 694.06 484.34 693.75 479.89 693.71 479.9"/><polygon class="cls-72" points="693.67 479.9 693.98 484.35 694.02 484.34 693.71 479.9 693.67 479.9"/><polygon class="cls-73" points="693.63 479.9 693.94 484.35 693.98 484.35 693.67 479.9 693.63 479.9"/><polygon class="cls-74" points="693.6 479.9 693.9 484.35 693.94 484.35 693.63 479.9 693.6 479.9"/><polygon class="cls-75" points="693.56 479.91 693.87 484.36 693.9 484.35 693.6 479.9 693.56 479.91"/><polygon class="cls-76" points="693.52 479.91 693.83 484.36 693.87 484.36 693.56 479.91 693.52 479.91"/><polygon class="cls-77" points="693.48 479.91 693.79 484.36 693.83 484.36 693.52 479.91 693.48 479.91"/><polygon class="cls-78" points="693.44 479.92 693.75 484.37 693.79 484.36 693.48 479.91 693.44 479.92"/><polygon class="cls-79" points="693.4 479.92 693.71 484.37 693.75 484.37 693.44 479.92 693.4 479.92"/><polygon class="cls-80" points="693.37 479.92 693.67 484.37 693.71 484.37 693.4 479.92 693.37 479.92"/><polygon class="cls-81" points="693.33 479.93 693.63 484.37 693.67 484.37 693.37 479.92 693.33 479.93"/><polygon class="cls-82" points="693.29 479.93 693.6 484.38 693.63 484.37 693.33 479.93 693.29 479.93"/><polygon class="cls-83" points="693.25 479.93 693.56 484.38 693.6 484.38 693.29 479.93 693.25 479.93"/><polygon class="cls-84" points="693.21 479.94 693.52 484.38 693.56 484.38 693.25 479.93 693.21 479.94"/><polygon class="cls-85" points="693.17 479.94 693.48 484.39 693.52 484.38 693.21 479.94 693.17 479.94"/><polygon class="cls-86" points="693.13 479.94 693.44 484.39 693.48 484.39 693.17 479.94 693.13 479.94"/><polygon class="cls-87" points="693.1 479.94 693.4 484.39 693.44 484.39 693.13 479.94 693.1 479.94"/><polygon class="cls-88" points="693.06 479.95 693.37 484.4 693.4 484.39 693.1 479.94 693.06 479.95"/><polygon class="cls-89" points="693.02 479.95 693.33 484.4 693.37 484.4 693.06 479.95 693.02 479.95"/><polygon class="cls-90" points="692.98 479.95 693.29 484.4 693.33 484.4 693.02 479.95 692.98 479.95"/><polygon class="cls-91" points="692.94 479.96 693.25 484.4 693.29 484.4 692.98 479.95 692.94 479.96"/><polygon class="cls-92" points="692.9 479.96 693.21 484.41 693.25 484.4 692.94 479.96 692.9 479.96"/><polygon class="cls-93" points="692.87 479.96 693.17 484.41 693.21 484.41 692.9 479.96 692.87 479.96"/><polygon class="cls-94" points="692.83 479.97 693.13 484.41 693.17 484.41 692.87 479.96 692.83 479.97"/><polygon class="cls-95" points="692.79 479.97 693.1 484.42 693.13 484.41 692.83 479.97 692.79 479.97"/><polygon class="cls-96" points="692.75 479.97 693.06 484.42 693.1 484.42 692.79 479.97 692.75 479.97"/><polygon class="cls-97" points="692.71 479.98 693.02 484.42 693.06 484.42 692.75 479.97 692.71 479.98"/><polygon class="cls-98" points="692.67 479.98 692.98 484.43 693.02 484.42 692.71 479.98 692.67 479.98"/><polygon class="cls-99" points="692.63 479.98 692.94 484.43 692.98 484.43 692.67 479.98 692.63 479.98"/><polygon class="cls-100" points="692.6 479.99 692.9 484.43 692.94 484.43 692.63 479.98 692.6 479.99"/><polygon class="cls-101" points="692.56 479.99 692.87 484.44 692.9 484.43 692.6 479.99 692.56 479.99"/><polygon class="cls-102" points="692.52 479.99 692.83 484.44 692.87 484.44 692.56 479.99 692.52 479.99"/><polygon class="cls-103" points="692.48 480 692.79 484.44 692.83 484.44 692.52 479.99 692.48 480"/><polygon class="cls-104" points="692.44 480 692.75 484.44 692.79 484.44 692.48 480 692.44 480"/><polygon class="cls-105" points="692.4 480 692.71 484.45 692.75 484.44 692.44 480 692.4 480"/><polygon class="cls-106" points="692.37 480 692.67 484.45 692.71 484.45 692.4 480 692.37 480"/><polygon class="cls-107" points="692.33 480.01 692.63 484.45 692.67 484.45 692.37 480 692.33 480.01"/><polygon class="cls-108" points="692.29 480.01 692.6 484.46 692.63 484.45 692.33 480.01 692.29 480.01"/><polygon class="cls-109" points="692.25 480.01 692.56 484.46 692.6 484.46 692.29 480.01 692.25 480.01"/><polygon class="cls-110" points="692.21 480.02 692.52 484.46 692.56 484.46 692.25 480.01 692.21 480.02"/><polygon class="cls-111" points="692.17 480.02 692.48 484.47 692.52 484.46 692.21 480.02 692.17 480.02"/><polygon class="cls-112" points="692.13 480.02 692.44 484.47 692.48 484.47 692.17 480.02 692.13 480.02"/><polygon class="cls-113" points="692.1 480.03 692.4 484.47 692.44 484.47 692.13 480.02 692.1 480.03"/><polygon class="cls-114" points="692.06 480.03 692.37 484.48 692.4 484.47 692.1 480.03 692.06 480.03"/><polygon class="cls-115" points="692.02 480.03 692.33 484.48 692.37 484.48 692.06 480.03 692.02 480.03"/><polygon class="cls-116" points="691.98 480.04 692.29 484.48 692.33 484.48 692.02 480.03 691.98 480.04"/><polygon class="cls-117" points="691.94 480.04 692.25 484.49 692.29 484.48 691.98 480.04 691.94 480.04"/><polygon class="cls-118" points="691.9 480.04 692.21 484.49 692.25 484.49 691.94 480.04 691.9 480.04"/><polygon class="cls-119" points="691.87 480.05 692.17 484.49 692.21 484.49 691.9 480.04 691.87 480.05"/><polygon class="cls-120" points="691.83 480.05 692.13 484.5 692.17 484.49 691.87 480.05 691.83 480.05"/><polygon class="cls-121" points="691.79 480.05 692.1 484.5 692.13 484.5 691.83 480.05 691.79 480.05"/><polygon class="cls-122" points="691.75 480.05 692.06 484.5 692.1 484.5 691.79 480.05 691.75 480.05"/><polygon class="cls-123" points="691.71 480.06 692.02 484.5 692.06 484.5 691.75 480.05 691.71 480.06"/><polygon class="cls-124" points="691.67 480.06 691.98 484.51 692.02 484.5 691.71 480.06 691.67 480.06"/><polygon class="cls-125" points="691.63 480.06 691.94 484.51 691.98 484.51 691.67 480.06 691.63 480.06"/><polygon class="cls-126" points="691.6 480.07 691.9 484.51 691.94 484.51 691.63 480.06 691.6 480.07"/><polygon class="cls-127" points="691.56 480.07 691.87 484.52 691.9 484.51 691.6 480.07 691.56 480.07"/><polygon class="cls-128" points="691.52 480.07 691.83 484.52 691.87 484.52 691.56 480.07 691.52 480.07"/><polygon class="cls-129" points="691.48 480.08 691.79 484.52 691.83 484.52 691.52 480.07 691.48 480.08"/><polygon class="cls-130" points="691.44 480.08 691.75 484.53 691.79 484.52 691.48 480.08 691.44 480.08"/><polygon class="cls-131" points="691.4 480.08 691.71 484.53 691.75 484.53 691.44 480.08 691.4 480.08"/><polygon class="cls-132" points="691.37 480.08 691.67 484.53 691.71 484.53 691.4 480.08 691.37 480.08"/><polygon class="cls-133" points="691.33 480.09 691.63 484.54 691.67 484.53 691.37 480.08 691.33 480.09"/><polygon class="cls-134" points="691.29 480.09 691.6 484.54 691.63 484.54 691.33 480.09 691.29 480.09"/><polygon class="cls-135" points="691.25 480.09 691.56 484.54 691.6 484.54 691.29 480.09 691.25 480.09"/><polygon class="cls-136" points="691.21 480.1 691.52 484.55 691.56 484.54 691.25 480.09 691.21 480.1"/><polygon class="cls-137" points="691.17 480.1 691.48 484.55 691.52 484.55 691.21 480.1 691.17 480.1"/><polygon class="cls-138" points="691.13 480.1 691.44 484.55 691.48 484.55 691.17 480.1 691.13 480.1"/><polygon class="cls-139" points="691.1 480.11 691.4 484.55 691.44 484.55 691.13 480.1 691.1 480.11"/><polygon class="cls-140" points="691.06 480.11 691.37 484.56 691.4 484.55 691.1 480.11 691.06 480.11"/><polygon class="cls-141" points="691.02 480.11 691.33 484.56 691.37 484.56 691.06 480.11 691.02 480.11"/><polygon class="cls-142" points="690.98 480.12 691.29 484.56 691.33 484.56 691.02 480.11 690.98 480.12"/><polygon class="cls-143" points="690.94 480.12 691.25 484.57 691.29 484.56 690.98 480.12 690.94 480.12"/><polygon class="cls-144" points="690.9 480.12 691.21 484.57 691.25 484.57 690.94 480.12 690.9 480.12"/><polygon class="cls-145" points="690.87 480.13 691.17 484.57 691.21 484.57 690.9 480.12 690.87 480.13"/><polygon class="cls-146" points="690.83 480.13 691.13 484.58 691.17 484.57 690.87 480.13 690.83 480.13"/><polygon class="cls-147" points="690.79 480.13 691.1 484.58 691.13 484.58 690.83 480.13 690.79 480.13"/><polygon class="cls-148" points="690.75 480.13 691.06 484.58 691.1 484.58 690.79 480.13 690.75 480.13"/><polygon class="cls-149" points="690.71 480.14 691.02 484.58 691.06 484.58 690.75 480.13 690.71 480.14"/><polygon class="cls-150" points="690.67 480.14 690.98 484.59 691.02 484.58 690.71 480.14 690.67 480.14"/><polygon class="cls-151" points="690.63 480.14 690.94 484.59 690.98 484.59 690.67 480.14 690.63 480.14"/><polygon class="cls-152" points="690.6 480.15 690.9 484.59 690.94 484.59 690.63 480.14 690.6 480.15"/><polygon class="cls-153" points="690.56 480.15 690.87 484.6 690.9 484.59 690.6 480.15 690.56 480.15"/><polygon class="cls-154" points="690.52 480.15 690.83 484.6 690.87 484.6 690.56 480.15 690.52 480.15"/><polygon class="cls-155" points="690.48 480.16 690.79 484.6 690.83 484.6 690.52 480.15 690.48 480.16"/><polygon class="cls-156" points="690.44 480.16 690.75 484.61 690.79 484.6 690.48 480.16 690.44 480.16"/><polygon class="cls-157" points="690.4 480.16 690.71 484.61 690.75 484.61 690.44 480.16 690.4 480.16"/><polygon class="cls-158" points="690.37 480.17 690.67 484.61 690.71 484.61 690.4 480.16 690.37 480.17"/><polygon class="cls-159" points="690.33 480.17 690.63 484.62 690.67 484.61 690.37 480.17 690.33 480.17"/><polygon class="cls-160" points="690.29 480.17 690.6 484.62 690.63 484.62 690.33 480.17 690.29 480.17"/><polygon class="cls-161" points="690.25 480.18 690.56 484.62 690.6 484.62 690.29 480.17 690.25 480.18"/><polygon class="cls-162" points="690.21 480.18 690.52 484.63 690.56 484.62 690.25 480.18 690.21 480.18"/><polygon class="cls-163" points="690.17 480.18 690.48 484.63 690.52 484.63 690.21 480.18 690.17 480.18"/><polygon class="cls-164" points="690.14 480.18 690.44 484.63 690.48 484.63 690.17 480.18 690.14 480.18"/><polygon class="cls-165" points="690.1 480.19 690.4 484.63 690.44 484.63 690.14 480.18 690.1 480.19"/><polygon class="cls-166" points="690.06 480.19 690.37 484.64 690.4 484.63 690.1 480.19 690.06 480.19"/><polygon class="cls-167" points="690.02 480.19 690.33 484.64 690.37 484.64 690.06 480.19 690.02 480.19"/><polygon class="cls-168" points="689.98 480.2 690.29 484.64 690.33 484.64 690.02 480.19 689.98 480.2"/><polygon class="cls-169" points="689.94 480.2 690.25 484.65 690.29 484.64 689.98 480.2 689.94 480.2"/><polygon class="cls-170" points="689.9 480.2 690.21 484.65 690.25 484.65 689.94 480.2 689.9 480.2"/><polygon class="cls-171" points="689.87 480.21 690.17 484.65 690.21 484.65 689.9 480.2 689.87 480.21"/><polygon class="cls-172" points="689.83 480.21 690.13 484.66 690.17 484.65 689.87 480.21 689.83 480.21"/><polygon class="cls-173" points="689.79 480.21 690.1 484.66 690.13 484.66 689.83 480.21 689.79 480.21"/><polygon class="cls-174" points="689.75 480.21 690.06 484.66 690.1 484.66 689.79 480.21 689.75 480.21"/><polygon class="cls-175" points="689.71 480.22 690.02 484.67 690.06 484.66 689.75 480.21 689.71 480.22"/><polygon class="cls-176" points="689.67 480.22 689.98 484.67 690.02 484.67 689.71 480.22 689.67 480.22"/><polygon class="cls-177" points="689.64 480.23 689.94 484.67 689.98 484.67 689.67 480.22 689.64 480.23"/><polygon class="cls-178" points="689.6 480.23 689.9 484.68 689.94 484.67 689.64 480.23 689.6 480.23"/><polygon class="cls-179" points="689.56 480.23 689.87 484.68 689.9 484.68 689.6 480.23 689.56 480.23"/><polygon class="cls-180" points="689.52 480.23 689.83 484.68 689.87 484.68 689.56 480.23 689.52 480.23"/><polygon class="cls-181" points="689.48 480.24 689.79 484.68 689.83 484.68 689.52 480.23 689.48 480.24"/><polygon class="cls-182" points="689.44 480.24 689.75 484.69 689.79 484.68 689.48 480.24 689.44 480.24"/><polygon class="cls-183" points="689.4 480.24 689.71 484.69 689.75 484.69 689.44 480.24 689.4 480.24"/><polygon class="cls-184" points="689.37 480.25 689.67 484.69 689.71 484.69 689.4 480.24 689.37 480.25"/><polygon class="cls-185" points="689.33 480.25 689.63 484.7 689.67 484.69 689.37 480.25 689.33 480.25"/><polygon class="cls-186" points="689.29 480.25 689.6 484.7 689.63 484.7 689.33 480.25 689.29 480.25"/><polygon class="cls-187" points="689.25 480.26 689.56 484.7 689.6 484.7 689.29 480.25 689.25 480.26"/><polygon class="cls-188" points="689.21 480.26 689.52 484.71 689.56 484.7 689.25 480.26 689.21 480.26"/><polygon class="cls-189" points="689.17 480.26 689.48 484.71 689.52 484.71 689.21 480.26 689.17 480.26"/><polygon class="cls-190" points="689.14 480.26 689.44 484.71 689.48 484.71 689.17 480.26 689.14 480.26"/><polygon class="cls-191" points="689.1 480.27 689.4 484.71 689.44 484.71 689.14 480.26 689.1 480.27"/><polygon class="cls-192" points="689.06 480.27 689.37 484.72 689.4 484.71 689.1 480.27 689.06 480.27"/><polygon class="cls-193" points="689.02 480.27 689.33 484.72 689.37 484.72 689.06 480.27 689.02 480.27"/><polygon class="cls-194" points="688.98 480.28 689.29 484.73 689.33 484.72 689.02 480.27 688.98 480.28"/><polygon class="cls-195" points="688.94 480.28 689.25 484.73 689.29 484.73 688.98 480.28 688.94 480.28"/><polygon class="cls-196" points="688.9 480.28 689.62 482.19 689.82 484.68 689.25 484.73 688.94 480.28 688.9 480.28"/><polygon class="cls-197" points="689.17 482.23 688.94 480.73 689.05 480.72 689.17 482.23"/></g><path class="cls-198" d="M706.38,449.59s-10.09-19.72-23.69-18.53a9.76,9.76,0,0,1,7.6-1.68c4.35.92,16.86,8.69,19.49,19.94C707.37,450.83,706.38,449.59,706.38,449.59Z" transform="translate(0 0)"/><path class="cls-199" d="M708.27,447.76c7.58-.38,9,8.95,9,8.95,2.21,6.48,1.12,10.25-1,12.45a5.87,5.87,0,0,1-9.83-2.17c-.6-1.76-1.18-3.44-1.47-4C704.34,461.59,700.7,448.14,708.27,447.76Z" transform="translate(0 0)"/><path class="cls-200" d="M708.2,450.23a3.39,3.39,0,0,1,4.07,1c6.85,8.87,3.23,16.71.67,17.51s-6-12.33-6.29-15.85A2.48,2.48,0,0,1,708.2,450.23Z" transform="translate(0 0)"/></g></g></svg>